<?xml version="1.0" encoding="utf-8" standalone="no"?>
<!DOCTYPE svg PUBLIC "-//W3C//DTD SVG 1.1//EN"
  "http://www.w3.org/Graphics/SVG/1.1/DTD/svg11.dtd">
<svg height="288pt" version="1.1" viewBox="0 0 360 288" width="360pt" xmlns="http://www.w3.org/2000/svg" xmlns:xlink="http://www.w3.org/1999/xlink">
 <metadata>
  <rdf:RDF xmlns:cc="http://creativecommons.org/ns#" xmlns:dc="http://purl.org/dc/elements/1.1/" xmlns:rdf="http://www.w3.org/1999/02/22-rdf-syntax-ns#">
   <cc:Work>
    <dc:type rdf:resource="http://purl.org/dc/dcmitype/StillImage"/>
    <dc:date>2021-07-31T17:41:33.292467</dc:date>
    <dc:format>image/svg+xml</dc:format>
    <dc:creator>
     <cc:Agent>
      <dc:title>Matplotlib v3.4.2, https://matplotlib.org/</dc:title>
     </cc:Agent>
    </dc:creator>
   </cc:Work>
  </rdf:RDF>
 </metadata>
 <defs>
  <style type="text/css">*{stroke-linecap:butt;stroke-linejoin:round;}</style>
 </defs>
 <g id="figure_1">
  <g id="patch_1">
   <path d="M 0 288 
L 360 288 
L 360 0 
L 0 0 
z
" style="fill:none;"/>
  </g>
  <g id="axes_1">
   <g id="patch_2">
    <path d="M 45 252 
L 324 252 
L 324 34.56 
L 45 34.56 
z
" style="fill:#ffffff;"/>
   </g>
   <g id="PathCollection_1">
    <defs>
     <path d="M 0 3 
C 0.795609 3 1.55874 2.683901 2.12132 2.12132 
C 2.683901 1.55874 3 0.795609 3 0 
C 3 -0.795609 2.683901 -1.55874 2.12132 -2.12132 
C 1.55874 -2.683901 0.795609 -3 0 -3 
C -0.795609 -3 -1.55874 -2.683901 -2.12132 -2.12132 
C -2.683901 -1.55874 -3 -0.795609 -3 0 
C -3 0.795609 -2.683901 1.55874 -2.12132 2.12132 
C -1.55874 2.683901 -0.795609 3 0 3 
z
" id="m26fc706740" style="stroke:#4682b4;"/>
    </defs>
    <g clip-path="url(#p5dfa640100)">
     <use style="fill:#4682b4;stroke:#4682b4;" x="170.696963" xlink:href="#m26fc706740" y="153.217878"/>
     <use style="fill:#4682b4;stroke:#4682b4;" x="175.675733" xlink:href="#m26fc706740" y="163.460389"/>
     <use style="fill:#4682b4;stroke:#4682b4;" x="152.086432" xlink:href="#m26fc706740" y="141.159316"/>
     <use style="fill:#4682b4;stroke:#4682b4;" x="187.108898" xlink:href="#m26fc706740" y="172.611121"/>
     <use style="fill:#4682b4;stroke:#4682b4;" x="126.87254" xlink:href="#m26fc706740" y="113.256658"/>
     <use style="fill:#4682b4;stroke:#4682b4;" x="104.818892" xlink:href="#m26fc706740" y="83.860204"/>
     <use style="fill:#4682b4;stroke:#4682b4;" x="185.961126" xlink:href="#m26fc706740" y="173.505418"/>
     <use style="fill:#4682b4;stroke:#4682b4;" x="137.585525" xlink:href="#m26fc706740" y="156.372193"/>
     <use style="fill:#4682b4;stroke:#4682b4;" x="152.465468" xlink:href="#m26fc706740" y="122.697682"/>
     <use style="fill:#4682b4;stroke:#4682b4;" x="126.453071" xlink:href="#m26fc706740" y="140.151567"/>
     <use style="fill:#4682b4;stroke:#4682b4;" x="191.69222" xlink:href="#m26fc706740" y="175.781866"/>
     <use style="fill:#4682b4;stroke:#4682b4;" x="143.249483" xlink:href="#m26fc706740" y="124.65489"/>
     <use style="fill:#4682b4;stroke:#4682b4;" x="57.681818" xlink:href="#m26fc706740" y="44.443636"/>
     <use style="fill:#4682b4;stroke:#4682b4;" x="202.060998" xlink:href="#m26fc706740" y="209.349625"/>
     <use style="fill:#4682b4;stroke:#4682b4;" x="129.26291" xlink:href="#m26fc706740" y="125.205296"/>
     <use style="fill:#4682b4;stroke:#4682b4;" x="208.405405" xlink:href="#m26fc706740" y="209.946552"/>
     <use style="fill:#4682b4;stroke:#4682b4;" x="142.095092" xlink:href="#m26fc706740" y="148.864563"/>
     <use style="fill:#4682b4;stroke:#4682b4;" x="139.415486" xlink:href="#m26fc706740" y="129.784653"/>
     <use style="fill:#4682b4;stroke:#4682b4;" x="162.365743" xlink:href="#m26fc706740" y="156.21381"/>
     <use style="fill:#4682b4;stroke:#4682b4;" x="171.89372" xlink:href="#m26fc706740" y="188.6113"/>
     <use style="fill:#4682b4;stroke:#4682b4;" x="118.046546" xlink:href="#m26fc706740" y="143.328992"/>
     <use style="fill:#4682b4;stroke:#4682b4;" x="143.881432" xlink:href="#m26fc706740" y="148.602524"/>
     <use style="fill:#4682b4;stroke:#4682b4;" x="168.28552" xlink:href="#m26fc706740" y="157.059917"/>
     <use style="fill:#4682b4;stroke:#4682b4;" x="134.067934" xlink:href="#m26fc706740" y="124.933966"/>
     <use style="fill:#4682b4;stroke:#4682b4;" x="130.145439" xlink:href="#m26fc706740" y="136.277593"/>
     <use style="fill:#4682b4;stroke:#4682b4;" x="121.58863" xlink:href="#m26fc706740" y="128.43679"/>
     <use style="fill:#4682b4;stroke:#4682b4;" x="119.34768" xlink:href="#m26fc706740" y="130.597643"/>
     <use style="fill:#4682b4;stroke:#4682b4;" x="187.650538" xlink:href="#m26fc706740" y="191.05772"/>
     <use style="fill:#4682b4;stroke:#4682b4;" x="188.301237" xlink:href="#m26fc706740" y="175.961488"/>
     <use style="fill:#4682b4;stroke:#4682b4;" x="163.649516" xlink:href="#m26fc706740" y="163.146318"/>
     <use style="fill:#4682b4;stroke:#4682b4;" x="135.822882" xlink:href="#m26fc706740" y="130.46506"/>
     <use style="fill:#4682b4;stroke:#4682b4;" x="162.03805" xlink:href="#m26fc706740" y="162.503711"/>
     <use style="fill:#4682b4;stroke:#4682b4;" x="175.873622" xlink:href="#m26fc706740" y="175.800296"/>
     <use style="fill:#4682b4;stroke:#4682b4;" x="184.246457" xlink:href="#m26fc706740" y="200.160395"/>
     <use style="fill:#4682b4;stroke:#4682b4;" x="173.711949" xlink:href="#m26fc706740" y="181.796392"/>
     <use style="fill:#4682b4;stroke:#4682b4;" x="187.994575" xlink:href="#m26fc706740" y="197.258442"/>
     <use style="fill:#4682b4;stroke:#4682b4;" x="143.13433" xlink:href="#m26fc706740" y="148.653386"/>
     <use style="fill:#4682b4;stroke:#4682b4;" x="146.649006" xlink:href="#m26fc706740" y="167.957369"/>
     <use style="fill:#4682b4;stroke:#4682b4;" x="147.562299" xlink:href="#m26fc706740" y="151.650707"/>
     <use style="fill:#4682b4;stroke:#4682b4;" x="169.549232" xlink:href="#m26fc706740" y="180.341216"/>
     <use style="fill:#4682b4;stroke:#4682b4;" x="190.185172" xlink:href="#m26fc706740" y="170.056075"/>
     <use style="fill:#4682b4;stroke:#4682b4;" x="137.769204" xlink:href="#m26fc706740" y="113.20687"/>
     <use style="fill:#4682b4;stroke:#4682b4;" x="172.115767" xlink:href="#m26fc706740" y="184.033282"/>
     <use style="fill:#4682b4;stroke:#4682b4;" x="248.53975" xlink:href="#m26fc706740" y="242.116364"/>
     <use style="fill:#4682b4;stroke:#4682b4;" x="148.400524" xlink:href="#m26fc706740" y="132.167246"/>
     <use style="fill:#4682b4;stroke:#4682b4;" x="133.57791" xlink:href="#m26fc706740" y="139.896173"/>
     <use style="fill:#4682b4;stroke:#4682b4;" x="201.038753" xlink:href="#m26fc706740" y="198.06212"/>
     <use style="fill:#4682b4;stroke:#4682b4;" x="147.489621" xlink:href="#m26fc706740" y="181.227239"/>
     <use style="fill:#4682b4;stroke:#4682b4;" x="114.385723" xlink:href="#m26fc706740" y="91.567813"/>
     <use style="fill:#4682b4;stroke:#4682b4;" x="164.609246" xlink:href="#m26fc706740" y="166.754985"/>
    </g>
   </g>
   <g id="PathCollection_2">
    <defs>
     <path d="M 0 3 
C 0.795609 3 1.55874 2.683901 2.12132 2.12132 
C 2.683901 1.55874 3 0.795609 3 0 
C 3 -0.795609 2.683901 -1.55874 2.12132 -2.12132 
C 1.55874 -2.683901 0.795609 -3 0 -3 
C -0.795609 -3 -1.55874 -2.683901 -2.12132 -2.12132 
C -2.683901 -1.55874 -3 -0.795609 -3 0 
C -3 0.795609 -2.683901 1.55874 -2.12132 2.12132 
C -1.55874 2.683901 -0.795609 3 0 3 
z
" id="m0f2849e3ba" style="stroke:#ff8c00;"/>
    </defs>
    <g clip-path="url(#p5dfa640100)">
     <use style="fill:#ff8c00;stroke:#ff8c00;" x="294.81273" xlink:href="#m0f2849e3ba" y="190.808542"/>
     <use style="fill:#ff8c00;stroke:#ff8c00;" x="259.443624" xlink:href="#m0f2849e3ba" y="203.502681"/>
     <use style="fill:#ff8c00;stroke:#ff8c00;" x="235.217253" xlink:href="#m0f2849e3ba" y="157.710279"/>
     <use style="fill:#ff8c00;stroke:#ff8c00;" x="246.182386" xlink:href="#m0f2849e3ba" y="154.257393"/>
     <use style="fill:#ff8c00;stroke:#ff8c00;" x="257.736789" xlink:href="#m0f2849e3ba" y="122.302282"/>
     <use style="fill:#ff8c00;stroke:#ff8c00;" x="237.760826" xlink:href="#m0f2849e3ba" y="158.424461"/>
     <use style="fill:#ff8c00;stroke:#ff8c00;" x="272.80933" xlink:href="#m0f2849e3ba" y="118.104112"/>
     <use style="fill:#ff8c00;stroke:#ff8c00;" x="293.012022" xlink:href="#m0f2849e3ba" y="156.167615"/>
     <use style="fill:#ff8c00;stroke:#ff8c00;" x="229.25253" xlink:href="#m0f2849e3ba" y="149.289778"/>
     <use style="fill:#ff8c00;stroke:#ff8c00;" x="233.910365" xlink:href="#m0f2849e3ba" y="125.522953"/>
     <use style="fill:#ff8c00;stroke:#ff8c00;" x="283.974401" xlink:href="#m0f2849e3ba" y="67.689048"/>
     <use style="fill:#ff8c00;stroke:#ff8c00;" x="276.500436" xlink:href="#m0f2849e3ba" y="122.708571"/>
     <use style="fill:#ff8c00;stroke:#ff8c00;" x="279.103145" xlink:href="#m0f2849e3ba" y="162.356441"/>
     <use style="fill:#ff8c00;stroke:#ff8c00;" x="253.079936" xlink:href="#m0f2849e3ba" y="105.468396"/>
     <use style="fill:#ff8c00;stroke:#ff8c00;" x="263.372856" xlink:href="#m0f2849e3ba" y="148.638387"/>
     <use style="fill:#ff8c00;stroke:#ff8c00;" x="273.395128" xlink:href="#m0f2849e3ba" y="123.581833"/>
     <use style="fill:#ff8c00;stroke:#ff8c00;" x="247.402926" xlink:href="#m0f2849e3ba" y="150.73874"/>
     <use style="fill:#ff8c00;stroke:#ff8c00;" x="231.115651" xlink:href="#m0f2849e3ba" y="157.904078"/>
     <use style="fill:#ff8c00;stroke:#ff8c00;" x="293.647974" xlink:href="#m0f2849e3ba" y="196.386873"/>
     <use style="fill:#ff8c00;stroke:#ff8c00;" x="302.332392" xlink:href="#m0f2849e3ba" y="79.534369"/>
     <use style="fill:#ff8c00;stroke:#ff8c00;" x="265.791729" xlink:href="#m0f2849e3ba" y="146.177759"/>
     <use style="fill:#ff8c00;stroke:#ff8c00;" x="224.699295" xlink:href="#m0f2849e3ba" y="202.264322"/>
     <use style="fill:#ff8c00;stroke:#ff8c00;" x="288.760504" xlink:href="#m0f2849e3ba" y="207.188484"/>
     <use style="fill:#ff8c00;stroke:#ff8c00;" x="254.165466" xlink:href="#m0f2849e3ba" y="141.439068"/>
     <use style="fill:#ff8c00;stroke:#ff8c00;" x="262.448758" xlink:href="#m0f2849e3ba" y="121.55725"/>
     <use style="fill:#ff8c00;stroke:#ff8c00;" x="241.13905" xlink:href="#m0f2849e3ba" y="206.544447"/>
     <use style="fill:#ff8c00;stroke:#ff8c00;" x="236.860656" xlink:href="#m0f2849e3ba" y="164.639298"/>
     <use style="fill:#ff8c00;stroke:#ff8c00;" x="261.842515" xlink:href="#m0f2849e3ba" y="186.504403"/>
     <use style="fill:#ff8c00;stroke:#ff8c00;" x="252.101204" xlink:href="#m0f2849e3ba" y="146.99216"/>
     <use style="fill:#ff8c00;stroke:#ff8c00;" x="237.589955" xlink:href="#m0f2849e3ba" y="171.523214"/>
     <use style="fill:#ff8c00;stroke:#ff8c00;" x="260.598961" xlink:href="#m0f2849e3ba" y="165.493616"/>
     <use style="fill:#ff8c00;stroke:#ff8c00;" x="220.30496" xlink:href="#m0f2849e3ba" y="168.500564"/>
     <use style="fill:#ff8c00;stroke:#ff8c00;" x="229.605595" xlink:href="#m0f2849e3ba" y="145.610139"/>
     <use style="fill:#ff8c00;stroke:#ff8c00;" x="311.318182" xlink:href="#m0f2849e3ba" y="219.204816"/>
     <use style="fill:#ff8c00;stroke:#ff8c00;" x="291.145342" xlink:href="#m0f2849e3ba" y="176.328592"/>
     <use style="fill:#ff8c00;stroke:#ff8c00;" x="256.343411" xlink:href="#m0f2849e3ba" y="156.399283"/>
     <use style="fill:#ff8c00;stroke:#ff8c00;" x="262.062779" xlink:href="#m0f2849e3ba" y="191.461034"/>
     <use style="fill:#ff8c00;stroke:#ff8c00;" x="230.955947" xlink:href="#m0f2849e3ba" y="152.792895"/>
     <use style="fill:#ff8c00;stroke:#ff8c00;" x="253.553266" xlink:href="#m0f2849e3ba" y="171.977757"/>
     <use style="fill:#ff8c00;stroke:#ff8c00;" x="248.448148" xlink:href="#m0f2849e3ba" y="134.143732"/>
     <use style="fill:#ff8c00;stroke:#ff8c00;" x="276.826511" xlink:href="#m0f2849e3ba" y="113.215293"/>
     <use style="fill:#ff8c00;stroke:#ff8c00;" x="218.169189" xlink:href="#m0f2849e3ba" y="132.521575"/>
     <use style="fill:#ff8c00;stroke:#ff8c00;" x="238.920939" xlink:href="#m0f2849e3ba" y="130.551462"/>
     <use style="fill:#ff8c00;stroke:#ff8c00;" x="271.82537" xlink:href="#m0f2849e3ba" y="139.085838"/>
     <use style="fill:#ff8c00;stroke:#ff8c00;" x="238.084425" xlink:href="#m0f2849e3ba" y="105.896532"/>
     <use style="fill:#ff8c00;stroke:#ff8c00;" x="225.768778" xlink:href="#m0f2849e3ba" y="192.169344"/>
     <use style="fill:#ff8c00;stroke:#ff8c00;" x="202.910815" xlink:href="#m0f2849e3ba" y="168.684015"/>
     <use style="fill:#ff8c00;stroke:#ff8c00;" x="275.147166" xlink:href="#m0f2849e3ba" y="137.070816"/>
     <use style="fill:#ff8c00;stroke:#ff8c00;" x="268.514083" xlink:href="#m0f2849e3ba" y="239.934953"/>
     <use style="fill:#ff8c00;stroke:#ff8c00;" x="261.632487" xlink:href="#m0f2849e3ba" y="165.912397"/>
    </g>
   </g>
   <g id="matplotlib.axis_1">
    <g id="xtick_1">
     <g id="line2d_1">
      <defs>
       <path d="M 0 0 
L 0 3.5 
" id="m513d7e36e4" style="stroke:#000000;stroke-width:0.8;"/>
      </defs>
      <g>
       <use style="stroke:#000000;stroke-width:0.8;" x="58.078234" xlink:href="#m513d7e36e4" y="252"/>
      </g>
     </g>
     <g id="text_1">
      <!-- −3 -->
      <g transform="translate(50.70714 266.598437)scale(0.1 -0.1)">
       <defs>
        <path d="M 678 2272 
L 4684 2272 
L 4684 1741 
L 678 1741 
L 678 2272 
z
" id="DejaVuSans-2212" transform="scale(0.015625)"/>
        <path d="M 2597 2516 
Q 3050 2419 3304 2112 
Q 3559 1806 3559 1356 
Q 3559 666 3084 287 
Q 2609 -91 1734 -91 
Q 1441 -91 1130 -33 
Q 819 25 488 141 
L 488 750 
Q 750 597 1062 519 
Q 1375 441 1716 441 
Q 2309 441 2620 675 
Q 2931 909 2931 1356 
Q 2931 1769 2642 2001 
Q 2353 2234 1838 2234 
L 1294 2234 
L 1294 2753 
L 1863 2753 
Q 2328 2753 2575 2939 
Q 2822 3125 2822 3475 
Q 2822 3834 2567 4026 
Q 2313 4219 1838 4219 
Q 1578 4219 1281 4162 
Q 984 4106 628 3988 
L 628 4550 
Q 988 4650 1302 4700 
Q 1616 4750 1894 4750 
Q 2613 4750 3031 4423 
Q 3450 4097 3450 3541 
Q 3450 3153 3228 2886 
Q 3006 2619 2597 2516 
z
" id="DejaVuSans-33" transform="scale(0.015625)"/>
       </defs>
       <use xlink:href="#DejaVuSans-2212"/>
       <use x="83.789062" xlink:href="#DejaVuSans-33"/>
      </g>
     </g>
    </g>
    <g id="xtick_2">
     <g id="line2d_2">
      <g>
       <use style="stroke:#000000;stroke-width:0.8;" x="107.074122" xlink:href="#m513d7e36e4" y="252"/>
      </g>
     </g>
     <g id="text_2">
      <!-- −2 -->
      <g transform="translate(99.703028 266.598437)scale(0.1 -0.1)">
       <defs>
        <path d="M 1228 531 
L 3431 531 
L 3431 0 
L 469 0 
L 469 531 
Q 828 903 1448 1529 
Q 2069 2156 2228 2338 
Q 2531 2678 2651 2914 
Q 2772 3150 2772 3378 
Q 2772 3750 2511 3984 
Q 2250 4219 1831 4219 
Q 1534 4219 1204 4116 
Q 875 4013 500 3803 
L 500 4441 
Q 881 4594 1212 4672 
Q 1544 4750 1819 4750 
Q 2544 4750 2975 4387 
Q 3406 4025 3406 3419 
Q 3406 3131 3298 2873 
Q 3191 2616 2906 2266 
Q 2828 2175 2409 1742 
Q 1991 1309 1228 531 
z
" id="DejaVuSans-32" transform="scale(0.015625)"/>
       </defs>
       <use xlink:href="#DejaVuSans-2212"/>
       <use x="83.789062" xlink:href="#DejaVuSans-32"/>
      </g>
     </g>
    </g>
    <g id="xtick_3">
     <g id="line2d_3">
      <g>
       <use style="stroke:#000000;stroke-width:0.8;" x="156.070009" xlink:href="#m513d7e36e4" y="252"/>
      </g>
     </g>
     <g id="text_3">
      <!-- −1 -->
      <g transform="translate(148.698916 266.598437)scale(0.1 -0.1)">
       <defs>
        <path d="M 794 531 
L 1825 531 
L 1825 4091 
L 703 3866 
L 703 4441 
L 1819 4666 
L 2450 4666 
L 2450 531 
L 3481 531 
L 3481 0 
L 794 0 
L 794 531 
z
" id="DejaVuSans-31" transform="scale(0.015625)"/>
       </defs>
       <use xlink:href="#DejaVuSans-2212"/>
       <use x="83.789062" xlink:href="#DejaVuSans-31"/>
      </g>
     </g>
    </g>
    <g id="xtick_4">
     <g id="line2d_4">
      <g>
       <use style="stroke:#000000;stroke-width:0.8;" x="205.065897" xlink:href="#m513d7e36e4" y="252"/>
      </g>
     </g>
     <g id="text_4">
      <!-- 0 -->
      <g transform="translate(201.884647 266.598437)scale(0.1 -0.1)">
       <defs>
        <path d="M 2034 4250 
Q 1547 4250 1301 3770 
Q 1056 3291 1056 2328 
Q 1056 1369 1301 889 
Q 1547 409 2034 409 
Q 2525 409 2770 889 
Q 3016 1369 3016 2328 
Q 3016 3291 2770 3770 
Q 2525 4250 2034 4250 
z
M 2034 4750 
Q 2819 4750 3233 4129 
Q 3647 3509 3647 2328 
Q 3647 1150 3233 529 
Q 2819 -91 2034 -91 
Q 1250 -91 836 529 
Q 422 1150 422 2328 
Q 422 3509 836 4129 
Q 1250 4750 2034 4750 
z
" id="DejaVuSans-30" transform="scale(0.015625)"/>
       </defs>
       <use xlink:href="#DejaVuSans-30"/>
      </g>
     </g>
    </g>
    <g id="xtick_5">
     <g id="line2d_5">
      <g>
       <use style="stroke:#000000;stroke-width:0.8;" x="254.061785" xlink:href="#m513d7e36e4" y="252"/>
      </g>
     </g>
     <g id="text_5">
      <!-- 1 -->
      <g transform="translate(250.880535 266.598437)scale(0.1 -0.1)">
       <use xlink:href="#DejaVuSans-31"/>
      </g>
     </g>
    </g>
    <g id="xtick_6">
     <g id="line2d_6">
      <g>
       <use style="stroke:#000000;stroke-width:0.8;" x="303.057673" xlink:href="#m513d7e36e4" y="252"/>
      </g>
     </g>
     <g id="text_6">
      <!-- 2 -->
      <g transform="translate(299.876423 266.598437)scale(0.1 -0.1)">
       <use xlink:href="#DejaVuSans-32"/>
      </g>
     </g>
    </g>
   </g>
   <g id="matplotlib.axis_2">
    <g id="ytick_1">
     <g id="line2d_7">
      <defs>
       <path d="M 0 0 
L -3.5 0 
" id="m6840a716c0" style="stroke:#000000;stroke-width:0.8;"/>
      </defs>
      <g>
       <use style="stroke:#000000;stroke-width:0.8;" x="45" xlink:href="#m6840a716c0" y="249.78935"/>
      </g>
     </g>
     <g id="text_7">
      <!-- −2 -->
      <g transform="translate(23.257812 253.588569)scale(0.1 -0.1)">
       <use xlink:href="#DejaVuSans-2212"/>
       <use x="83.789062" xlink:href="#DejaVuSans-32"/>
      </g>
     </g>
    </g>
    <g id="ytick_2">
     <g id="line2d_8">
      <g>
       <use style="stroke:#000000;stroke-width:0.8;" x="45" xlink:href="#m6840a716c0" y="218.575933"/>
      </g>
     </g>
     <g id="text_8">
      <!-- −1 -->
      <g transform="translate(23.257812 222.375152)scale(0.1 -0.1)">
       <use xlink:href="#DejaVuSans-2212"/>
       <use x="83.789062" xlink:href="#DejaVuSans-31"/>
      </g>
     </g>
    </g>
    <g id="ytick_3">
     <g id="line2d_9">
      <g>
       <use style="stroke:#000000;stroke-width:0.8;" x="45" xlink:href="#m6840a716c0" y="187.362517"/>
      </g>
     </g>
     <g id="text_9">
      <!-- 0 -->
      <g transform="translate(31.6375 191.161735)scale(0.1 -0.1)">
       <use xlink:href="#DejaVuSans-30"/>
      </g>
     </g>
    </g>
    <g id="ytick_4">
     <g id="line2d_10">
      <g>
       <use style="stroke:#000000;stroke-width:0.8;" x="45" xlink:href="#m6840a716c0" y="156.1491"/>
      </g>
     </g>
     <g id="text_10">
      <!-- 1 -->
      <g transform="translate(31.6375 159.948319)scale(0.1 -0.1)">
       <use xlink:href="#DejaVuSans-31"/>
      </g>
     </g>
    </g>
    <g id="ytick_5">
     <g id="line2d_11">
      <g>
       <use style="stroke:#000000;stroke-width:0.8;" x="45" xlink:href="#m6840a716c0" y="124.935683"/>
      </g>
     </g>
     <g id="text_11">
      <!-- 2 -->
      <g transform="translate(31.6375 128.734902)scale(0.1 -0.1)">
       <use xlink:href="#DejaVuSans-32"/>
      </g>
     </g>
    </g>
    <g id="ytick_6">
     <g id="line2d_12">
      <g>
       <use style="stroke:#000000;stroke-width:0.8;" x="45" xlink:href="#m6840a716c0" y="93.722267"/>
      </g>
     </g>
     <g id="text_12">
      <!-- 3 -->
      <g transform="translate(31.6375 97.521485)scale(0.1 -0.1)">
       <use xlink:href="#DejaVuSans-33"/>
      </g>
     </g>
    </g>
    <g id="ytick_7">
     <g id="line2d_13">
      <g>
       <use style="stroke:#000000;stroke-width:0.8;" x="45" xlink:href="#m6840a716c0" y="62.50885"/>
      </g>
     </g>
     <g id="text_13">
      <!-- 4 -->
      <g transform="translate(31.6375 66.308069)scale(0.1 -0.1)">
       <defs>
        <path d="M 2419 4116 
L 825 1625 
L 2419 1625 
L 2419 4116 
z
M 2253 4666 
L 3047 4666 
L 3047 1625 
L 3713 1625 
L 3713 1100 
L 3047 1100 
L 3047 0 
L 2419 0 
L 2419 1100 
L 313 1100 
L 313 1709 
L 2253 4666 
z
" id="DejaVuSans-34" transform="scale(0.015625)"/>
       </defs>
       <use xlink:href="#DejaVuSans-34"/>
      </g>
     </g>
    </g>
   </g>
   <g id="line2d_14">
    <path clip-path="url(#p5dfa640100)" d="M 254.37877 242.116364 
L 102.625239 44.535436 
L 102.625239 44.535436 
" style="fill:none;stroke:#556b2f;stroke-linecap:square;stroke-width:3;"/>
   </g>
   <g id="patch_3">
    <path d="M 45 252 
L 45 34.56 
" style="fill:none;stroke:#000000;stroke-linecap:square;stroke-linejoin:miter;stroke-width:0.8;"/>
   </g>
   <g id="patch_4">
    <path d="M 324 252 
L 324 34.56 
" style="fill:none;stroke:#000000;stroke-linecap:square;stroke-linejoin:miter;stroke-width:0.8;"/>
   </g>
   <g id="patch_5">
    <path d="M 45 252 
L 324 252 
" style="fill:none;stroke:#000000;stroke-linecap:square;stroke-linejoin:miter;stroke-width:0.8;"/>
   </g>
   <g id="patch_6">
    <path d="M 45 34.56 
L 324 34.56 
" style="fill:none;stroke:#000000;stroke-linecap:square;stroke-linejoin:miter;stroke-width:0.8;"/>
   </g>
   <g id="text_14">
    <!-- My Perceptron -->
    <g transform="translate(137.899063 14.002844)scale(0.13 -0.13)">
     <defs>
      <path d="M 628 4666 
L 1569 4666 
L 2759 1491 
L 3956 4666 
L 4897 4666 
L 4897 0 
L 4281 0 
L 4281 4097 
L 3078 897 
L 2444 897 
L 1241 4097 
L 1241 0 
L 628 0 
L 628 4666 
z
" id="DejaVuSans-4d" transform="scale(0.015625)"/>
      <path d="M 2059 -325 
Q 1816 -950 1584 -1140 
Q 1353 -1331 966 -1331 
L 506 -1331 
L 506 -850 
L 844 -850 
Q 1081 -850 1212 -737 
Q 1344 -625 1503 -206 
L 1606 56 
L 191 3500 
L 800 3500 
L 1894 763 
L 2988 3500 
L 3597 3500 
L 2059 -325 
z
" id="DejaVuSans-79" transform="scale(0.015625)"/>
      <path id="DejaVuSans-20" transform="scale(0.015625)"/>
      <path d="M 1259 4147 
L 1259 2394 
L 2053 2394 
Q 2494 2394 2734 2622 
Q 2975 2850 2975 3272 
Q 2975 3691 2734 3919 
Q 2494 4147 2053 4147 
L 1259 4147 
z
M 628 4666 
L 2053 4666 
Q 2838 4666 3239 4311 
Q 3641 3956 3641 3272 
Q 3641 2581 3239 2228 
Q 2838 1875 2053 1875 
L 1259 1875 
L 1259 0 
L 628 0 
L 628 4666 
z
" id="DejaVuSans-50" transform="scale(0.015625)"/>
      <path d="M 3597 1894 
L 3597 1613 
L 953 1613 
Q 991 1019 1311 708 
Q 1631 397 2203 397 
Q 2534 397 2845 478 
Q 3156 559 3463 722 
L 3463 178 
Q 3153 47 2828 -22 
Q 2503 -91 2169 -91 
Q 1331 -91 842 396 
Q 353 884 353 1716 
Q 353 2575 817 3079 
Q 1281 3584 2069 3584 
Q 2775 3584 3186 3129 
Q 3597 2675 3597 1894 
z
M 3022 2063 
Q 3016 2534 2758 2815 
Q 2500 3097 2075 3097 
Q 1594 3097 1305 2825 
Q 1016 2553 972 2059 
L 3022 2063 
z
" id="DejaVuSans-65" transform="scale(0.015625)"/>
      <path d="M 2631 2963 
Q 2534 3019 2420 3045 
Q 2306 3072 2169 3072 
Q 1681 3072 1420 2755 
Q 1159 2438 1159 1844 
L 1159 0 
L 581 0 
L 581 3500 
L 1159 3500 
L 1159 2956 
Q 1341 3275 1631 3429 
Q 1922 3584 2338 3584 
Q 2397 3584 2469 3576 
Q 2541 3569 2628 3553 
L 2631 2963 
z
" id="DejaVuSans-72" transform="scale(0.015625)"/>
      <path d="M 3122 3366 
L 3122 2828 
Q 2878 2963 2633 3030 
Q 2388 3097 2138 3097 
Q 1578 3097 1268 2742 
Q 959 2388 959 1747 
Q 959 1106 1268 751 
Q 1578 397 2138 397 
Q 2388 397 2633 464 
Q 2878 531 3122 666 
L 3122 134 
Q 2881 22 2623 -34 
Q 2366 -91 2075 -91 
Q 1284 -91 818 406 
Q 353 903 353 1747 
Q 353 2603 823 3093 
Q 1294 3584 2113 3584 
Q 2378 3584 2631 3529 
Q 2884 3475 3122 3366 
z
" id="DejaVuSans-63" transform="scale(0.015625)"/>
      <path d="M 1159 525 
L 1159 -1331 
L 581 -1331 
L 581 3500 
L 1159 3500 
L 1159 2969 
Q 1341 3281 1617 3432 
Q 1894 3584 2278 3584 
Q 2916 3584 3314 3078 
Q 3713 2572 3713 1747 
Q 3713 922 3314 415 
Q 2916 -91 2278 -91 
Q 1894 -91 1617 61 
Q 1341 213 1159 525 
z
M 3116 1747 
Q 3116 2381 2855 2742 
Q 2594 3103 2138 3103 
Q 1681 3103 1420 2742 
Q 1159 2381 1159 1747 
Q 1159 1113 1420 752 
Q 1681 391 2138 391 
Q 2594 391 2855 752 
Q 3116 1113 3116 1747 
z
" id="DejaVuSans-70" transform="scale(0.015625)"/>
      <path d="M 1172 4494 
L 1172 3500 
L 2356 3500 
L 2356 3053 
L 1172 3053 
L 1172 1153 
Q 1172 725 1289 603 
Q 1406 481 1766 481 
L 2356 481 
L 2356 0 
L 1766 0 
Q 1100 0 847 248 
Q 594 497 594 1153 
L 594 3053 
L 172 3053 
L 172 3500 
L 594 3500 
L 594 4494 
L 1172 4494 
z
" id="DejaVuSans-74" transform="scale(0.015625)"/>
      <path d="M 1959 3097 
Q 1497 3097 1228 2736 
Q 959 2375 959 1747 
Q 959 1119 1226 758 
Q 1494 397 1959 397 
Q 2419 397 2687 759 
Q 2956 1122 2956 1747 
Q 2956 2369 2687 2733 
Q 2419 3097 1959 3097 
z
M 1959 3584 
Q 2709 3584 3137 3096 
Q 3566 2609 3566 1747 
Q 3566 888 3137 398 
Q 2709 -91 1959 -91 
Q 1206 -91 779 398 
Q 353 888 353 1747 
Q 353 2609 779 3096 
Q 1206 3584 1959 3584 
z
" id="DejaVuSans-6f" transform="scale(0.015625)"/>
      <path d="M 3513 2113 
L 3513 0 
L 2938 0 
L 2938 2094 
Q 2938 2591 2744 2837 
Q 2550 3084 2163 3084 
Q 1697 3084 1428 2787 
Q 1159 2491 1159 1978 
L 1159 0 
L 581 0 
L 581 3500 
L 1159 3500 
L 1159 2956 
Q 1366 3272 1645 3428 
Q 1925 3584 2291 3584 
Q 2894 3584 3203 3211 
Q 3513 2838 3513 2113 
z
" id="DejaVuSans-6e" transform="scale(0.015625)"/>
     </defs>
     <use xlink:href="#DejaVuSans-4d"/>
     <use x="86.279297" xlink:href="#DejaVuSans-79"/>
     <use x="145.458984" xlink:href="#DejaVuSans-20"/>
     <use x="177.246094" xlink:href="#DejaVuSans-50"/>
     <use x="233.923828" xlink:href="#DejaVuSans-65"/>
     <use x="295.447266" xlink:href="#DejaVuSans-72"/>
     <use x="334.310547" xlink:href="#DejaVuSans-63"/>
     <use x="389.291016" xlink:href="#DejaVuSans-65"/>
     <use x="450.814453" xlink:href="#DejaVuSans-70"/>
     <use x="514.291016" xlink:href="#DejaVuSans-74"/>
     <use x="553.5" xlink:href="#DejaVuSans-72"/>
     <use x="592.363281" xlink:href="#DejaVuSans-6f"/>
     <use x="653.544922" xlink:href="#DejaVuSans-6e"/>
    </g>
    <!-- w1=-0.135 w2=-0.0661 b=0.02 -->
    <g transform="translate(80.48375 28.56)scale(0.13 -0.13)">
     <defs>
      <path d="M 269 3500 
L 844 3500 
L 1563 769 
L 2278 3500 
L 2956 3500 
L 3675 769 
L 4391 3500 
L 4966 3500 
L 4050 0 
L 3372 0 
L 2619 2869 
L 1863 0 
L 1184 0 
L 269 3500 
z
" id="DejaVuSans-77" transform="scale(0.015625)"/>
      <path d="M 678 2906 
L 4684 2906 
L 4684 2381 
L 678 2381 
L 678 2906 
z
M 678 1631 
L 4684 1631 
L 4684 1100 
L 678 1100 
L 678 1631 
z
" id="DejaVuSans-3d" transform="scale(0.015625)"/>
      <path d="M 313 2009 
L 1997 2009 
L 1997 1497 
L 313 1497 
L 313 2009 
z
" id="DejaVuSans-2d" transform="scale(0.015625)"/>
      <path d="M 684 794 
L 1344 794 
L 1344 0 
L 684 0 
L 684 794 
z
" id="DejaVuSans-2e" transform="scale(0.015625)"/>
      <path d="M 691 4666 
L 3169 4666 
L 3169 4134 
L 1269 4134 
L 1269 2991 
Q 1406 3038 1543 3061 
Q 1681 3084 1819 3084 
Q 2600 3084 3056 2656 
Q 3513 2228 3513 1497 
Q 3513 744 3044 326 
Q 2575 -91 1722 -91 
Q 1428 -91 1123 -41 
Q 819 9 494 109 
L 494 744 
Q 775 591 1075 516 
Q 1375 441 1709 441 
Q 2250 441 2565 725 
Q 2881 1009 2881 1497 
Q 2881 1984 2565 2268 
Q 2250 2553 1709 2553 
Q 1456 2553 1204 2497 
Q 953 2441 691 2322 
L 691 4666 
z
" id="DejaVuSans-35" transform="scale(0.015625)"/>
      <path d="M 2113 2584 
Q 1688 2584 1439 2293 
Q 1191 2003 1191 1497 
Q 1191 994 1439 701 
Q 1688 409 2113 409 
Q 2538 409 2786 701 
Q 3034 994 3034 1497 
Q 3034 2003 2786 2293 
Q 2538 2584 2113 2584 
z
M 3366 4563 
L 3366 3988 
Q 3128 4100 2886 4159 
Q 2644 4219 2406 4219 
Q 1781 4219 1451 3797 
Q 1122 3375 1075 2522 
Q 1259 2794 1537 2939 
Q 1816 3084 2150 3084 
Q 2853 3084 3261 2657 
Q 3669 2231 3669 1497 
Q 3669 778 3244 343 
Q 2819 -91 2113 -91 
Q 1303 -91 875 529 
Q 447 1150 447 2328 
Q 447 3434 972 4092 
Q 1497 4750 2381 4750 
Q 2619 4750 2861 4703 
Q 3103 4656 3366 4563 
z
" id="DejaVuSans-36" transform="scale(0.015625)"/>
      <path d="M 3116 1747 
Q 3116 2381 2855 2742 
Q 2594 3103 2138 3103 
Q 1681 3103 1420 2742 
Q 1159 2381 1159 1747 
Q 1159 1113 1420 752 
Q 1681 391 2138 391 
Q 2594 391 2855 752 
Q 3116 1113 3116 1747 
z
M 1159 2969 
Q 1341 3281 1617 3432 
Q 1894 3584 2278 3584 
Q 2916 3584 3314 3078 
Q 3713 2572 3713 1747 
Q 3713 922 3314 415 
Q 2916 -91 2278 -91 
Q 1894 -91 1617 61 
Q 1341 213 1159 525 
L 1159 0 
L 581 0 
L 581 4863 
L 1159 4863 
L 1159 2969 
z
" id="DejaVuSans-62" transform="scale(0.015625)"/>
     </defs>
     <use xlink:href="#DejaVuSans-77"/>
     <use x="81.787109" xlink:href="#DejaVuSans-31"/>
     <use x="145.410156" xlink:href="#DejaVuSans-3d"/>
     <use x="229.199219" xlink:href="#DejaVuSans-2d"/>
     <use x="265.283203" xlink:href="#DejaVuSans-30"/>
     <use x="328.90625" xlink:href="#DejaVuSans-2e"/>
     <use x="360.693359" xlink:href="#DejaVuSans-31"/>
     <use x="424.316406" xlink:href="#DejaVuSans-33"/>
     <use x="487.939453" xlink:href="#DejaVuSans-35"/>
     <use x="551.5625" xlink:href="#DejaVuSans-20"/>
     <use x="583.349609" xlink:href="#DejaVuSans-77"/>
     <use x="665.136719" xlink:href="#DejaVuSans-32"/>
     <use x="728.759766" xlink:href="#DejaVuSans-3d"/>
     <use x="812.548828" xlink:href="#DejaVuSans-2d"/>
     <use x="848.632812" xlink:href="#DejaVuSans-30"/>
     <use x="912.255859" xlink:href="#DejaVuSans-2e"/>
     <use x="944.042969" xlink:href="#DejaVuSans-30"/>
     <use x="1007.666016" xlink:href="#DejaVuSans-36"/>
     <use x="1071.289062" xlink:href="#DejaVuSans-36"/>
     <use x="1134.912109" xlink:href="#DejaVuSans-31"/>
     <use x="1198.535156" xlink:href="#DejaVuSans-20"/>
     <use x="1230.322266" xlink:href="#DejaVuSans-62"/>
     <use x="1293.798828" xlink:href="#DejaVuSans-3d"/>
     <use x="1377.587891" xlink:href="#DejaVuSans-30"/>
     <use x="1441.210938" xlink:href="#DejaVuSans-2e"/>
     <use x="1472.998047" xlink:href="#DejaVuSans-30"/>
     <use x="1536.621094" xlink:href="#DejaVuSans-32"/>
    </g>
   </g>
   <g id="legend_1">
    <g id="patch_7">
     <path d="M 52.7 246.5 
L 148.015 246.5 
Q 150.215 246.5 150.215 244.3 
L 150.215 196.962187 
Q 150.215 194.762187 148.015 194.762187 
L 52.7 194.762187 
Q 50.5 194.762187 50.5 196.962187 
L 50.5 244.3 
Q 50.5 246.5 52.7 246.5 
z
" style="fill:#ffffff;opacity:0.8;stroke:#cccccc;stroke-linejoin:miter;"/>
    </g>
    <g id="line2d_15">
     <path d="M 54.9 203.670469 
L 76.9 203.670469 
" style="fill:none;stroke:#556b2f;stroke-linecap:square;stroke-width:3;"/>
    </g>
    <g id="line2d_16"/>
    <g id="text_15">
     <!-- perceptron -->
     <g transform="translate(85.7 207.520469)scale(0.11 -0.11)">
      <use xlink:href="#DejaVuSans-70"/>
      <use x="63.476562" xlink:href="#DejaVuSans-65"/>
      <use x="125" xlink:href="#DejaVuSans-72"/>
      <use x="163.863281" xlink:href="#DejaVuSans-63"/>
      <use x="218.84375" xlink:href="#DejaVuSans-65"/>
      <use x="280.367188" xlink:href="#DejaVuSans-70"/>
      <use x="343.84375" xlink:href="#DejaVuSans-74"/>
      <use x="383.052734" xlink:href="#DejaVuSans-72"/>
      <use x="421.916016" xlink:href="#DejaVuSans-6f"/>
      <use x="483.097656" xlink:href="#DejaVuSans-6e"/>
     </g>
    </g>
    <g id="PathCollection_3">
     <g>
      <use style="fill:#4682b4;stroke:#4682b4;" x="65.9" xlink:href="#m26fc706740" y="220.778906"/>
     </g>
    </g>
    <g id="text_16">
     <!-- 1 -->
     <g transform="translate(85.7 223.666406)scale(0.11 -0.11)">
      <use xlink:href="#DejaVuSans-31"/>
     </g>
    </g>
    <g id="PathCollection_4">
     <g>
      <use style="fill:#ff8c00;stroke:#ff8c00;" x="65.9" xlink:href="#m0f2849e3ba" y="236.924844"/>
     </g>
    </g>
    <g id="text_17">
     <!-- 0 -->
     <g transform="translate(85.7 239.812344)scale(0.11 -0.11)">
      <use xlink:href="#DejaVuSans-30"/>
     </g>
    </g>
   </g>
  </g>
 </g>
 <defs>
  <clipPath id="p5dfa640100">
   <rect height="217.44" width="279" x="45" y="34.56"/>
  </clipPath>
 </defs>
</svg>
