<?xml version="1.0" encoding="utf-8" standalone="no"?>
<!DOCTYPE svg PUBLIC "-//W3C//DTD SVG 1.1//EN"
  "http://www.w3.org/Graphics/SVG/1.1/DTD/svg11.dtd">
<!-- Created with matplotlib (https://matplotlib.org/) -->
<svg height="288pt" version="1.1" viewBox="0 0 288 288" width="288pt" xmlns="http://www.w3.org/2000/svg" xmlns:xlink="http://www.w3.org/1999/xlink">
 <defs>
  <style type="text/css">
*{stroke-linecap:butt;stroke-linejoin:round;}
  </style>
 </defs>
 <g id="figure_1">
  <g id="patch_1">
   <path d="M 0 288 
L 288 288 
L 288 0 
L 0 0 
z
" style="fill:#ffffff;"/>
  </g>
  <g id="axes_1">
   <g id="patch_2">
    <path d="M 36 252 
L 259.2 252 
L 259.2 34.56 
L 36 34.56 
z
" style="fill:#ffffff;"/>
   </g>
   <g id="matplotlib.axis_1">
    <g id="xtick_1">
     <g id="line2d_1">
      <defs>
       <path d="M 0 0 
L 0 3.5 
" id="m27b0737e4b" style="stroke:#000000;stroke-width:0.8;"/>
      </defs>
      <g>
       <use style="stroke:#000000;stroke-width:0.8;" x="39.130975" xlink:href="#m27b0737e4b" y="252"/>
      </g>
     </g>
     <g id="text_1">
      <!-- −2 -->
      <defs>
       <path d="M 10.59375 35.5 
L 73.1875 35.5 
L 73.1875 27.203125 
L 10.59375 27.203125 
z
" id="DejaVuSans-8722"/>
       <path d="M 19.1875 8.296875 
L 53.609375 8.296875 
L 53.609375 0 
L 7.328125 0 
L 7.328125 8.296875 
Q 12.9375 14.109375 22.625 23.890625 
Q 32.328125 33.6875 34.8125 36.53125 
Q 39.546875 41.84375 41.421875 45.53125 
Q 43.3125 49.21875 43.3125 52.78125 
Q 43.3125 58.59375 39.234375 62.25 
Q 35.15625 65.921875 28.609375 65.921875 
Q 23.96875 65.921875 18.8125 64.3125 
Q 13.671875 62.703125 7.8125 59.421875 
L 7.8125 69.390625 
Q 13.765625 71.78125 18.9375 73 
Q 24.125 74.21875 28.421875 74.21875 
Q 39.75 74.21875 46.484375 68.546875 
Q 53.21875 62.890625 53.21875 53.421875 
Q 53.21875 48.921875 51.53125 44.890625 
Q 49.859375 40.875 45.40625 35.40625 
Q 44.1875 33.984375 37.640625 27.21875 
Q 31.109375 20.453125 19.1875 8.296875 
z
" id="DejaVuSans-50"/>
      </defs>
      <g transform="translate(31.759881 266.598437)scale(0.1 -0.1)">
       <use xlink:href="#DejaVuSans-8722"/>
       <use x="83.789062" xlink:href="#DejaVuSans-50"/>
      </g>
     </g>
    </g>
    <g id="xtick_2">
     <g id="line2d_2">
      <g>
       <use style="stroke:#000000;stroke-width:0.8;" x="102.176709" xlink:href="#m27b0737e4b" y="252"/>
      </g>
     </g>
     <g id="text_2">
      <!-- −1 -->
      <defs>
       <path d="M 12.40625 8.296875 
L 28.515625 8.296875 
L 28.515625 63.921875 
L 10.984375 60.40625 
L 10.984375 69.390625 
L 28.421875 72.90625 
L 38.28125 72.90625 
L 38.28125 8.296875 
L 54.390625 8.296875 
L 54.390625 0 
L 12.40625 0 
z
" id="DejaVuSans-49"/>
      </defs>
      <g transform="translate(94.805616 266.598437)scale(0.1 -0.1)">
       <use xlink:href="#DejaVuSans-8722"/>
       <use x="83.789062" xlink:href="#DejaVuSans-49"/>
      </g>
     </g>
    </g>
    <g id="xtick_3">
     <g id="line2d_3">
      <g>
       <use style="stroke:#000000;stroke-width:0.8;" x="165.222444" xlink:href="#m27b0737e4b" y="252"/>
      </g>
     </g>
     <g id="text_3">
      <!-- 0 -->
      <defs>
       <path d="M 31.78125 66.40625 
Q 24.171875 66.40625 20.328125 58.90625 
Q 16.5 51.421875 16.5 36.375 
Q 16.5 21.390625 20.328125 13.890625 
Q 24.171875 6.390625 31.78125 6.390625 
Q 39.453125 6.390625 43.28125 13.890625 
Q 47.125 21.390625 47.125 36.375 
Q 47.125 51.421875 43.28125 58.90625 
Q 39.453125 66.40625 31.78125 66.40625 
z
M 31.78125 74.21875 
Q 44.046875 74.21875 50.515625 64.515625 
Q 56.984375 54.828125 56.984375 36.375 
Q 56.984375 17.96875 50.515625 8.265625 
Q 44.046875 -1.421875 31.78125 -1.421875 
Q 19.53125 -1.421875 13.0625 8.265625 
Q 6.59375 17.96875 6.59375 36.375 
Q 6.59375 54.828125 13.0625 64.515625 
Q 19.53125 74.21875 31.78125 74.21875 
z
" id="DejaVuSans-48"/>
      </defs>
      <g transform="translate(162.041194 266.598437)scale(0.1 -0.1)">
       <use xlink:href="#DejaVuSans-48"/>
      </g>
     </g>
    </g>
    <g id="xtick_4">
     <g id="line2d_4">
      <g>
       <use style="stroke:#000000;stroke-width:0.8;" x="228.268178" xlink:href="#m27b0737e4b" y="252"/>
      </g>
     </g>
     <g id="text_4">
      <!-- 1 -->
      <g transform="translate(225.086928 266.598437)scale(0.1 -0.1)">
       <use xlink:href="#DejaVuSans-49"/>
      </g>
     </g>
    </g>
   </g>
   <g id="matplotlib.axis_2">
    <g id="ytick_1">
     <g id="line2d_5">
      <defs>
       <path d="M 0 0 
L -3.5 0 
" id="m76786d29e6" style="stroke:#000000;stroke-width:0.8;"/>
      </defs>
      <g>
       <use style="stroke:#000000;stroke-width:0.8;" x="36" xlink:href="#m76786d29e6" y="227.66003"/>
      </g>
     </g>
     <g id="text_5">
      <!-- 0.25 -->
      <defs>
       <path d="M 10.6875 12.40625 
L 21 12.40625 
L 21 0 
L 10.6875 0 
z
" id="DejaVuSans-46"/>
       <path d="M 10.796875 72.90625 
L 49.515625 72.90625 
L 49.515625 64.59375 
L 19.828125 64.59375 
L 19.828125 46.734375 
Q 21.96875 47.46875 24.109375 47.828125 
Q 26.265625 48.1875 28.421875 48.1875 
Q 40.625 48.1875 47.75 41.5 
Q 54.890625 34.8125 54.890625 23.390625 
Q 54.890625 11.625 47.5625 5.09375 
Q 40.234375 -1.421875 26.90625 -1.421875 
Q 22.3125 -1.421875 17.546875 -0.640625 
Q 12.796875 0.140625 7.71875 1.703125 
L 7.71875 11.625 
Q 12.109375 9.234375 16.796875 8.0625 
Q 21.484375 6.890625 26.703125 6.890625 
Q 35.15625 6.890625 40.078125 11.328125 
Q 45.015625 15.765625 45.015625 23.390625 
Q 45.015625 31 40.078125 35.4375 
Q 35.15625 39.890625 26.703125 39.890625 
Q 22.75 39.890625 18.8125 39.015625 
Q 14.890625 38.140625 10.796875 36.28125 
z
" id="DejaVuSans-53"/>
      </defs>
      <g transform="translate(6.734375 231.459248)scale(0.1 -0.1)">
       <use xlink:href="#DejaVuSans-48"/>
       <use x="63.623047" xlink:href="#DejaVuSans-46"/>
       <use x="95.410156" xlink:href="#DejaVuSans-50"/>
       <use x="159.033203" xlink:href="#DejaVuSans-53"/>
      </g>
     </g>
    </g>
    <g id="ytick_2">
     <g id="line2d_6">
      <g>
       <use style="stroke:#000000;stroke-width:0.8;" x="36" xlink:href="#m76786d29e6" y="202.573299"/>
      </g>
     </g>
     <g id="text_6">
      <!-- 0.50 -->
      <g transform="translate(6.734375 206.372518)scale(0.1 -0.1)">
       <use xlink:href="#DejaVuSans-48"/>
       <use x="63.623047" xlink:href="#DejaVuSans-46"/>
       <use x="95.410156" xlink:href="#DejaVuSans-53"/>
       <use x="159.033203" xlink:href="#DejaVuSans-48"/>
      </g>
     </g>
    </g>
    <g id="ytick_3">
     <g id="line2d_7">
      <g>
       <use style="stroke:#000000;stroke-width:0.8;" x="36" xlink:href="#m76786d29e6" y="177.486568"/>
      </g>
     </g>
     <g id="text_7">
      <!-- 0.75 -->
      <defs>
       <path d="M 8.203125 72.90625 
L 55.078125 72.90625 
L 55.078125 68.703125 
L 28.609375 0 
L 18.3125 0 
L 43.21875 64.59375 
L 8.203125 64.59375 
z
" id="DejaVuSans-55"/>
      </defs>
      <g transform="translate(6.734375 181.285787)scale(0.1 -0.1)">
       <use xlink:href="#DejaVuSans-48"/>
       <use x="63.623047" xlink:href="#DejaVuSans-46"/>
       <use x="95.410156" xlink:href="#DejaVuSans-55"/>
       <use x="159.033203" xlink:href="#DejaVuSans-53"/>
      </g>
     </g>
    </g>
    <g id="ytick_4">
     <g id="line2d_8">
      <g>
       <use style="stroke:#000000;stroke-width:0.8;" x="36" xlink:href="#m76786d29e6" y="152.399838"/>
      </g>
     </g>
     <g id="text_8">
      <!-- 1.00 -->
      <g transform="translate(6.734375 156.199056)scale(0.1 -0.1)">
       <use xlink:href="#DejaVuSans-49"/>
       <use x="63.623047" xlink:href="#DejaVuSans-46"/>
       <use x="95.410156" xlink:href="#DejaVuSans-48"/>
       <use x="159.033203" xlink:href="#DejaVuSans-48"/>
      </g>
     </g>
    </g>
    <g id="ytick_5">
     <g id="line2d_9">
      <g>
       <use style="stroke:#000000;stroke-width:0.8;" x="36" xlink:href="#m76786d29e6" y="127.313107"/>
      </g>
     </g>
     <g id="text_9">
      <!-- 1.25 -->
      <g transform="translate(6.734375 131.112326)scale(0.1 -0.1)">
       <use xlink:href="#DejaVuSans-49"/>
       <use x="63.623047" xlink:href="#DejaVuSans-46"/>
       <use x="95.410156" xlink:href="#DejaVuSans-50"/>
       <use x="159.033203" xlink:href="#DejaVuSans-53"/>
      </g>
     </g>
    </g>
    <g id="ytick_6">
     <g id="line2d_10">
      <g>
       <use style="stroke:#000000;stroke-width:0.8;" x="36" xlink:href="#m76786d29e6" y="102.226376"/>
      </g>
     </g>
     <g id="text_10">
      <!-- 1.50 -->
      <g transform="translate(6.734375 106.025595)scale(0.1 -0.1)">
       <use xlink:href="#DejaVuSans-49"/>
       <use x="63.623047" xlink:href="#DejaVuSans-46"/>
       <use x="95.410156" xlink:href="#DejaVuSans-53"/>
       <use x="159.033203" xlink:href="#DejaVuSans-48"/>
      </g>
     </g>
    </g>
    <g id="ytick_7">
     <g id="line2d_11">
      <g>
       <use style="stroke:#000000;stroke-width:0.8;" x="36" xlink:href="#m76786d29e6" y="77.139645"/>
      </g>
     </g>
     <g id="text_11">
      <!-- 1.75 -->
      <g transform="translate(6.734375 80.938864)scale(0.1 -0.1)">
       <use xlink:href="#DejaVuSans-49"/>
       <use x="63.623047" xlink:href="#DejaVuSans-46"/>
       <use x="95.410156" xlink:href="#DejaVuSans-55"/>
       <use x="159.033203" xlink:href="#DejaVuSans-53"/>
      </g>
     </g>
    </g>
    <g id="ytick_8">
     <g id="line2d_12">
      <g>
       <use style="stroke:#000000;stroke-width:0.8;" x="36" xlink:href="#m76786d29e6" y="52.052915"/>
      </g>
     </g>
     <g id="text_12">
      <!-- 2.00 -->
      <g transform="translate(6.734375 55.852133)scale(0.1 -0.1)">
       <use xlink:href="#DejaVuSans-50"/>
       <use x="63.623047" xlink:href="#DejaVuSans-46"/>
       <use x="95.410156" xlink:href="#DejaVuSans-48"/>
       <use x="159.033203" xlink:href="#DejaVuSans-48"/>
      </g>
     </g>
    </g>
   </g>
   <g id="line2d_13">
    <defs>
     <path d="M 0 3 
C 0.795609 3 1.55874 2.683901 2.12132 2.12132 
C 2.683901 1.55874 3 0.795609 3 0 
C 3 -0.795609 2.683901 -1.55874 2.12132 -2.12132 
C 1.55874 -2.683901 0.795609 -3 0 -3 
C -0.795609 -3 -1.55874 -2.683901 -2.12132 -2.12132 
C -2.683901 -1.55874 -3 -0.795609 -3 0 
C -3 0.795609 -2.683901 1.55874 -2.12132 2.12132 
C -1.55874 2.683901 -0.795609 3 0 3 
z
" id="m813bc87bf0" style="stroke:#4682b4;"/>
    </defs>
    <g clip-path="url(#pba41ad312d)">
     <use style="fill:#4682b4;stroke:#4682b4;" x="99.056804" xlink:href="#m813bc87bf0" y="164.577559"/>
     <use style="fill:#4682b4;stroke:#4682b4;" x="90.820021" xlink:href="#m813bc87bf0" y="140.295836"/>
     <use style="fill:#4682b4;stroke:#4682b4;" x="108.019891" xlink:href="#m813bc87bf0" y="146.33802"/>
     <use style="fill:#4682b4;stroke:#4682b4;" x="125.658329" xlink:href="#m813bc87bf0" y="114.607777"/>
     <use style="fill:#4682b4;stroke:#4682b4;" x="89.329926" xlink:href="#m813bc87bf0" y="173.671533"/>
     <use style="fill:#4682b4;stroke:#4682b4;" x="134.086867" xlink:href="#m813bc87bf0" y="85.415962"/>
     <use style="fill:#4682b4;stroke:#4682b4;" x="104.160147" xlink:href="#m813bc87bf0" y="124.311343"/>
     <use style="fill:#4682b4;stroke:#4682b4;" x="96.357066" xlink:href="#m813bc87bf0" y="159.738227"/>
     <use style="fill:#4682b4;stroke:#4682b4;" x="122.198131" xlink:href="#m813bc87bf0" y="107.562644"/>
     <use style="fill:#4682b4;stroke:#4682b4;" x="117.278805" xlink:href="#m813bc87bf0" y="191.170205"/>
     <use style="fill:#4682b4;stroke:#4682b4;" x="94.945982" xlink:href="#m813bc87bf0" y="138.807734"/>
     <use style="fill:#4682b4;stroke:#4682b4;" x="77.586955" xlink:href="#m813bc87bf0" y="166.677245"/>
     <use style="fill:#4682b4;stroke:#4682b4;" x="89.405372" xlink:href="#m813bc87bf0" y="183.332406"/>
     <use style="fill:#4682b4;stroke:#4682b4;" x="111.654256" xlink:href="#m813bc87bf0" y="163.599613"/>
     <use style="fill:#4682b4;stroke:#4682b4;" x="100.254488" xlink:href="#m813bc87bf0" y="190.693182"/>
     <use style="fill:#4682b4;stroke:#4682b4;" x="84.611033" xlink:href="#m813bc87bf0" y="154.025499"/>
     <use style="fill:#4682b4;stroke:#4682b4;" x="103.161657" xlink:href="#m813bc87bf0" y="158.800843"/>
     <use style="fill:#4682b4;stroke:#4682b4;" x="101.314898" xlink:href="#m813bc87bf0" y="205.251782"/>
     <use style="fill:#4682b4;stroke:#4682b4;" x="72.208603" xlink:href="#m813bc87bf0" y="166.301643"/>
     <use style="fill:#4682b4;stroke:#4682b4;" x="87.101052" xlink:href="#m813bc87bf0" y="157.636531"/>
     <use style="fill:#4682b4;stroke:#4682b4;" x="130.732503" xlink:href="#m813bc87bf0" y="205.844819"/>
     <use style="fill:#4682b4;stroke:#4682b4;" x="110.149736" xlink:href="#m813bc87bf0" y="165.321933"/>
     <use style="fill:#4682b4;stroke:#4682b4;" x="87.665123" xlink:href="#m813bc87bf0" y="145.853896"/>
     <use style="fill:#4682b4;stroke:#4682b4;" x="75.569414" xlink:href="#m813bc87bf0" y="151.218416"/>
     <use style="fill:#4682b4;stroke:#4682b4;" x="109.561267" xlink:href="#m813bc87bf0" y="170.880117"/>
     <use style="fill:#4682b4;stroke:#4682b4;" x="107.367604" xlink:href="#m813bc87bf0" y="151.200463"/>
     <use style="fill:#4682b4;stroke:#4682b4;" x="109.144045" xlink:href="#m813bc87bf0" y="117.550713"/>
     <use style="fill:#4682b4;stroke:#4682b4;" x="59.021419" xlink:href="#m813bc87bf0" y="119.427897"/>
     <use style="fill:#4682b4;stroke:#4682b4;" x="106.365639" xlink:href="#m813bc87bf0" y="152.615065"/>
     <use style="fill:#4682b4;stroke:#4682b4;" x="72.758207" xlink:href="#m813bc87bf0" y="164.567834"/>
     <use style="fill:#4682b4;stroke:#4682b4;" x="83.303225" xlink:href="#m813bc87bf0" y="167.115157"/>
     <use style="fill:#4682b4;stroke:#4682b4;" x="48.547423" xlink:href="#m813bc87bf0" y="162.873736"/>
     <use style="fill:#4682b4;stroke:#4682b4;" x="128.72134" xlink:href="#m813bc87bf0" y="119.566212"/>
     <use style="fill:#4682b4;stroke:#4682b4;" x="93.512425" xlink:href="#m813bc87bf0" y="190.378038"/>
     <use style="fill:#4682b4;stroke:#4682b4;" x="111.644241" xlink:href="#m813bc87bf0" y="180.198142"/>
     <use style="fill:#4682b4;stroke:#4682b4;" x="74.317369" xlink:href="#m813bc87bf0" y="142.878435"/>
     <use style="fill:#4682b4;stroke:#4682b4;" x="122.852569" xlink:href="#m813bc87bf0" y="166.571336"/>
     <use style="fill:#4682b4;stroke:#4682b4;" x="46.145455" xlink:href="#m813bc87bf0" y="208.474721"/>
     <use style="fill:#4682b4;stroke:#4682b4;" x="92.310365" xlink:href="#m813bc87bf0" y="166.466093"/>
     <use style="fill:#4682b4;stroke:#4682b4;" x="74.04508" xlink:href="#m813bc87bf0" y="185.755978"/>
     <use style="fill:#4682b4;stroke:#4682b4;" x="61.725003" xlink:href="#m813bc87bf0" y="176.311838"/>
     <use style="fill:#4682b4;stroke:#4682b4;" x="92.894595" xlink:href="#m813bc87bf0" y="163.577335"/>
     <use style="fill:#4682b4;stroke:#4682b4;" x="125.898751" xlink:href="#m813bc87bf0" y="126.606229"/>
     <use style="fill:#4682b4;stroke:#4682b4;" x="105.64675" xlink:href="#m813bc87bf0" y="191.44055"/>
     <use style="fill:#4682b4;stroke:#4682b4;" x="68.411861" xlink:href="#m813bc87bf0" y="242.116364"/>
     <use style="fill:#4682b4;stroke:#4682b4;" x="88.773955" xlink:href="#m813bc87bf0" y="159.499322"/>
     <use style="fill:#4682b4;stroke:#4682b4;" x="55.545689" xlink:href="#m813bc87bf0" y="129.453138"/>
     <use style="fill:#4682b4;stroke:#4682b4;" x="79.216" xlink:href="#m813bc87bf0" y="130.705775"/>
     <use style="fill:#4682b4;stroke:#4682b4;" x="90.252373" xlink:href="#m813bc87bf0" y="190.161537"/>
     <use style="fill:#4682b4;stroke:#4682b4;" x="131.02266" xlink:href="#m813bc87bf0" y="117.538489"/>
    </g>
   </g>
   <g id="line2d_14">
    <defs>
     <path d="M 0 3 
C 0.795609 3 1.55874 2.683901 2.12132 2.12132 
C 2.683901 1.55874 3 0.795609 3 0 
C 3 -0.795609 2.683901 -1.55874 2.12132 -2.12132 
C 1.55874 -2.683901 0.795609 -3 0 -3 
C -0.795609 -3 -1.55874 -2.683901 -2.12132 -2.12132 
C -2.683901 -1.55874 -3 -0.795609 -3 0 
C -3 0.795609 -2.683901 1.55874 -2.12132 2.12132 
C -1.55874 2.683901 -0.795609 3 0 3 
z
" id="m2e24a15212" style="stroke:#ff8c00;"/>
    </defs>
    <g clip-path="url(#pba41ad312d)">
     <use style="fill:#ff8c00;stroke:#ff8c00;" x="220.582847" xlink:href="#m2e24a15212" y="162.885036"/>
     <use style="fill:#ff8c00;stroke:#ff8c00;" x="225.701472" xlink:href="#m2e24a15212" y="148.418758"/>
     <use style="fill:#ff8c00;stroke:#ff8c00;" x="217.03237" xlink:href="#m2e24a15212" y="133.386325"/>
     <use style="fill:#ff8c00;stroke:#ff8c00;" x="213.863136" xlink:href="#m2e24a15212" y="218.055224"/>
     <use style="fill:#ff8c00;stroke:#ff8c00;" x="239.274051" xlink:href="#m2e24a15212" y="183.295201"/>
     <use style="fill:#ff8c00;stroke:#ff8c00;" x="217.423516" xlink:href="#m2e24a15212" y="167.645619"/>
     <use style="fill:#ff8c00;stroke:#ff8c00;" x="221.452393" xlink:href="#m2e24a15212" y="164.743046"/>
     <use style="fill:#ff8c00;stroke:#ff8c00;" x="222.212349" xlink:href="#m2e24a15212" y="217.210542"/>
     <use style="fill:#ff8c00;stroke:#ff8c00;" x="224.775134" xlink:href="#m2e24a15212" y="139.713998"/>
     <use style="fill:#ff8c00;stroke:#ff8c00;" x="223.963239" xlink:href="#m2e24a15212" y="174.130913"/>
     <use style="fill:#ff8c00;stroke:#ff8c00;" x="249.054545" xlink:href="#m2e24a15212" y="93.733239"/>
     <use style="fill:#ff8c00;stroke:#ff8c00;" x="229.096331" xlink:href="#m2e24a15212" y="135.563955"/>
     <use style="fill:#ff8c00;stroke:#ff8c00;" x="242.379524" xlink:href="#m2e24a15212" y="53.538738"/>
     <use style="fill:#ff8c00;stroke:#ff8c00;" x="226.020634" xlink:href="#m2e24a15212" y="74.583109"/>
     <use style="fill:#ff8c00;stroke:#ff8c00;" x="229.907851" xlink:href="#m2e24a15212" y="165.217411"/>
     <use style="fill:#ff8c00;stroke:#ff8c00;" x="235.117063" xlink:href="#m2e24a15212" y="135.586223"/>
     <use style="fill:#ff8c00;stroke:#ff8c00;" x="222.965026" xlink:href="#m2e24a15212" y="173.44019"/>
     <use style="fill:#ff8c00;stroke:#ff8c00;" x="237.014448" xlink:href="#m2e24a15212" y="166.719696"/>
     <use style="fill:#ff8c00;stroke:#ff8c00;" x="218.759373" xlink:href="#m2e24a15212" y="115.68645"/>
     <use style="fill:#ff8c00;stroke:#ff8c00;" x="230.434796" xlink:href="#m2e24a15212" y="44.443636"/>
     <use style="fill:#ff8c00;stroke:#ff8c00;" x="243.606401" xlink:href="#m2e24a15212" y="145.115808"/>
     <use style="fill:#ff8c00;stroke:#ff8c00;" x="218.273362" xlink:href="#m2e24a15212" y="162.543189"/>
     <use style="fill:#ff8c00;stroke:#ff8c00;" x="232.568555" xlink:href="#m2e24a15212" y="175.107984"/>
     <use style="fill:#ff8c00;stroke:#ff8c00;" x="222.501135" xlink:href="#m2e24a15212" y="155.707546"/>
     <use style="fill:#ff8c00;stroke:#ff8c00;" x="231.903074" xlink:href="#m2e24a15212" y="155.270227"/>
     <use style="fill:#ff8c00;stroke:#ff8c00;" x="228.176459" xlink:href="#m2e24a15212" y="184.321264"/>
     <use style="fill:#ff8c00;stroke:#ff8c00;" x="242.886751" xlink:href="#m2e24a15212" y="189.962363"/>
     <use style="fill:#ff8c00;stroke:#ff8c00;" x="248.790455" xlink:href="#m2e24a15212" y="68.279614"/>
     <use style="fill:#ff8c00;stroke:#ff8c00;" x="220.853578" xlink:href="#m2e24a15212" y="182.486282"/>
     <use style="fill:#ff8c00;stroke:#ff8c00;" x="230.377091" xlink:href="#m2e24a15212" y="105.344008"/>
     <use style="fill:#ff8c00;stroke:#ff8c00;" x="230.370186" xlink:href="#m2e24a15212" y="133.776449"/>
     <use style="fill:#ff8c00;stroke:#ff8c00;" x="233.61448" xlink:href="#m2e24a15212" y="87.513658"/>
     <use style="fill:#ff8c00;stroke:#ff8c00;" x="239.438692" xlink:href="#m2e24a15212" y="137.97283"/>
     <use style="fill:#ff8c00;stroke:#ff8c00;" x="214.811477" xlink:href="#m2e24a15212" y="174.949264"/>
     <use style="fill:#ff8c00;stroke:#ff8c00;" x="216.544909" xlink:href="#m2e24a15212" y="163.554521"/>
     <use style="fill:#ff8c00;stroke:#ff8c00;" x="224.25868" xlink:href="#m2e24a15212" y="190.167459"/>
     <use style="fill:#ff8c00;stroke:#ff8c00;" x="242.029907" xlink:href="#m2e24a15212" y="155.954923"/>
     <use style="fill:#ff8c00;stroke:#ff8c00;" x="237.775951" xlink:href="#m2e24a15212" y="150.150041"/>
     <use style="fill:#ff8c00;stroke:#ff8c00;" x="217.267136" xlink:href="#m2e24a15212" y="196.699118"/>
     <use style="fill:#ff8c00;stroke:#ff8c00;" x="226.091987" xlink:href="#m2e24a15212" y="133.867142"/>
     <use style="fill:#ff8c00;stroke:#ff8c00;" x="209.641762" xlink:href="#m2e24a15212" y="113.065722"/>
     <use style="fill:#ff8c00;stroke:#ff8c00;" x="234.5844" xlink:href="#m2e24a15212" y="154.363886"/>
     <use style="fill:#ff8c00;stroke:#ff8c00;" x="203.466258" xlink:href="#m2e24a15212" y="195.550635"/>
     <use style="fill:#ff8c00;stroke:#ff8c00;" x="228.443228" xlink:href="#m2e24a15212" y="127.765272"/>
     <use style="fill:#ff8c00;stroke:#ff8c00;" x="204.166688" xlink:href="#m2e24a15212" y="149.572584"/>
     <use style="fill:#ff8c00;stroke:#ff8c00;" x="239.208596" xlink:href="#m2e24a15212" y="137.538802"/>
     <use style="fill:#ff8c00;stroke:#ff8c00;" x="232.552998" xlink:href="#m2e24a15212" y="196.243626"/>
     <use style="fill:#ff8c00;stroke:#ff8c00;" x="239.553002" xlink:href="#m2e24a15212" y="134.470578"/>
     <use style="fill:#ff8c00;stroke:#ff8c00;" x="212.600091" xlink:href="#m2e24a15212" y="145.673666"/>
     <use style="fill:#ff8c00;stroke:#ff8c00;" x="218.851539" xlink:href="#m2e24a15212" y="207.902206"/>
    </g>
   </g>
   <g id="patch_3">
    <path d="M 36 252 
L 36 34.56 
" style="fill:none;stroke:#000000;stroke-linecap:square;stroke-linejoin:miter;stroke-width:0.8;"/>
   </g>
   <g id="patch_4">
    <path d="M 259.2 252 
L 259.2 34.56 
" style="fill:none;stroke:#000000;stroke-linecap:square;stroke-linejoin:miter;stroke-width:0.8;"/>
   </g>
   <g id="patch_5">
    <path d="M 36 252 
L 259.2 252 
" style="fill:none;stroke:#000000;stroke-linecap:square;stroke-linejoin:miter;stroke-width:0.8;"/>
   </g>
   <g id="patch_6">
    <path d="M 36 34.56 
L 259.2 34.56 
" style="fill:none;stroke:#000000;stroke-linecap:square;stroke-linejoin:miter;stroke-width:0.8;"/>
   </g>
  </g>
 </g>
 <defs>
  <clipPath id="pba41ad312d">
   <rect height="217.44" width="223.2" x="36" y="34.56"/>
  </clipPath>
 </defs>
</svg>
