<?xml version="1.0" encoding="utf-8" standalone="no"?>
<!DOCTYPE svg PUBLIC "-//W3C//DTD SVG 1.1//EN"
  "http://www.w3.org/Graphics/SVG/1.1/DTD/svg11.dtd">
<!-- Created with matplotlib (https://matplotlib.org/) -->
<svg height="288pt" version="1.1" viewBox="0 0 360 288" width="360pt" xmlns="http://www.w3.org/2000/svg" xmlns:xlink="http://www.w3.org/1999/xlink">
 <metadata>
  <rdf:RDF xmlns:cc="http://creativecommons.org/ns#" xmlns:dc="http://purl.org/dc/elements/1.1/" xmlns:rdf="http://www.w3.org/1999/02/22-rdf-syntax-ns#">
   <cc:Work>
    <dc:type rdf:resource="http://purl.org/dc/dcmitype/StillImage"/>
    <dc:date>2021-07-31T13:51:09.324195</dc:date>
    <dc:format>image/svg+xml</dc:format>
    <dc:creator>
     <cc:Agent>
      <dc:title>Matplotlib v3.3.4, https://matplotlib.org/</dc:title>
     </cc:Agent>
    </dc:creator>
   </cc:Work>
  </rdf:RDF>
 </metadata>
 <defs>
  <style type="text/css">*{stroke-linecap:butt;stroke-linejoin:round;}</style>
 </defs>
 <g id="figure_1">
  <g id="patch_1">
   <path d="M 0 288 
L 360 288 
L 360 0 
L 0 0 
z
" style="fill:#ffffff;"/>
  </g>
  <g id="axes_1">
   <g id="patch_2">
    <path d="M 45 256.32 
L 324 256.32 
L 324 34.56 
L 45 34.56 
z
" style="fill:#ffffff;"/>
   </g>
   <g id="PathCollection_1">
    <defs>
     <path d="M 0 3 
C 0.795609 3 1.55874 2.683901 2.12132 2.12132 
C 2.683901 1.55874 3 0.795609 3 0 
C 3 -0.795609 2.683901 -1.55874 2.12132 -2.12132 
C 1.55874 -2.683901 0.795609 -3 0 -3 
C -0.795609 -3 -1.55874 -2.683901 -2.12132 -2.12132 
C -2.683901 -1.55874 -3 -0.795609 -3 0 
C -3 0.795609 -2.683901 1.55874 -2.12132 2.12132 
C -1.55874 2.683901 -0.795609 3 0 3 
z
" id="mf82f99a357" style="stroke:#4682b4;"/>
    </defs>
    <g clip-path="url(#p65f45798d1)">
     <use style="fill:#4682b4;stroke:#4682b4;" x="170.696963" xlink:href="#mf82f99a357" y="155.575319"/>
     <use style="fill:#4682b4;stroke:#4682b4;" x="175.675733" xlink:href="#mf82f99a357" y="166.021324"/>
     <use style="fill:#4682b4;stroke:#4682b4;" x="152.086432" xlink:href="#mf82f99a357" y="143.277183"/>
     <use style="fill:#4682b4;stroke:#4682b4;" x="187.108898" xlink:href="#mf82f99a357" y="175.353858"/>
     <use style="fill:#4682b4;stroke:#4682b4;" x="126.87254" xlink:href="#mf82f99a357" y="114.820168"/>
     <use style="fill:#4682b4;stroke:#4682b4;" x="104.818892" xlink:href="#mf82f99a357" y="84.839678"/>
     <use style="fill:#4682b4;stroke:#4682b4;" x="185.961126" xlink:href="#mf82f99a357" y="176.265923"/>
     <use style="fill:#4682b4;stroke:#4682b4;" x="137.585525" xlink:href="#mf82f99a357" y="158.792303"/>
     <use style="fill:#4682b4;stroke:#4682b4;" x="152.465468" xlink:href="#mf82f99a357" y="124.448762"/>
     <use style="fill:#4682b4;stroke:#4682b4;" x="126.453071" xlink:href="#mf82f99a357" y="142.249413"/>
     <use style="fill:#4682b4;stroke:#4682b4;" x="191.69222" xlink:href="#mf82f99a357" y="178.587598"/>
     <use style="fill:#4682b4;stroke:#4682b4;" x="143.249483" xlink:href="#mf82f99a357" y="126.444855"/>
     <use style="fill:#4682b4;stroke:#4682b4;" x="57.681818" xlink:href="#mf82f99a357" y="44.64"/>
     <use style="fill:#4682b4;stroke:#4682b4;" x="202.060998" xlink:href="#mf82f99a357" y="212.822266"/>
     <use style="fill:#4682b4;stroke:#4682b4;" x="129.26291" xlink:href="#mf82f99a357" y="127.006195"/>
     <use style="fill:#4682b4;stroke:#4682b4;" x="208.405405" xlink:href="#mf82f99a357" y="213.431053"/>
     <use style="fill:#4682b4;stroke:#4682b4;" x="142.095092" xlink:href="#mf82f99a357" y="151.135515"/>
     <use style="fill:#4682b4;stroke:#4682b4;" x="139.415486" xlink:href="#mf82f99a357" y="131.676534"/>
     <use style="fill:#4682b4;stroke:#4682b4;" x="162.365743" xlink:href="#mf82f99a357" y="158.630773"/>
     <use style="fill:#4682b4;stroke:#4682b4;" x="171.89372" xlink:href="#mf82f99a357" y="191.671922"/>
     <use style="fill:#4682b4;stroke:#4682b4;" x="118.046546" xlink:href="#mf82f99a357" y="145.489966"/>
     <use style="fill:#4682b4;stroke:#4682b4;" x="143.881432" xlink:href="#mf82f99a357" y="150.86827"/>
     <use style="fill:#4682b4;stroke:#4682b4;" x="168.28552" xlink:href="#mf82f99a357" y="159.493691"/>
     <use style="fill:#4682b4;stroke:#4682b4;" x="134.067934" xlink:href="#mf82f99a357" y="126.729476"/>
     <use style="fill:#4682b4;stroke:#4682b4;" x="130.145439" xlink:href="#mf82f99a357" y="138.298473"/>
     <use style="fill:#4682b4;stroke:#4682b4;" x="121.58863" xlink:href="#mf82f99a357" y="130.301892"/>
     <use style="fill:#4682b4;stroke:#4682b4;" x="119.34768" xlink:href="#mf82f99a357" y="132.505675"/>
     <use style="fill:#4682b4;stroke:#4682b4;" x="187.650538" xlink:href="#mf82f99a357" y="194.166946"/>
     <use style="fill:#4682b4;stroke:#4682b4;" x="188.301237" xlink:href="#mf82f99a357" y="178.770789"/>
     <use style="fill:#4682b4;stroke:#4682b4;" x="163.649516" xlink:href="#mf82f99a357" y="165.701013"/>
     <use style="fill:#4682b4;stroke:#4682b4;" x="135.822882" xlink:href="#mf82f99a357" y="132.370459"/>
     <use style="fill:#4682b4;stroke:#4682b4;" x="162.03805" xlink:href="#mf82f99a357" y="165.045639"/>
     <use style="fill:#4682b4;stroke:#4682b4;" x="175.873622" xlink:href="#mf82f99a357" y="178.606395"/>
     <use style="fill:#4682b4;stroke:#4682b4;" x="184.246457" xlink:href="#mf82f99a357" y="203.450469"/>
     <use style="fill:#4682b4;stroke:#4682b4;" x="173.711949" xlink:href="#mf82f99a357" y="184.721618"/>
     <use style="fill:#4682b4;stroke:#4682b4;" x="187.994575" xlink:href="#mf82f99a357" y="200.490861"/>
     <use style="fill:#4682b4;stroke:#4682b4;" x="143.13433" xlink:href="#mf82f99a357" y="150.920142"/>
     <use style="fill:#4682b4;stroke:#4682b4;" x="146.649006" xlink:href="#mf82f99a357" y="170.607648"/>
     <use style="fill:#4682b4;stroke:#4682b4;" x="147.562299" xlink:href="#mf82f99a357" y="153.977013"/>
     <use style="fill:#4682b4;stroke:#4682b4;" x="169.549232" xlink:href="#mf82f99a357" y="183.237532"/>
     <use style="fill:#4682b4;stroke:#4682b4;" x="190.185172" xlink:href="#mf82f99a357" y="172.74805"/>
     <use style="fill:#4682b4;stroke:#4682b4;" x="137.769204" xlink:href="#mf82f99a357" y="114.76939"/>
     <use style="fill:#4682b4;stroke:#4682b4;" x="172.115767" xlink:href="#mf82f99a357" y="187.00295"/>
     <use style="fill:#4682b4;stroke:#4682b4;" x="248.53975" xlink:href="#mf82f99a357" y="246.24"/>
     <use style="fill:#4682b4;stroke:#4682b4;" x="148.400524" xlink:href="#mf82f99a357" y="134.106462"/>
     <use style="fill:#4682b4;stroke:#4682b4;" x="133.57791" xlink:href="#mf82f99a357" y="141.988945"/>
     <use style="fill:#4682b4;stroke:#4682b4;" x="201.038753" xlink:href="#mf82f99a357" y="201.310506"/>
     <use style="fill:#4682b4;stroke:#4682b4;" x="147.489621" xlink:href="#mf82f99a357" y="184.141158"/>
     <use style="fill:#4682b4;stroke:#4682b4;" x="114.385723" xlink:href="#mf82f99a357" y="92.700418"/>
     <use style="fill:#4682b4;stroke:#4682b4;" x="164.609246" xlink:href="#mf82f99a357" y="169.381375"/>
    </g>
   </g>
   <g id="PathCollection_2">
    <defs>
     <path d="M 0 3 
C 0.795609 3 1.55874 2.683901 2.12132 2.12132 
C 2.683901 1.55874 3 0.795609 3 0 
C 3 -0.795609 2.683901 -1.55874 2.12132 -2.12132 
C 1.55874 -2.683901 0.795609 -3 0 -3 
C -0.795609 -3 -1.55874 -2.683901 -2.12132 -2.12132 
C -2.683901 -1.55874 -3 -0.795609 -3 0 
C -3 0.795609 -2.683901 1.55874 -2.12132 2.12132 
C -1.55874 2.683901 -0.795609 3 0 3 
z
" id="m26d7c305f4" style="stroke:#ff8c00;"/>
    </defs>
    <g clip-path="url(#p65f45798d1)">
     <use style="fill:#ff8c00;stroke:#ff8c00;" x="294.81273" xlink:href="#m26d7c305f4" y="193.912818"/>
     <use style="fill:#ff8c00;stroke:#ff8c00;" x="259.443624" xlink:href="#m26d7c305f4" y="206.859158"/>
     <use style="fill:#ff8c00;stroke:#ff8c00;" x="235.217253" xlink:href="#m26d7c305f4" y="160.156973"/>
     <use style="fill:#ff8c00;stroke:#ff8c00;" x="246.182386" xlink:href="#m26d7c305f4" y="156.635487"/>
     <use style="fill:#ff8c00;stroke:#ff8c00;" x="257.736789" xlink:href="#m26d7c305f4" y="124.045507"/>
     <use style="fill:#ff8c00;stroke:#ff8c00;" x="237.760826" xlink:href="#m26d7c305f4" y="160.885344"/>
     <use style="fill:#ff8c00;stroke:#ff8c00;" x="272.80933" xlink:href="#m26d7c305f4" y="119.763929"/>
     <use style="fill:#ff8c00;stroke:#ff8c00;" x="293.012022" xlink:href="#m26d7c305f4" y="158.58366"/>
     <use style="fill:#ff8c00;stroke:#ff8c00;" x="229.25253" xlink:href="#m26d7c305f4" y="151.569178"/>
     <use style="fill:#ff8c00;stroke:#ff8c00;" x="233.910365" xlink:href="#m26d7c305f4" y="127.330164"/>
     <use style="fill:#ff8c00;stroke:#ff8c00;" x="283.974401" xlink:href="#m26d7c305f4" y="68.347241"/>
     <use style="fill:#ff8c00;stroke:#ff8c00;" x="276.500436" xlink:href="#m26d7c305f4" y="124.459867"/>
     <use style="fill:#ff8c00;stroke:#ff8c00;" x="279.103145" xlink:href="#m26d7c305f4" y="164.895443"/>
     <use style="fill:#ff8c00;stroke:#ff8c00;" x="253.079936" xlink:href="#m26d7c305f4" y="106.877172"/>
     <use style="fill:#ff8c00;stroke:#ff8c00;" x="263.372856" xlink:href="#m26d7c305f4" y="150.904845"/>
     <use style="fill:#ff8c00;stroke:#ff8c00;" x="273.395128" xlink:href="#m26d7c305f4" y="125.350479"/>
     <use style="fill:#ff8c00;stroke:#ff8c00;" x="247.402926" xlink:href="#m26d7c305f4" y="153.046927"/>
     <use style="fill:#ff8c00;stroke:#ff8c00;" x="231.115651" xlink:href="#m26d7c305f4" y="160.354622"/>
     <use style="fill:#ff8c00;stroke:#ff8c00;" x="293.647974" xlink:href="#m26d7c305f4" y="199.601976"/>
     <use style="fill:#ff8c00;stroke:#ff8c00;" x="302.332392" xlink:href="#m26d7c305f4" y="80.4279"/>
     <use style="fill:#ff8c00;stroke:#ff8c00;" x="265.791729" xlink:href="#m26d7c305f4" y="148.39533"/>
     <use style="fill:#ff8c00;stroke:#ff8c00;" x="224.699295" xlink:href="#m26d7c305f4" y="205.596196"/>
     <use style="fill:#ff8c00;stroke:#ff8c00;" x="288.760504" xlink:href="#m26d7c305f4" y="210.618189"/>
     <use style="fill:#ff8c00;stroke:#ff8c00;" x="254.165466" xlink:href="#m26d7c305f4" y="143.562493"/>
     <use style="fill:#ff8c00;stroke:#ff8c00;" x="262.448758" xlink:href="#m26d7c305f4" y="123.285672"/>
     <use style="fill:#ff8c00;stroke:#ff8c00;" x="241.13905" xlink:href="#m26d7c305f4" y="209.961357"/>
     <use style="fill:#ff8c00;stroke:#ff8c00;" x="236.860656" xlink:href="#m26d7c305f4" y="167.223655"/>
     <use style="fill:#ff8c00;stroke:#ff8c00;" x="261.842515" xlink:href="#m26d7c305f4" y="189.523166"/>
     <use style="fill:#ff8c00;stroke:#ff8c00;" x="252.101204" xlink:href="#m26d7c305f4" y="149.225912"/>
     <use style="fill:#ff8c00;stroke:#ff8c00;" x="237.589955" xlink:href="#m26d7c305f4" y="174.244337"/>
     <use style="fill:#ff8c00;stroke:#ff8c00;" x="260.598961" xlink:href="#m26d7c305f4" y="168.094946"/>
     <use style="fill:#ff8c00;stroke:#ff8c00;" x="220.30496" xlink:href="#m26d7c305f4" y="171.161634"/>
     <use style="fill:#ff8c00;stroke:#ff8c00;" x="229.605595" xlink:href="#m26d7c305f4" y="147.816433"/>
     <use style="fill:#ff8c00;stroke:#ff8c00;" x="311.318182" xlink:href="#m26d7c305f4" y="222.873256"/>
     <use style="fill:#ff8c00;stroke:#ff8c00;" x="291.145342" xlink:href="#m26d7c305f4" y="179.145187"/>
     <use style="fill:#ff8c00;stroke:#ff8c00;" x="256.343411" xlink:href="#m26d7c305f4" y="158.819931"/>
     <use style="fill:#ff8c00;stroke:#ff8c00;" x="262.062779" xlink:href="#m26d7c305f4" y="194.578273"/>
     <use style="fill:#ff8c00;stroke:#ff8c00;" x="230.955947" xlink:href="#m26d7c305f4" y="155.141893"/>
     <use style="fill:#ff8c00;stroke:#ff8c00;" x="253.553266" xlink:href="#m26d7c305f4" y="174.707911"/>
     <use style="fill:#ff8c00;stroke:#ff8c00;" x="248.448148" xlink:href="#m26d7c305f4" y="136.122216"/>
     <use style="fill:#ff8c00;stroke:#ff8c00;" x="276.826511" xlink:href="#m26d7c305f4" y="114.777981"/>
     <use style="fill:#ff8c00;stroke:#ff8c00;" x="218.169189" xlink:href="#m26d7c305f4" y="134.467831"/>
     <use style="fill:#ff8c00;stroke:#ff8c00;" x="238.920939" xlink:href="#m26d7c305f4" y="132.458578"/>
     <use style="fill:#ff8c00;stroke:#ff8c00;" x="271.82537" xlink:href="#m26d7c305f4" y="141.16251"/>
     <use style="fill:#ff8c00;stroke:#ff8c00;" x="238.084425" xlink:href="#m26d7c305f4" y="107.313814"/>
     <use style="fill:#ff8c00;stroke:#ff8c00;" x="225.768778" xlink:href="#m26d7c305f4" y="195.300656"/>
     <use style="fill:#ff8c00;stroke:#ff8c00;" x="202.910815" xlink:href="#m26d7c305f4" y="171.348731"/>
     <use style="fill:#ff8c00;stroke:#ff8c00;" x="275.147166" xlink:href="#m26d7c305f4" y="139.107454"/>
     <use style="fill:#ff8c00;stroke:#ff8c00;" x="268.514083" xlink:href="#m26d7c305f4" y="244.01525"/>
     <use style="fill:#ff8c00;stroke:#ff8c00;" x="261.632487" xlink:href="#m26d7c305f4" y="168.522048"/>
    </g>
   </g>
   <g id="matplotlib.axis_1">
    <g id="xtick_1">
     <g id="line2d_1">
      <defs>
       <path d="M 0 0 
L 0 3.5 
" id="m839497ffec" style="stroke:#000000;stroke-width:0.8;"/>
      </defs>
      <g>
       <use style="stroke:#000000;stroke-width:0.8;" x="58.078234" xlink:href="#m839497ffec" y="256.32"/>
      </g>
     </g>
     <g id="text_1">
      <!-- −3 -->
      <g transform="translate(50.70714 270.918437)scale(0.1 -0.1)">
       <defs>
        <path d="M 10.59375 35.5 
L 73.1875 35.5 
L 73.1875 27.203125 
L 10.59375 27.203125 
z
" id="DejaVuSans-8722"/>
        <path d="M 40.578125 39.3125 
Q 47.65625 37.796875 51.625 33 
Q 55.609375 28.21875 55.609375 21.1875 
Q 55.609375 10.40625 48.1875 4.484375 
Q 40.765625 -1.421875 27.09375 -1.421875 
Q 22.515625 -1.421875 17.65625 -0.515625 
Q 12.796875 0.390625 7.625 2.203125 
L 7.625 11.71875 
Q 11.71875 9.328125 16.59375 8.109375 
Q 21.484375 6.890625 26.8125 6.890625 
Q 36.078125 6.890625 40.9375 10.546875 
Q 45.796875 14.203125 45.796875 21.1875 
Q 45.796875 27.640625 41.28125 31.265625 
Q 36.765625 34.90625 28.71875 34.90625 
L 20.21875 34.90625 
L 20.21875 43.015625 
L 29.109375 43.015625 
Q 36.375 43.015625 40.234375 45.921875 
Q 44.09375 48.828125 44.09375 54.296875 
Q 44.09375 59.90625 40.109375 62.90625 
Q 36.140625 65.921875 28.71875 65.921875 
Q 24.65625 65.921875 20.015625 65.03125 
Q 15.375 64.15625 9.8125 62.3125 
L 9.8125 71.09375 
Q 15.4375 72.65625 20.34375 73.4375 
Q 25.25 74.21875 29.59375 74.21875 
Q 40.828125 74.21875 47.359375 69.109375 
Q 53.90625 64.015625 53.90625 55.328125 
Q 53.90625 49.265625 50.4375 45.09375 
Q 46.96875 40.921875 40.578125 39.3125 
z
" id="DejaVuSans-51"/>
       </defs>
       <use xlink:href="#DejaVuSans-8722"/>
       <use x="83.789062" xlink:href="#DejaVuSans-51"/>
      </g>
     </g>
    </g>
    <g id="xtick_2">
     <g id="line2d_2">
      <g>
       <use style="stroke:#000000;stroke-width:0.8;" x="107.074122" xlink:href="#m839497ffec" y="256.32"/>
      </g>
     </g>
     <g id="text_2">
      <!-- −2 -->
      <g transform="translate(99.703028 270.918437)scale(0.1 -0.1)">
       <defs>
        <path d="M 19.1875 8.296875 
L 53.609375 8.296875 
L 53.609375 0 
L 7.328125 0 
L 7.328125 8.296875 
Q 12.9375 14.109375 22.625 23.890625 
Q 32.328125 33.6875 34.8125 36.53125 
Q 39.546875 41.84375 41.421875 45.53125 
Q 43.3125 49.21875 43.3125 52.78125 
Q 43.3125 58.59375 39.234375 62.25 
Q 35.15625 65.921875 28.609375 65.921875 
Q 23.96875 65.921875 18.8125 64.3125 
Q 13.671875 62.703125 7.8125 59.421875 
L 7.8125 69.390625 
Q 13.765625 71.78125 18.9375 73 
Q 24.125 74.21875 28.421875 74.21875 
Q 39.75 74.21875 46.484375 68.546875 
Q 53.21875 62.890625 53.21875 53.421875 
Q 53.21875 48.921875 51.53125 44.890625 
Q 49.859375 40.875 45.40625 35.40625 
Q 44.1875 33.984375 37.640625 27.21875 
Q 31.109375 20.453125 19.1875 8.296875 
z
" id="DejaVuSans-50"/>
       </defs>
       <use xlink:href="#DejaVuSans-8722"/>
       <use x="83.789062" xlink:href="#DejaVuSans-50"/>
      </g>
     </g>
    </g>
    <g id="xtick_3">
     <g id="line2d_3">
      <g>
       <use style="stroke:#000000;stroke-width:0.8;" x="156.070009" xlink:href="#m839497ffec" y="256.32"/>
      </g>
     </g>
     <g id="text_3">
      <!-- −1 -->
      <g transform="translate(148.698916 270.918437)scale(0.1 -0.1)">
       <defs>
        <path d="M 12.40625 8.296875 
L 28.515625 8.296875 
L 28.515625 63.921875 
L 10.984375 60.40625 
L 10.984375 69.390625 
L 28.421875 72.90625 
L 38.28125 72.90625 
L 38.28125 8.296875 
L 54.390625 8.296875 
L 54.390625 0 
L 12.40625 0 
z
" id="DejaVuSans-49"/>
       </defs>
       <use xlink:href="#DejaVuSans-8722"/>
       <use x="83.789062" xlink:href="#DejaVuSans-49"/>
      </g>
     </g>
    </g>
    <g id="xtick_4">
     <g id="line2d_4">
      <g>
       <use style="stroke:#000000;stroke-width:0.8;" x="205.065897" xlink:href="#m839497ffec" y="256.32"/>
      </g>
     </g>
     <g id="text_4">
      <!-- 0 -->
      <g transform="translate(201.884647 270.918437)scale(0.1 -0.1)">
       <defs>
        <path d="M 31.78125 66.40625 
Q 24.171875 66.40625 20.328125 58.90625 
Q 16.5 51.421875 16.5 36.375 
Q 16.5 21.390625 20.328125 13.890625 
Q 24.171875 6.390625 31.78125 6.390625 
Q 39.453125 6.390625 43.28125 13.890625 
Q 47.125 21.390625 47.125 36.375 
Q 47.125 51.421875 43.28125 58.90625 
Q 39.453125 66.40625 31.78125 66.40625 
z
M 31.78125 74.21875 
Q 44.046875 74.21875 50.515625 64.515625 
Q 56.984375 54.828125 56.984375 36.375 
Q 56.984375 17.96875 50.515625 8.265625 
Q 44.046875 -1.421875 31.78125 -1.421875 
Q 19.53125 -1.421875 13.0625 8.265625 
Q 6.59375 17.96875 6.59375 36.375 
Q 6.59375 54.828125 13.0625 64.515625 
Q 19.53125 74.21875 31.78125 74.21875 
z
" id="DejaVuSans-48"/>
       </defs>
       <use xlink:href="#DejaVuSans-48"/>
      </g>
     </g>
    </g>
    <g id="xtick_5">
     <g id="line2d_5">
      <g>
       <use style="stroke:#000000;stroke-width:0.8;" x="254.061785" xlink:href="#m839497ffec" y="256.32"/>
      </g>
     </g>
     <g id="text_5">
      <!-- 1 -->
      <g transform="translate(250.880535 270.918437)scale(0.1 -0.1)">
       <use xlink:href="#DejaVuSans-49"/>
      </g>
     </g>
    </g>
    <g id="xtick_6">
     <g id="line2d_6">
      <g>
       <use style="stroke:#000000;stroke-width:0.8;" x="303.057673" xlink:href="#m839497ffec" y="256.32"/>
      </g>
     </g>
     <g id="text_6">
      <!-- 2 -->
      <g transform="translate(299.876423 270.918437)scale(0.1 -0.1)">
       <use xlink:href="#DejaVuSans-50"/>
      </g>
     </g>
    </g>
   </g>
   <g id="matplotlib.axis_2">
    <g id="ytick_1">
     <g id="line2d_7">
      <defs>
       <path d="M 0 0 
L -3.5 0 
" id="m4af4084ed8" style="stroke:#000000;stroke-width:0.8;"/>
      </defs>
      <g>
       <use style="stroke:#000000;stroke-width:0.8;" x="45" xlink:href="#m4af4084ed8" y="254.06543"/>
      </g>
     </g>
     <g id="text_7">
      <!-- −2 -->
      <g transform="translate(23.257812 257.864649)scale(0.1 -0.1)">
       <use xlink:href="#DejaVuSans-8722"/>
       <use x="83.789062" xlink:href="#DejaVuSans-50"/>
      </g>
     </g>
    </g>
    <g id="ytick_2">
     <g id="line2d_8">
      <g>
       <use style="stroke:#000000;stroke-width:0.8;" x="45" xlink:href="#m4af4084ed8" y="222.231879"/>
      </g>
     </g>
     <g id="text_8">
      <!-- −1 -->
      <g transform="translate(23.257812 226.031098)scale(0.1 -0.1)">
       <use xlink:href="#DejaVuSans-8722"/>
       <use x="83.789062" xlink:href="#DejaVuSans-49"/>
      </g>
     </g>
    </g>
    <g id="ytick_3">
     <g id="line2d_9">
      <g>
       <use style="stroke:#000000;stroke-width:0.8;" x="45" xlink:href="#m4af4084ed8" y="190.398328"/>
      </g>
     </g>
     <g id="text_9">
      <!-- 0 -->
      <g transform="translate(31.6375 194.197547)scale(0.1 -0.1)">
       <use xlink:href="#DejaVuSans-48"/>
      </g>
     </g>
    </g>
    <g id="ytick_4">
     <g id="line2d_10">
      <g>
       <use style="stroke:#000000;stroke-width:0.8;" x="45" xlink:href="#m4af4084ed8" y="158.564777"/>
      </g>
     </g>
     <g id="text_10">
      <!-- 1 -->
      <g transform="translate(31.6375 162.363996)scale(0.1 -0.1)">
       <use xlink:href="#DejaVuSans-49"/>
      </g>
     </g>
    </g>
    <g id="ytick_5">
     <g id="line2d_11">
      <g>
       <use style="stroke:#000000;stroke-width:0.8;" x="45" xlink:href="#m4af4084ed8" y="126.731227"/>
      </g>
     </g>
     <g id="text_11">
      <!-- 2 -->
      <g transform="translate(31.6375 130.530445)scale(0.1 -0.1)">
       <use xlink:href="#DejaVuSans-50"/>
      </g>
     </g>
    </g>
    <g id="ytick_6">
     <g id="line2d_12">
      <g>
       <use style="stroke:#000000;stroke-width:0.8;" x="45" xlink:href="#m4af4084ed8" y="94.897676"/>
      </g>
     </g>
     <g id="text_12">
      <!-- 3 -->
      <g transform="translate(31.6375 98.696895)scale(0.1 -0.1)">
       <use xlink:href="#DejaVuSans-51"/>
      </g>
     </g>
    </g>
    <g id="ytick_7">
     <g id="line2d_13">
      <g>
       <use style="stroke:#000000;stroke-width:0.8;" x="45" xlink:href="#m4af4084ed8" y="63.064125"/>
      </g>
     </g>
     <g id="text_13">
      <!-- 4 -->
      <g transform="translate(31.6375 66.863344)scale(0.1 -0.1)">
       <defs>
        <path d="M 37.796875 64.3125 
L 12.890625 25.390625 
L 37.796875 25.390625 
z
M 35.203125 72.90625 
L 47.609375 72.90625 
L 47.609375 25.390625 
L 58.015625 25.390625 
L 58.015625 17.1875 
L 47.609375 17.1875 
L 47.609375 0 
L 37.796875 0 
L 37.796875 17.1875 
L 4.890625 17.1875 
L 4.890625 26.703125 
z
" id="DejaVuSans-52"/>
       </defs>
       <use xlink:href="#DejaVuSans-52"/>
      </g>
     </g>
    </g>
   </g>
   <g id="patch_3">
    <path d="M 45 256.32 
L 45 34.56 
" style="fill:none;stroke:#000000;stroke-linecap:square;stroke-linejoin:miter;stroke-width:0.8;"/>
   </g>
   <g id="patch_4">
    <path d="M 324 256.32 
L 324 34.56 
" style="fill:none;stroke:#000000;stroke-linecap:square;stroke-linejoin:miter;stroke-width:0.8;"/>
   </g>
   <g id="patch_5">
    <path d="M 45 256.32 
L 324 256.32 
" style="fill:none;stroke:#000000;stroke-linecap:square;stroke-linejoin:miter;stroke-width:0.8;"/>
   </g>
   <g id="patch_6">
    <path d="M 45 34.56 
L 324 34.56 
" style="fill:none;stroke:#000000;stroke-linecap:square;stroke-linejoin:miter;stroke-width:0.8;"/>
   </g>
   <g id="text_14">
    <!-- Dataset -->
    <g transform="translate(159.046406 28.56)scale(0.13 -0.13)">
     <defs>
      <path d="M 19.671875 64.796875 
L 19.671875 8.109375 
L 31.59375 8.109375 
Q 46.6875 8.109375 53.6875 14.9375 
Q 60.6875 21.78125 60.6875 36.53125 
Q 60.6875 51.171875 53.6875 57.984375 
Q 46.6875 64.796875 31.59375 64.796875 
z
M 9.8125 72.90625 
L 30.078125 72.90625 
Q 51.265625 72.90625 61.171875 64.09375 
Q 71.09375 55.28125 71.09375 36.53125 
Q 71.09375 17.671875 61.125 8.828125 
Q 51.171875 0 30.078125 0 
L 9.8125 0 
z
" id="DejaVuSans-68"/>
      <path d="M 34.28125 27.484375 
Q 23.390625 27.484375 19.1875 25 
Q 14.984375 22.515625 14.984375 16.5 
Q 14.984375 11.71875 18.140625 8.90625 
Q 21.296875 6.109375 26.703125 6.109375 
Q 34.1875 6.109375 38.703125 11.40625 
Q 43.21875 16.703125 43.21875 25.484375 
L 43.21875 27.484375 
z
M 52.203125 31.203125 
L 52.203125 0 
L 43.21875 0 
L 43.21875 8.296875 
Q 40.140625 3.328125 35.546875 0.953125 
Q 30.953125 -1.421875 24.3125 -1.421875 
Q 15.921875 -1.421875 10.953125 3.296875 
Q 6 8.015625 6 15.921875 
Q 6 25.140625 12.171875 29.828125 
Q 18.359375 34.515625 30.609375 34.515625 
L 43.21875 34.515625 
L 43.21875 35.40625 
Q 43.21875 41.609375 39.140625 45 
Q 35.0625 48.390625 27.6875 48.390625 
Q 23 48.390625 18.546875 47.265625 
Q 14.109375 46.140625 10.015625 43.890625 
L 10.015625 52.203125 
Q 14.9375 54.109375 19.578125 55.046875 
Q 24.21875 56 28.609375 56 
Q 40.484375 56 46.34375 49.84375 
Q 52.203125 43.703125 52.203125 31.203125 
z
" id="DejaVuSans-97"/>
      <path d="M 18.3125 70.21875 
L 18.3125 54.6875 
L 36.8125 54.6875 
L 36.8125 47.703125 
L 18.3125 47.703125 
L 18.3125 18.015625 
Q 18.3125 11.328125 20.140625 9.421875 
Q 21.96875 7.515625 27.59375 7.515625 
L 36.8125 7.515625 
L 36.8125 0 
L 27.59375 0 
Q 17.1875 0 13.234375 3.875 
Q 9.28125 7.765625 9.28125 18.015625 
L 9.28125 47.703125 
L 2.6875 47.703125 
L 2.6875 54.6875 
L 9.28125 54.6875 
L 9.28125 70.21875 
z
" id="DejaVuSans-116"/>
      <path d="M 44.28125 53.078125 
L 44.28125 44.578125 
Q 40.484375 46.53125 36.375 47.5 
Q 32.28125 48.484375 27.875 48.484375 
Q 21.1875 48.484375 17.84375 46.4375 
Q 14.5 44.390625 14.5 40.28125 
Q 14.5 37.15625 16.890625 35.375 
Q 19.28125 33.59375 26.515625 31.984375 
L 29.59375 31.296875 
Q 39.15625 29.25 43.1875 25.515625 
Q 47.21875 21.78125 47.21875 15.09375 
Q 47.21875 7.46875 41.1875 3.015625 
Q 35.15625 -1.421875 24.609375 -1.421875 
Q 20.21875 -1.421875 15.453125 -0.5625 
Q 10.6875 0.296875 5.421875 2 
L 5.421875 11.28125 
Q 10.40625 8.6875 15.234375 7.390625 
Q 20.0625 6.109375 24.8125 6.109375 
Q 31.15625 6.109375 34.5625 8.28125 
Q 37.984375 10.453125 37.984375 14.40625 
Q 37.984375 18.0625 35.515625 20.015625 
Q 33.0625 21.96875 24.703125 23.78125 
L 21.578125 24.515625 
Q 13.234375 26.265625 9.515625 29.90625 
Q 5.8125 33.546875 5.8125 39.890625 
Q 5.8125 47.609375 11.28125 51.796875 
Q 16.75 56 26.8125 56 
Q 31.78125 56 36.171875 55.265625 
Q 40.578125 54.546875 44.28125 53.078125 
z
" id="DejaVuSans-115"/>
      <path d="M 56.203125 29.59375 
L 56.203125 25.203125 
L 14.890625 25.203125 
Q 15.484375 15.921875 20.484375 11.0625 
Q 25.484375 6.203125 34.421875 6.203125 
Q 39.59375 6.203125 44.453125 7.46875 
Q 49.3125 8.734375 54.109375 11.28125 
L 54.109375 2.78125 
Q 49.265625 0.734375 44.1875 -0.34375 
Q 39.109375 -1.421875 33.890625 -1.421875 
Q 20.796875 -1.421875 13.15625 6.1875 
Q 5.515625 13.8125 5.515625 26.8125 
Q 5.515625 40.234375 12.765625 48.109375 
Q 20.015625 56 32.328125 56 
Q 43.359375 56 49.78125 48.890625 
Q 56.203125 41.796875 56.203125 29.59375 
z
M 47.21875 32.234375 
Q 47.125 39.59375 43.09375 43.984375 
Q 39.0625 48.390625 32.421875 48.390625 
Q 24.90625 48.390625 20.390625 44.140625 
Q 15.875 39.890625 15.1875 32.171875 
z
" id="DejaVuSans-101"/>
     </defs>
     <use xlink:href="#DejaVuSans-68"/>
     <use x="77.001953" xlink:href="#DejaVuSans-97"/>
     <use x="138.28125" xlink:href="#DejaVuSans-116"/>
     <use x="177.490234" xlink:href="#DejaVuSans-97"/>
     <use x="238.769531" xlink:href="#DejaVuSans-115"/>
     <use x="290.869141" xlink:href="#DejaVuSans-101"/>
     <use x="352.392578" xlink:href="#DejaVuSans-116"/>
    </g>
   </g>
   <g id="legend_1">
    <g id="patch_7">
     <path d="M 52.7 250.82 
L 94.89875 250.82 
Q 97.09875 250.82 97.09875 248.62 
L 97.09875 217.428125 
Q 97.09875 215.228125 94.89875 215.228125 
L 52.7 215.228125 
Q 50.5 215.228125 50.5 217.428125 
L 50.5 248.62 
Q 50.5 250.82 52.7 250.82 
z
" style="fill:#ffffff;opacity:0.8;stroke:#cccccc;stroke-linejoin:miter;"/>
    </g>
    <g id="PathCollection_3">
     <g>
      <use style="fill:#4682b4;stroke:#4682b4;" x="65.9" xlink:href="#mf82f99a357" y="225.098906"/>
     </g>
    </g>
    <g id="text_15">
     <!-- 1 -->
     <g transform="translate(85.7 227.986406)scale(0.11 -0.11)">
      <use xlink:href="#DejaVuSans-49"/>
     </g>
    </g>
    <g id="PathCollection_4">
     <g>
      <use style="fill:#ff8c00;stroke:#ff8c00;" x="65.9" xlink:href="#m26d7c305f4" y="241.244844"/>
     </g>
    </g>
    <g id="text_16">
     <!-- 0 -->
     <g transform="translate(85.7 244.132344)scale(0.11 -0.11)">
      <use xlink:href="#DejaVuSans-48"/>
     </g>
    </g>
   </g>
  </g>
 </g>
 <defs>
  <clipPath id="p65f45798d1">
   <rect height="221.76" width="279" x="45" y="34.56"/>
  </clipPath>
 </defs>
</svg>
