<?xml version="1.0" encoding="utf-8" standalone="no"?>
<!DOCTYPE svg PUBLIC "-//W3C//DTD SVG 1.1//EN"
  "http://www.w3.org/Graphics/SVG/1.1/DTD/svg11.dtd">
<!-- Created with matplotlib (https://matplotlib.org/) -->
<svg height="432pt" version="1.1" viewBox="0 0 576 432" width="576pt" xmlns="http://www.w3.org/2000/svg" xmlns:xlink="http://www.w3.org/1999/xlink">
 <defs>
  <style type="text/css">
*{stroke-linecap:butt;stroke-linejoin:round;}
  </style>
 </defs>
 <g id="figure_1">
  <g id="patch_1">
   <path d="M 0 432 
L 576 432 
L 576 0 
L 0 0 
z
" style="fill:#ffffff;"/>
  </g>
  <g id="axes_1">
   <g id="patch_2">
    <path d="M 72 378 
L 518.4 378 
L 518.4 51.84 
L 72 51.84 
z
" style="fill:#ffffff;"/>
   </g>
   <g id="matplotlib.axis_1">
    <g id="xtick_1">
     <g id="line2d_1">
      <defs>
       <path d="M 0 0 
L 0 3.5 
" id="m8d2d3717c8" style="stroke:#000000;stroke-width:0.8;"/>
      </defs>
      <g>
       <use style="stroke:#000000;stroke-width:0.8;" x="78.261949" xlink:href="#m8d2d3717c8" y="378"/>
      </g>
     </g>
     <g id="text_1">
      <!-- −2.0 -->
      <defs>
       <path d="M 10.59375 35.5 
L 73.1875 35.5 
L 73.1875 27.203125 
L 10.59375 27.203125 
z
" id="DejaVuSans-8722"/>
       <path d="M 19.1875 8.296875 
L 53.609375 8.296875 
L 53.609375 0 
L 7.328125 0 
L 7.328125 8.296875 
Q 12.9375 14.109375 22.625 23.890625 
Q 32.328125 33.6875 34.8125 36.53125 
Q 39.546875 41.84375 41.421875 45.53125 
Q 43.3125 49.21875 43.3125 52.78125 
Q 43.3125 58.59375 39.234375 62.25 
Q 35.15625 65.921875 28.609375 65.921875 
Q 23.96875 65.921875 18.8125 64.3125 
Q 13.671875 62.703125 7.8125 59.421875 
L 7.8125 69.390625 
Q 13.765625 71.78125 18.9375 73 
Q 24.125 74.21875 28.421875 74.21875 
Q 39.75 74.21875 46.484375 68.546875 
Q 53.21875 62.890625 53.21875 53.421875 
Q 53.21875 48.921875 51.53125 44.890625 
Q 49.859375 40.875 45.40625 35.40625 
Q 44.1875 33.984375 37.640625 27.21875 
Q 31.109375 20.453125 19.1875 8.296875 
z
" id="DejaVuSans-50"/>
       <path d="M 10.6875 12.40625 
L 21 12.40625 
L 21 0 
L 10.6875 0 
z
" id="DejaVuSans-46"/>
       <path d="M 31.78125 66.40625 
Q 24.171875 66.40625 20.328125 58.90625 
Q 16.5 51.421875 16.5 36.375 
Q 16.5 21.390625 20.328125 13.890625 
Q 24.171875 6.390625 31.78125 6.390625 
Q 39.453125 6.390625 43.28125 13.890625 
Q 47.125 21.390625 47.125 36.375 
Q 47.125 51.421875 43.28125 58.90625 
Q 39.453125 66.40625 31.78125 66.40625 
z
M 31.78125 74.21875 
Q 44.046875 74.21875 50.515625 64.515625 
Q 56.984375 54.828125 56.984375 36.375 
Q 56.984375 17.96875 50.515625 8.265625 
Q 44.046875 -1.421875 31.78125 -1.421875 
Q 19.53125 -1.421875 13.0625 8.265625 
Q 6.59375 17.96875 6.59375 36.375 
Q 6.59375 54.828125 13.0625 64.515625 
Q 19.53125 74.21875 31.78125 74.21875 
z
" id="DejaVuSans-48"/>
      </defs>
      <g transform="translate(66.120543 392.598437)scale(0.1 -0.1)">
       <use xlink:href="#DejaVuSans-8722"/>
       <use x="83.789062" xlink:href="#DejaVuSans-50"/>
       <use x="147.412109" xlink:href="#DejaVuSans-46"/>
       <use x="179.199219" xlink:href="#DejaVuSans-48"/>
      </g>
     </g>
    </g>
    <g id="xtick_2">
     <g id="line2d_2">
      <g>
       <use style="stroke:#000000;stroke-width:0.8;" x="141.307684" xlink:href="#m8d2d3717c8" y="378"/>
      </g>
     </g>
     <g id="text_2">
      <!-- −1.5 -->
      <defs>
       <path d="M 12.40625 8.296875 
L 28.515625 8.296875 
L 28.515625 63.921875 
L 10.984375 60.40625 
L 10.984375 69.390625 
L 28.421875 72.90625 
L 38.28125 72.90625 
L 38.28125 8.296875 
L 54.390625 8.296875 
L 54.390625 0 
L 12.40625 0 
z
" id="DejaVuSans-49"/>
       <path d="M 10.796875 72.90625 
L 49.515625 72.90625 
L 49.515625 64.59375 
L 19.828125 64.59375 
L 19.828125 46.734375 
Q 21.96875 47.46875 24.109375 47.828125 
Q 26.265625 48.1875 28.421875 48.1875 
Q 40.625 48.1875 47.75 41.5 
Q 54.890625 34.8125 54.890625 23.390625 
Q 54.890625 11.625 47.5625 5.09375 
Q 40.234375 -1.421875 26.90625 -1.421875 
Q 22.3125 -1.421875 17.546875 -0.640625 
Q 12.796875 0.140625 7.71875 1.703125 
L 7.71875 11.625 
Q 12.109375 9.234375 16.796875 8.0625 
Q 21.484375 6.890625 26.703125 6.890625 
Q 35.15625 6.890625 40.078125 11.328125 
Q 45.015625 15.765625 45.015625 23.390625 
Q 45.015625 31 40.078125 35.4375 
Q 35.15625 39.890625 26.703125 39.890625 
Q 22.75 39.890625 18.8125 39.015625 
Q 14.890625 38.140625 10.796875 36.28125 
z
" id="DejaVuSans-53"/>
      </defs>
      <g transform="translate(129.166278 392.598437)scale(0.1 -0.1)">
       <use xlink:href="#DejaVuSans-8722"/>
       <use x="83.789062" xlink:href="#DejaVuSans-49"/>
       <use x="147.412109" xlink:href="#DejaVuSans-46"/>
       <use x="179.199219" xlink:href="#DejaVuSans-53"/>
      </g>
     </g>
    </g>
    <g id="xtick_3">
     <g id="line2d_3">
      <g>
       <use style="stroke:#000000;stroke-width:0.8;" x="204.353419" xlink:href="#m8d2d3717c8" y="378"/>
      </g>
     </g>
     <g id="text_3">
      <!-- −1.0 -->
      <g transform="translate(192.212012 392.598437)scale(0.1 -0.1)">
       <use xlink:href="#DejaVuSans-8722"/>
       <use x="83.789062" xlink:href="#DejaVuSans-49"/>
       <use x="147.412109" xlink:href="#DejaVuSans-46"/>
       <use x="179.199219" xlink:href="#DejaVuSans-48"/>
      </g>
     </g>
    </g>
    <g id="xtick_4">
     <g id="line2d_4">
      <g>
       <use style="stroke:#000000;stroke-width:0.8;" x="267.399153" xlink:href="#m8d2d3717c8" y="378"/>
      </g>
     </g>
     <g id="text_4">
      <!-- −0.5 -->
      <g transform="translate(255.257747 392.598437)scale(0.1 -0.1)">
       <use xlink:href="#DejaVuSans-8722"/>
       <use x="83.789062" xlink:href="#DejaVuSans-48"/>
       <use x="147.412109" xlink:href="#DejaVuSans-46"/>
       <use x="179.199219" xlink:href="#DejaVuSans-53"/>
      </g>
     </g>
    </g>
    <g id="xtick_5">
     <g id="line2d_5">
      <g>
       <use style="stroke:#000000;stroke-width:0.8;" x="330.444888" xlink:href="#m8d2d3717c8" y="378"/>
      </g>
     </g>
     <g id="text_5">
      <!-- 0.0 -->
      <g transform="translate(322.493325 392.598437)scale(0.1 -0.1)">
       <use xlink:href="#DejaVuSans-48"/>
       <use x="63.623047" xlink:href="#DejaVuSans-46"/>
       <use x="95.410156" xlink:href="#DejaVuSans-48"/>
      </g>
     </g>
    </g>
    <g id="xtick_6">
     <g id="line2d_6">
      <g>
       <use style="stroke:#000000;stroke-width:0.8;" x="393.490622" xlink:href="#m8d2d3717c8" y="378"/>
      </g>
     </g>
     <g id="text_6">
      <!-- 0.5 -->
      <g transform="translate(385.53906 392.598437)scale(0.1 -0.1)">
       <use xlink:href="#DejaVuSans-48"/>
       <use x="63.623047" xlink:href="#DejaVuSans-46"/>
       <use x="95.410156" xlink:href="#DejaVuSans-53"/>
      </g>
     </g>
    </g>
    <g id="xtick_7">
     <g id="line2d_7">
      <g>
       <use style="stroke:#000000;stroke-width:0.8;" x="456.536357" xlink:href="#m8d2d3717c8" y="378"/>
      </g>
     </g>
     <g id="text_7">
      <!-- 1.0 -->
      <g transform="translate(448.584794 392.598437)scale(0.1 -0.1)">
       <use xlink:href="#DejaVuSans-49"/>
       <use x="63.623047" xlink:href="#DejaVuSans-46"/>
       <use x="95.410156" xlink:href="#DejaVuSans-48"/>
      </g>
     </g>
    </g>
   </g>
   <g id="matplotlib.axis_2">
    <g id="ytick_1">
     <g id="line2d_8">
      <defs>
       <path d="M 0 0 
L -3.5 0 
" id="m8932ee74bd" style="stroke:#000000;stroke-width:0.8;"/>
      </defs>
      <g>
       <use style="stroke:#000000;stroke-width:0.8;" x="72" xlink:href="#m8932ee74bd" y="341.490045"/>
      </g>
     </g>
     <g id="text_8">
      <!-- 0.25 -->
      <g transform="translate(42.734375 345.289263)scale(0.1 -0.1)">
       <use xlink:href="#DejaVuSans-48"/>
       <use x="63.623047" xlink:href="#DejaVuSans-46"/>
       <use x="95.410156" xlink:href="#DejaVuSans-50"/>
       <use x="159.033203" xlink:href="#DejaVuSans-53"/>
      </g>
     </g>
    </g>
    <g id="ytick_2">
     <g id="line2d_9">
      <g>
       <use style="stroke:#000000;stroke-width:0.8;" x="72" xlink:href="#m8932ee74bd" y="303.859948"/>
      </g>
     </g>
     <g id="text_9">
      <!-- 0.50 -->
      <g transform="translate(42.734375 307.659167)scale(0.1 -0.1)">
       <use xlink:href="#DejaVuSans-48"/>
       <use x="63.623047" xlink:href="#DejaVuSans-46"/>
       <use x="95.410156" xlink:href="#DejaVuSans-53"/>
       <use x="159.033203" xlink:href="#DejaVuSans-48"/>
      </g>
     </g>
    </g>
    <g id="ytick_3">
     <g id="line2d_10">
      <g>
       <use style="stroke:#000000;stroke-width:0.8;" x="72" xlink:href="#m8932ee74bd" y="266.229852"/>
      </g>
     </g>
     <g id="text_10">
      <!-- 0.75 -->
      <defs>
       <path d="M 8.203125 72.90625 
L 55.078125 72.90625 
L 55.078125 68.703125 
L 28.609375 0 
L 18.3125 0 
L 43.21875 64.59375 
L 8.203125 64.59375 
z
" id="DejaVuSans-55"/>
      </defs>
      <g transform="translate(42.734375 270.029071)scale(0.1 -0.1)">
       <use xlink:href="#DejaVuSans-48"/>
       <use x="63.623047" xlink:href="#DejaVuSans-46"/>
       <use x="95.410156" xlink:href="#DejaVuSans-55"/>
       <use x="159.033203" xlink:href="#DejaVuSans-53"/>
      </g>
     </g>
    </g>
    <g id="ytick_4">
     <g id="line2d_11">
      <g>
       <use style="stroke:#000000;stroke-width:0.8;" x="72" xlink:href="#m8932ee74bd" y="228.599756"/>
      </g>
     </g>
     <g id="text_11">
      <!-- 1.00 -->
      <g transform="translate(42.734375 232.398975)scale(0.1 -0.1)">
       <use xlink:href="#DejaVuSans-49"/>
       <use x="63.623047" xlink:href="#DejaVuSans-46"/>
       <use x="95.410156" xlink:href="#DejaVuSans-48"/>
       <use x="159.033203" xlink:href="#DejaVuSans-48"/>
      </g>
     </g>
    </g>
    <g id="ytick_5">
     <g id="line2d_12">
      <g>
       <use style="stroke:#000000;stroke-width:0.8;" x="72" xlink:href="#m8932ee74bd" y="190.96966"/>
      </g>
     </g>
     <g id="text_12">
      <!-- 1.25 -->
      <g transform="translate(42.734375 194.768879)scale(0.1 -0.1)">
       <use xlink:href="#DejaVuSans-49"/>
       <use x="63.623047" xlink:href="#DejaVuSans-46"/>
       <use x="95.410156" xlink:href="#DejaVuSans-50"/>
       <use x="159.033203" xlink:href="#DejaVuSans-53"/>
      </g>
     </g>
    </g>
    <g id="ytick_6">
     <g id="line2d_13">
      <g>
       <use style="stroke:#000000;stroke-width:0.8;" x="72" xlink:href="#m8932ee74bd" y="153.339564"/>
      </g>
     </g>
     <g id="text_13">
      <!-- 1.50 -->
      <g transform="translate(42.734375 157.138783)scale(0.1 -0.1)">
       <use xlink:href="#DejaVuSans-49"/>
       <use x="63.623047" xlink:href="#DejaVuSans-46"/>
       <use x="95.410156" xlink:href="#DejaVuSans-53"/>
       <use x="159.033203" xlink:href="#DejaVuSans-48"/>
      </g>
     </g>
    </g>
    <g id="ytick_7">
     <g id="line2d_14">
      <g>
       <use style="stroke:#000000;stroke-width:0.8;" x="72" xlink:href="#m8932ee74bd" y="115.709468"/>
      </g>
     </g>
     <g id="text_14">
      <!-- 1.75 -->
      <g transform="translate(42.734375 119.508687)scale(0.1 -0.1)">
       <use xlink:href="#DejaVuSans-49"/>
       <use x="63.623047" xlink:href="#DejaVuSans-46"/>
       <use x="95.410156" xlink:href="#DejaVuSans-55"/>
       <use x="159.033203" xlink:href="#DejaVuSans-53"/>
      </g>
     </g>
    </g>
    <g id="ytick_8">
     <g id="line2d_15">
      <g>
       <use style="stroke:#000000;stroke-width:0.8;" x="72" xlink:href="#m8932ee74bd" y="78.079372"/>
      </g>
     </g>
     <g id="text_15">
      <!-- 2.00 -->
      <g transform="translate(42.734375 81.878591)scale(0.1 -0.1)">
       <use xlink:href="#DejaVuSans-50"/>
       <use x="63.623047" xlink:href="#DejaVuSans-46"/>
       <use x="95.410156" xlink:href="#DejaVuSans-48"/>
       <use x="159.033203" xlink:href="#DejaVuSans-48"/>
      </g>
     </g>
    </g>
   </g>
   <g id="line2d_16">
    <defs>
     <path d="M 0 3 
C 0.795609 3 1.55874 2.683901 2.12132 2.12132 
C 2.683901 1.55874 3 0.795609 3 0 
C 3 -0.795609 2.683901 -1.55874 2.12132 -2.12132 
C 1.55874 -2.683901 0.795609 -3 0 -3 
C -0.795609 -3 -1.55874 -2.683901 -2.12132 -2.12132 
C -2.683901 -1.55874 -3 -0.795609 -3 0 
C -3 0.795609 -2.683901 1.55874 -2.12132 2.12132 
C -1.55874 2.683901 -0.795609 3 0 3 
z
" id="me6a484625a" style="stroke:#4682b4;"/>
    </defs>
    <g clip-path="url(#pd7968970ac)">
     <use style="fill:#4682b4;stroke:#4682b4;" x="198.113608" xlink:href="#me6a484625a" y="246.866338"/>
     <use style="fill:#4682b4;stroke:#4682b4;" x="181.640042" xlink:href="#me6a484625a" y="210.443754"/>
     <use style="fill:#4682b4;stroke:#4682b4;" x="216.039783" xlink:href="#me6a484625a" y="219.50703"/>
     <use style="fill:#4682b4;stroke:#4682b4;" x="251.316658" xlink:href="#me6a484625a" y="171.911665"/>
     <use style="fill:#4682b4;stroke:#4682b4;" x="178.659852" xlink:href="#me6a484625a" y="260.5073"/>
     <use style="fill:#4682b4;stroke:#4682b4;" x="268.173733" xlink:href="#me6a484625a" y="128.123942"/>
     <use style="fill:#4682b4;stroke:#4682b4;" x="208.320295" xlink:href="#me6a484625a" y="186.467014"/>
     <use style="fill:#4682b4;stroke:#4682b4;" x="192.714132" xlink:href="#me6a484625a" y="239.607341"/>
     <use style="fill:#4682b4;stroke:#4682b4;" x="244.396262" xlink:href="#me6a484625a" y="161.343967"/>
     <use style="fill:#4682b4;stroke:#4682b4;" x="234.557609" xlink:href="#me6a484625a" y="286.755308"/>
     <use style="fill:#4682b4;stroke:#4682b4;" x="189.891963" xlink:href="#me6a484625a" y="208.211601"/>
     <use style="fill:#4682b4;stroke:#4682b4;" x="155.173909" xlink:href="#me6a484625a" y="250.015867"/>
     <use style="fill:#4682b4;stroke:#4682b4;" x="178.810744" xlink:href="#me6a484625a" y="274.998609"/>
     <use style="fill:#4682b4;stroke:#4682b4;" x="223.308513" xlink:href="#me6a484625a" y="245.39942"/>
     <use style="fill:#4682b4;stroke:#4682b4;" x="200.508975" xlink:href="#me6a484625a" y="286.039773"/>
     <use style="fill:#4682b4;stroke:#4682b4;" x="169.222065" xlink:href="#me6a484625a" y="231.038248"/>
     <use style="fill:#4682b4;stroke:#4682b4;" x="206.323315" xlink:href="#me6a484625a" y="238.201264"/>
     <use style="fill:#4682b4;stroke:#4682b4;" x="202.629797" xlink:href="#me6a484625a" y="307.877673"/>
     <use style="fill:#4682b4;stroke:#4682b4;" x="144.417206" xlink:href="#me6a484625a" y="249.452465"/>
     <use style="fill:#4682b4;stroke:#4682b4;" x="174.202104" xlink:href="#me6a484625a" y="236.454796"/>
     <use style="fill:#4682b4;stroke:#4682b4;" x="261.465006" xlink:href="#me6a484625a" y="308.767228"/>
     <use style="fill:#4682b4;stroke:#4682b4;" x="220.299473" xlink:href="#me6a484625a" y="247.9829"/>
     <use style="fill:#4682b4;stroke:#4682b4;" x="175.330246" xlink:href="#me6a484625a" y="218.780844"/>
     <use style="fill:#4682b4;stroke:#4682b4;" x="151.138829" xlink:href="#me6a484625a" y="226.827624"/>
     <use style="fill:#4682b4;stroke:#4682b4;" x="219.122535" xlink:href="#me6a484625a" y="256.320175"/>
     <use style="fill:#4682b4;stroke:#4682b4;" x="214.735207" xlink:href="#me6a484625a" y="226.800695"/>
     <use style="fill:#4682b4;stroke:#4682b4;" x="218.28809" xlink:href="#me6a484625a" y="176.32607"/>
     <use style="fill:#4682b4;stroke:#4682b4;" x="118.042837" xlink:href="#me6a484625a" y="179.141845"/>
     <use style="fill:#4682b4;stroke:#4682b4;" x="212.731278" xlink:href="#me6a484625a" y="228.922598"/>
     <use style="fill:#4682b4;stroke:#4682b4;" x="145.516414" xlink:href="#me6a484625a" y="246.851751"/>
     <use style="fill:#4682b4;stroke:#4682b4;" x="166.606451" xlink:href="#me6a484625a" y="250.672736"/>
     <use style="fill:#4682b4;stroke:#4682b4;" x="97.094847" xlink:href="#me6a484625a" y="244.310604"/>
     <use style="fill:#4682b4;stroke:#4682b4;" x="257.44268" xlink:href="#me6a484625a" y="179.349318"/>
     <use style="fill:#4682b4;stroke:#4682b4;" x="187.02485" xlink:href="#me6a484625a" y="285.567057"/>
     <use style="fill:#4682b4;stroke:#4682b4;" x="223.288481" xlink:href="#me6a484625a" y="270.297213"/>
     <use style="fill:#4682b4;stroke:#4682b4;" x="148.634738" xlink:href="#me6a484625a" y="214.317653"/>
     <use style="fill:#4682b4;stroke:#4682b4;" x="245.705139" xlink:href="#me6a484625a" y="249.857003"/>
     <use style="fill:#4682b4;stroke:#4682b4;" x="92.290909" xlink:href="#me6a484625a" y="312.712081"/>
     <use style="fill:#4682b4;stroke:#4682b4;" x="184.62073" xlink:href="#me6a484625a" y="249.699139"/>
     <use style="fill:#4682b4;stroke:#4682b4;" x="148.09016" xlink:href="#me6a484625a" y="278.633967"/>
     <use style="fill:#4682b4;stroke:#4682b4;" x="123.450006" xlink:href="#me6a484625a" y="264.467758"/>
     <use style="fill:#4682b4;stroke:#4682b4;" x="185.78919" xlink:href="#me6a484625a" y="245.366003"/>
     <use style="fill:#4682b4;stroke:#4682b4;" x="251.797501" xlink:href="#me6a484625a" y="189.909343"/>
     <use style="fill:#4682b4;stroke:#4682b4;" x="211.2935" xlink:href="#me6a484625a" y="287.160826"/>
     <use style="fill:#4682b4;stroke:#4682b4;" x="136.823723" xlink:href="#me6a484625a" y="363.174545"/>
     <use style="fill:#4682b4;stroke:#4682b4;" x="177.54791" xlink:href="#me6a484625a" y="239.248983"/>
     <use style="fill:#4682b4;stroke:#4682b4;" x="111.091377" xlink:href="#me6a484625a" y="194.179707"/>
     <use style="fill:#4682b4;stroke:#4682b4;" x="158.432" xlink:href="#me6a484625a" y="196.058663"/>
     <use style="fill:#4682b4;stroke:#4682b4;" x="180.504746" xlink:href="#me6a484625a" y="285.242305"/>
     <use style="fill:#4682b4;stroke:#4682b4;" x="262.045319" xlink:href="#me6a484625a" y="176.307733"/>
    </g>
   </g>
   <g id="line2d_17">
    <defs>
     <path d="M 0 3 
C 0.795609 3 1.55874 2.683901 2.12132 2.12132 
C 2.683901 1.55874 3 0.795609 3 0 
C 3 -0.795609 2.683901 -1.55874 2.12132 -2.12132 
C 1.55874 -2.683901 0.795609 -3 0 -3 
C -0.795609 -3 -1.55874 -2.683901 -2.12132 -2.12132 
C -2.683901 -1.55874 -3 -0.795609 -3 0 
C -3 0.795609 -2.683901 1.55874 -2.12132 2.12132 
C -1.55874 2.683901 -0.795609 3 0 3 
z
" id="ma2befb4238" style="stroke:#ff8c00;"/>
    </defs>
    <g clip-path="url(#pd7968970ac)">
     <use style="fill:#ff8c00;stroke:#ff8c00;" x="441.165694" xlink:href="#ma2befb4238" y="244.327555"/>
     <use style="fill:#ff8c00;stroke:#ff8c00;" x="451.402945" xlink:href="#ma2befb4238" y="222.628138"/>
     <use style="fill:#ff8c00;stroke:#ff8c00;" x="434.06474" xlink:href="#ma2befb4238" y="200.079488"/>
     <use style="fill:#ff8c00;stroke:#ff8c00;" x="427.726273" xlink:href="#ma2befb4238" y="327.082836"/>
     <use style="fill:#ff8c00;stroke:#ff8c00;" x="478.548101" xlink:href="#ma2befb4238" y="274.942802"/>
     <use style="fill:#ff8c00;stroke:#ff8c00;" x="434.847032" xlink:href="#ma2befb4238" y="251.468429"/>
     <use style="fill:#ff8c00;stroke:#ff8c00;" x="442.904785" xlink:href="#ma2befb4238" y="247.114569"/>
     <use style="fill:#ff8c00;stroke:#ff8c00;" x="444.424697" xlink:href="#ma2befb4238" y="325.815813"/>
     <use style="fill:#ff8c00;stroke:#ff8c00;" x="449.550267" xlink:href="#ma2befb4238" y="209.570997"/>
     <use style="fill:#ff8c00;stroke:#ff8c00;" x="447.926478" xlink:href="#ma2befb4238" y="261.19637"/>
     <use style="fill:#ff8c00;stroke:#ff8c00;" x="498.109091" xlink:href="#ma2befb4238" y="140.599859"/>
     <use style="fill:#ff8c00;stroke:#ff8c00;" x="458.192662" xlink:href="#ma2befb4238" y="203.345933"/>
     <use style="fill:#ff8c00;stroke:#ff8c00;" x="484.759047" xlink:href="#ma2befb4238" y="80.308107"/>
     <use style="fill:#ff8c00;stroke:#ff8c00;" x="452.041267" xlink:href="#ma2befb4238" y="111.874663"/>
     <use style="fill:#ff8c00;stroke:#ff8c00;" x="459.815701" xlink:href="#ma2befb4238" y="247.826117"/>
     <use style="fill:#ff8c00;stroke:#ff8c00;" x="470.234126" xlink:href="#ma2befb4238" y="203.379335"/>
     <use style="fill:#ff8c00;stroke:#ff8c00;" x="445.930052" xlink:href="#ma2befb4238" y="260.160284"/>
     <use style="fill:#ff8c00;stroke:#ff8c00;" x="474.028896" xlink:href="#ma2befb4238" y="250.079543"/>
     <use style="fill:#ff8c00;stroke:#ff8c00;" x="437.518745" xlink:href="#ma2befb4238" y="173.529675"/>
     <use style="fill:#ff8c00;stroke:#ff8c00;" x="460.869593" xlink:href="#ma2befb4238" y="66.665455"/>
     <use style="fill:#ff8c00;stroke:#ff8c00;" x="487.212803" xlink:href="#ma2befb4238" y="217.673713"/>
     <use style="fill:#ff8c00;stroke:#ff8c00;" x="436.546724" xlink:href="#ma2befb4238" y="243.814784"/>
     <use style="fill:#ff8c00;stroke:#ff8c00;" x="465.137111" xlink:href="#ma2befb4238" y="262.661975"/>
     <use style="fill:#ff8c00;stroke:#ff8c00;" x="445.002271" xlink:href="#ma2befb4238" y="233.561319"/>
     <use style="fill:#ff8c00;stroke:#ff8c00;" x="463.806147" xlink:href="#ma2befb4238" y="232.905341"/>
     <use style="fill:#ff8c00;stroke:#ff8c00;" x="456.352917" xlink:href="#ma2befb4238" y="276.481896"/>
     <use style="fill:#ff8c00;stroke:#ff8c00;" x="485.773502" xlink:href="#ma2befb4238" y="284.943544"/>
     <use style="fill:#ff8c00;stroke:#ff8c00;" x="497.58091" xlink:href="#ma2befb4238" y="102.419421"/>
     <use style="fill:#ff8c00;stroke:#ff8c00;" x="441.707157" xlink:href="#ma2befb4238" y="273.729424"/>
     <use style="fill:#ff8c00;stroke:#ff8c00;" x="460.754181" xlink:href="#ma2befb4238" y="158.016012"/>
     <use style="fill:#ff8c00;stroke:#ff8c00;" x="460.740373" xlink:href="#ma2befb4238" y="200.664674"/>
     <use style="fill:#ff8c00;stroke:#ff8c00;" x="467.228961" xlink:href="#ma2befb4238" y="131.270486"/>
     <use style="fill:#ff8c00;stroke:#ff8c00;" x="478.877383" xlink:href="#ma2befb4238" y="206.959245"/>
     <use style="fill:#ff8c00;stroke:#ff8c00;" x="429.622954" xlink:href="#ma2befb4238" y="262.423895"/>
     <use style="fill:#ff8c00;stroke:#ff8c00;" x="433.089818" xlink:href="#ma2befb4238" y="245.331781"/>
     <use style="fill:#ff8c00;stroke:#ff8c00;" x="448.517359" xlink:href="#ma2befb4238" y="285.251189"/>
     <use style="fill:#ff8c00;stroke:#ff8c00;" x="484.059814" xlink:href="#ma2befb4238" y="233.932385"/>
     <use style="fill:#ff8c00;stroke:#ff8c00;" x="475.551902" xlink:href="#ma2befb4238" y="225.225061"/>
     <use style="fill:#ff8c00;stroke:#ff8c00;" x="434.534272" xlink:href="#ma2befb4238" y="295.048676"/>
     <use style="fill:#ff8c00;stroke:#ff8c00;" x="452.183973" xlink:href="#ma2befb4238" y="200.800712"/>
     <use style="fill:#ff8c00;stroke:#ff8c00;" x="419.283524" xlink:href="#ma2befb4238" y="169.598583"/>
     <use style="fill:#ff8c00;stroke:#ff8c00;" x="469.1688" xlink:href="#ma2befb4238" y="231.545829"/>
     <use style="fill:#ff8c00;stroke:#ff8c00;" x="406.932516" xlink:href="#ma2befb4238" y="293.325953"/>
     <use style="fill:#ff8c00;stroke:#ff8c00;" x="456.886456" xlink:href="#ma2befb4238" y="191.647908"/>
     <use style="fill:#ff8c00;stroke:#ff8c00;" x="408.333377" xlink:href="#ma2befb4238" y="224.358876"/>
     <use style="fill:#ff8c00;stroke:#ff8c00;" x="478.417193" xlink:href="#ma2befb4238" y="206.308203"/>
     <use style="fill:#ff8c00;stroke:#ff8c00;" x="465.105997" xlink:href="#ma2befb4238" y="294.365438"/>
     <use style="fill:#ff8c00;stroke:#ff8c00;" x="479.106005" xlink:href="#ma2befb4238" y="201.705867"/>
     <use style="fill:#ff8c00;stroke:#ff8c00;" x="425.200183" xlink:href="#ma2befb4238" y="218.510498"/>
     <use style="fill:#ff8c00;stroke:#ff8c00;" x="437.703078" xlink:href="#ma2befb4238" y="311.853309"/>
    </g>
   </g>
   <g id="line2d_18">
    <path clip-path="url(#pd7968970ac)" d="M 331.905831 363.174545 
L 358.935703 68.154592 
L 358.935703 68.154592 
" style="fill:none;stroke:#556b2f;stroke-linecap:square;stroke-width:4;"/>
   </g>
   <g id="patch_3">
    <path d="M 72 378 
L 72 51.84 
" style="fill:none;stroke:#000000;stroke-linecap:square;stroke-linejoin:miter;stroke-width:0.8;"/>
   </g>
   <g id="patch_4">
    <path d="M 518.4 378 
L 518.4 51.84 
" style="fill:none;stroke:#000000;stroke-linecap:square;stroke-linejoin:miter;stroke-width:0.8;"/>
   </g>
   <g id="patch_5">
    <path d="M 72 378 
L 518.4 378 
" style="fill:none;stroke:#000000;stroke-linecap:square;stroke-linejoin:miter;stroke-width:0.8;"/>
   </g>
   <g id="patch_6">
    <path d="M 72 51.84 
L 518.4 51.84 
" style="fill:none;stroke:#000000;stroke-linecap:square;stroke-linejoin:miter;stroke-width:0.8;"/>
   </g>
   <g id="legend_1">
    <g id="patch_7">
     <path d="M 81.8 124.688125 
L 203.73125 124.688125 
Q 206.53125 124.688125 206.53125 121.888125 
L 206.53125 61.64 
Q 206.53125 58.84 203.73125 58.84 
L 81.8 58.84 
Q 79 58.84 79 61.64 
L 79 121.888125 
Q 79 124.688125 81.8 124.688125 
z
" style="fill:#ffffff;opacity:0.8;stroke:#cccccc;stroke-linejoin:miter;"/>
    </g>
    <g id="line2d_19"/>
    <g id="line2d_20">
     <g>
      <use style="fill:#4682b4;stroke:#4682b4;" x="98.6" xlink:href="#me6a484625a" y="70.177812"/>
     </g>
    </g>
    <g id="text_16">
     <!-- 1 -->
     <g transform="translate(123.8 75.077812)scale(0.14 -0.14)">
      <use xlink:href="#DejaVuSans-49"/>
     </g>
    </g>
    <g id="line2d_21"/>
    <g id="line2d_22">
     <g>
      <use style="fill:#ff8c00;stroke:#ff8c00;" x="98.6" xlink:href="#ma2befb4238" y="90.727187"/>
     </g>
    </g>
    <g id="text_17">
     <!-- 0 -->
     <g transform="translate(123.8 95.627187)scale(0.14 -0.14)">
      <use xlink:href="#DejaVuSans-48"/>
     </g>
    </g>
    <g id="line2d_23">
     <path d="M 84.6 111.276562 
L 112.6 111.276562 
" style="fill:none;stroke:#556b2f;stroke-linecap:square;stroke-width:4;"/>
    </g>
    <g id="line2d_24"/>
    <g id="text_18">
     <!-- perceptron -->
     <defs>
      <path d="M 18.109375 8.203125 
L 18.109375 -20.796875 
L 9.078125 -20.796875 
L 9.078125 54.6875 
L 18.109375 54.6875 
L 18.109375 46.390625 
Q 20.953125 51.265625 25.265625 53.625 
Q 29.59375 56 35.59375 56 
Q 45.5625 56 51.78125 48.09375 
Q 58.015625 40.1875 58.015625 27.296875 
Q 58.015625 14.40625 51.78125 6.484375 
Q 45.5625 -1.421875 35.59375 -1.421875 
Q 29.59375 -1.421875 25.265625 0.953125 
Q 20.953125 3.328125 18.109375 8.203125 
z
M 48.6875 27.296875 
Q 48.6875 37.203125 44.609375 42.84375 
Q 40.53125 48.484375 33.40625 48.484375 
Q 26.265625 48.484375 22.1875 42.84375 
Q 18.109375 37.203125 18.109375 27.296875 
Q 18.109375 17.390625 22.1875 11.75 
Q 26.265625 6.109375 33.40625 6.109375 
Q 40.53125 6.109375 44.609375 11.75 
Q 48.6875 17.390625 48.6875 27.296875 
z
" id="DejaVuSans-112"/>
      <path d="M 56.203125 29.59375 
L 56.203125 25.203125 
L 14.890625 25.203125 
Q 15.484375 15.921875 20.484375 11.0625 
Q 25.484375 6.203125 34.421875 6.203125 
Q 39.59375 6.203125 44.453125 7.46875 
Q 49.3125 8.734375 54.109375 11.28125 
L 54.109375 2.78125 
Q 49.265625 0.734375 44.1875 -0.34375 
Q 39.109375 -1.421875 33.890625 -1.421875 
Q 20.796875 -1.421875 13.15625 6.1875 
Q 5.515625 13.8125 5.515625 26.8125 
Q 5.515625 40.234375 12.765625 48.109375 
Q 20.015625 56 32.328125 56 
Q 43.359375 56 49.78125 48.890625 
Q 56.203125 41.796875 56.203125 29.59375 
z
M 47.21875 32.234375 
Q 47.125 39.59375 43.09375 43.984375 
Q 39.0625 48.390625 32.421875 48.390625 
Q 24.90625 48.390625 20.390625 44.140625 
Q 15.875 39.890625 15.1875 32.171875 
z
" id="DejaVuSans-101"/>
      <path d="M 41.109375 46.296875 
Q 39.59375 47.171875 37.8125 47.578125 
Q 36.03125 48 33.890625 48 
Q 26.265625 48 22.1875 43.046875 
Q 18.109375 38.09375 18.109375 28.8125 
L 18.109375 0 
L 9.078125 0 
L 9.078125 54.6875 
L 18.109375 54.6875 
L 18.109375 46.1875 
Q 20.953125 51.171875 25.484375 53.578125 
Q 30.03125 56 36.53125 56 
Q 37.453125 56 38.578125 55.875 
Q 39.703125 55.765625 41.0625 55.515625 
z
" id="DejaVuSans-114"/>
      <path d="M 48.78125 52.59375 
L 48.78125 44.1875 
Q 44.96875 46.296875 41.140625 47.34375 
Q 37.3125 48.390625 33.40625 48.390625 
Q 24.65625 48.390625 19.8125 42.84375 
Q 14.984375 37.3125 14.984375 27.296875 
Q 14.984375 17.28125 19.8125 11.734375 
Q 24.65625 6.203125 33.40625 6.203125 
Q 37.3125 6.203125 41.140625 7.25 
Q 44.96875 8.296875 48.78125 10.40625 
L 48.78125 2.09375 
Q 45.015625 0.34375 40.984375 -0.53125 
Q 36.96875 -1.421875 32.421875 -1.421875 
Q 20.0625 -1.421875 12.78125 6.34375 
Q 5.515625 14.109375 5.515625 27.296875 
Q 5.515625 40.671875 12.859375 48.328125 
Q 20.21875 56 33.015625 56 
Q 37.15625 56 41.109375 55.140625 
Q 45.0625 54.296875 48.78125 52.59375 
z
" id="DejaVuSans-99"/>
      <path d="M 18.3125 70.21875 
L 18.3125 54.6875 
L 36.8125 54.6875 
L 36.8125 47.703125 
L 18.3125 47.703125 
L 18.3125 18.015625 
Q 18.3125 11.328125 20.140625 9.421875 
Q 21.96875 7.515625 27.59375 7.515625 
L 36.8125 7.515625 
L 36.8125 0 
L 27.59375 0 
Q 17.1875 0 13.234375 3.875 
Q 9.28125 7.765625 9.28125 18.015625 
L 9.28125 47.703125 
L 2.6875 47.703125 
L 2.6875 54.6875 
L 9.28125 54.6875 
L 9.28125 70.21875 
z
" id="DejaVuSans-116"/>
      <path d="M 30.609375 48.390625 
Q 23.390625 48.390625 19.1875 42.75 
Q 14.984375 37.109375 14.984375 27.296875 
Q 14.984375 17.484375 19.15625 11.84375 
Q 23.34375 6.203125 30.609375 6.203125 
Q 37.796875 6.203125 41.984375 11.859375 
Q 46.1875 17.53125 46.1875 27.296875 
Q 46.1875 37.015625 41.984375 42.703125 
Q 37.796875 48.390625 30.609375 48.390625 
z
M 30.609375 56 
Q 42.328125 56 49.015625 48.375 
Q 55.71875 40.765625 55.71875 27.296875 
Q 55.71875 13.875 49.015625 6.21875 
Q 42.328125 -1.421875 30.609375 -1.421875 
Q 18.84375 -1.421875 12.171875 6.21875 
Q 5.515625 13.875 5.515625 27.296875 
Q 5.515625 40.765625 12.171875 48.375 
Q 18.84375 56 30.609375 56 
z
" id="DejaVuSans-111"/>
      <path d="M 54.890625 33.015625 
L 54.890625 0 
L 45.90625 0 
L 45.90625 32.71875 
Q 45.90625 40.484375 42.875 44.328125 
Q 39.84375 48.1875 33.796875 48.1875 
Q 26.515625 48.1875 22.3125 43.546875 
Q 18.109375 38.921875 18.109375 30.90625 
L 18.109375 0 
L 9.078125 0 
L 9.078125 54.6875 
L 18.109375 54.6875 
L 18.109375 46.1875 
Q 21.34375 51.125 25.703125 53.5625 
Q 30.078125 56 35.796875 56 
Q 45.21875 56 50.046875 50.171875 
Q 54.890625 44.34375 54.890625 33.015625 
z
" id="DejaVuSans-110"/>
     </defs>
     <g transform="translate(123.8 116.176562)scale(0.14 -0.14)">
      <use xlink:href="#DejaVuSans-112"/>
      <use x="63.476562" xlink:href="#DejaVuSans-101"/>
      <use x="125" xlink:href="#DejaVuSans-114"/>
      <use x="166.082031" xlink:href="#DejaVuSans-99"/>
      <use x="221.0625" xlink:href="#DejaVuSans-101"/>
      <use x="282.585938" xlink:href="#DejaVuSans-112"/>
      <use x="346.0625" xlink:href="#DejaVuSans-116"/>
      <use x="385.271484" xlink:href="#DejaVuSans-114"/>
      <use x="426.353516" xlink:href="#DejaVuSans-111"/>
      <use x="487.535156" xlink:href="#DejaVuSans-110"/>
     </g>
    </g>
   </g>
  </g>
 </g>
 <defs>
  <clipPath id="pd7968970ac">
   <rect height="326.16" width="446.4" x="72" y="51.84"/>
  </clipPath>
 </defs>
</svg>
