<?xml version="1.0" encoding="utf-8" standalone="no"?>
<!DOCTYPE svg PUBLIC "-//W3C//DTD SVG 1.1//EN"
  "http://www.w3.org/Graphics/SVG/1.1/DTD/svg11.dtd">
<!-- Created with matplotlib (https://matplotlib.org/) -->
<svg height="375.4975pt" version="1.1" viewBox="0 0 320.619955 375.4975" width="320.619955pt" xmlns="http://www.w3.org/2000/svg" xmlns:xlink="http://www.w3.org/1999/xlink">
 <defs>
  <style type="text/css">
*{stroke-linecap:butt;stroke-linejoin:round;}
  </style>
 </defs>
 <g id="figure_1">
  <g id="patch_1">
   <path d="M 0 375.4975 
L 320.619955 375.4975 
L 320.619955 0 
L 0 0 
z
" style="fill:#ffffff;"/>
  </g>
  <g id="axes_1">
   <g id="patch_2">
    <path d="M 33.7 166.383696 
L 312.7 166.383696 
L 312.7 24.575 
L 33.7 24.575 
z
" style="fill:#ffffff;"/>
   </g>
   <g id="matplotlib.axis_1">
    <g id="xtick_1">
     <g id="line2d_1">
      <defs>
       <path d="M 0 0 
L 0 3.5 
" id="m053c7d96eb" style="stroke:#000000;stroke-width:0.8;"/>
      </defs>
      <g>
       <use style="stroke:#000000;stroke-width:0.8;" x="46.381818" xlink:href="#m053c7d96eb" y="166.383696"/>
      </g>
     </g>
     <g id="text_1">
      <!-- 0 -->
      <defs>
       <path d="M 3.125 29.296875 
Q 3.90625 50 6.4375 56.046875 
Q 8.984375 62.109375 13.671875 66.015625 
Q 18.359375 69.921875 25.1875 69.921875 
Q 32.03125 69.921875 37.109375 64.25 
Q 42.1875 58.59375 43.75 50 
Q 45.3125 41.40625 44.71875 30.265625 
Q 44.140625 19.140625 40.8125 12.109375 
Q 37.5 5.078125 30.859375 2.34375 
Q 24.21875 -0.390625 17.578125 2.921875 
Q 10.9375 6.25 8.203125 11.71875 
Q 5.46875 17.1875 4.296875 23.234375 
Q 3.125 29.296875 3.90625 50 
z
M 12.890625 52.734375 
Q 10.546875 31.25 12.5 22.84375 
Q 14.453125 14.453125 18.9375 10.9375 
Q 23.4375 7.421875 28.125 9.5625 
Q 32.8125 11.71875 34.953125 18.15625 
Q 37.109375 24.609375 37.109375 32.21875 
Q 37.109375 39.84375 36.515625 46.09375 
Q 35.9375 52.34375 33 57.421875 
Q 30.078125 62.5 25.1875 62.6875 
Q 20.3125 62.890625 16.59375 57.8125 
Q 12.890625 52.734375 10.546875 31.25 
z
" id="SimHei-48"/>
      </defs>
      <g transform="translate(43.881818 180.258696)scale(0.1 -0.1)">
       <use xlink:href="#SimHei-48"/>
      </g>
     </g>
    </g>
    <g id="xtick_2">
     <g id="line2d_2">
      <g>
       <use style="stroke:#000000;stroke-width:0.8;" x="97.621488" xlink:href="#m053c7d96eb" y="166.383696"/>
      </g>
     </g>
     <g id="text_2">
      <!-- 20 -->
      <defs>
       <path d="M 4.6875 3.90625 
Q 5.078125 9.765625 10.15625 14.453125 
Q 15.234375 19.140625 23.046875 29.09375 
Q 30.859375 39.0625 33.203125 44.53125 
Q 35.546875 50 34.953125 53.90625 
Q 34.375 57.8125 31.25 60.34375 
Q 28.125 62.890625 24.015625 62.5 
Q 19.921875 62.109375 16.203125 59.375 
Q 12.5 56.640625 10.546875 51.171875 
L 3.125 52.34375 
Q 6.25 61.328125 11.125 65.421875 
Q 16.015625 69.53125 22.65625 69.921875 
Q 26.5625 70.3125 29.6875 69.71875 
Q 32.8125 69.140625 36.125 66.984375 
Q 39.453125 64.84375 41.59375 60.546875 
Q 43.75 56.25 43.15625 50.1875 
Q 42.578125 44.140625 37.109375 35.734375 
Q 31.640625 27.34375 16.015625 9.375 
L 44.140625 9.375 
L 44.140625 2.34375 
L 4.6875 2.34375 
z
" id="SimHei-50"/>
      </defs>
      <g transform="translate(92.621488 180.258696)scale(0.1 -0.1)">
       <use xlink:href="#SimHei-50"/>
       <use x="50" xlink:href="#SimHei-48"/>
      </g>
     </g>
    </g>
    <g id="xtick_3">
     <g id="line2d_3">
      <g>
       <use style="stroke:#000000;stroke-width:0.8;" x="148.861157" xlink:href="#m053c7d96eb" y="166.383696"/>
      </g>
     </g>
     <g id="text_3">
      <!-- 40 -->
      <defs>
       <path d="M 31.25 17.1875 
L 1.171875 17.1875 
L 1.171875 23.828125 
L 32.8125 69.53125 
L 38.671875 69.53125 
L 38.671875 23.828125 
L 48.046875 23.828125 
L 48.046875 17.1875 
L 38.671875 17.1875 
L 38.671875 2.34375 
L 31.25 2.34375 
z
M 31.25 23.828125 
L 31.25 54.6875 
L 9.375 23.828125 
z
" id="SimHei-52"/>
      </defs>
      <g transform="translate(143.861157 180.258696)scale(0.1 -0.1)">
       <use xlink:href="#SimHei-52"/>
       <use x="50" xlink:href="#SimHei-48"/>
      </g>
     </g>
    </g>
    <g id="xtick_4">
     <g id="line2d_4">
      <g>
       <use style="stroke:#000000;stroke-width:0.8;" x="200.100826" xlink:href="#m053c7d96eb" y="166.383696"/>
      </g>
     </g>
     <g id="text_4">
      <!-- 60 -->
      <defs>
       <path d="M 3.515625 19.53125 
Q 4.296875 30.859375 6.046875 34.765625 
Q 7.8125 38.671875 11.328125 44.53125 
L 27.34375 69.53125 
L 36.328125 69.53125 
L 19.921875 43.75 
Q 30.46875 46.484375 36.71875 42.96875 
Q 42.96875 39.453125 45.109375 34.953125 
Q 47.265625 30.46875 47.453125 25.1875 
Q 47.65625 19.921875 45.890625 14.84375 
Q 44.140625 9.765625 39.640625 5.65625 
Q 35.15625 1.5625 27.140625 1.171875 
Q 19.140625 0.78125 13.46875 4.09375 
Q 7.8125 7.421875 5.65625 13.46875 
Q 3.515625 19.53125 4.296875 30.859375 
z
M 12.5 16.015625 
Q 19.53125 8.59375 25.390625 8.203125 
Q 31.25 7.8125 35.15625 12.109375 
Q 39.0625 16.40625 39.0625 24.609375 
Q 39.0625 32.8125 34.171875 35.9375 
Q 29.296875 39.0625 23.234375 38.28125 
Q 17.1875 37.5 14.453125 32.421875 
Q 11.71875 27.34375 12.109375 21.671875 
Q 12.5 16.015625 19.53125 8.59375 
z
" id="SimHei-54"/>
      </defs>
      <g transform="translate(195.100826 180.258696)scale(0.1 -0.1)">
       <use xlink:href="#SimHei-54"/>
       <use x="50" xlink:href="#SimHei-48"/>
      </g>
     </g>
    </g>
    <g id="xtick_5">
     <g id="line2d_5">
      <g>
       <use style="stroke:#000000;stroke-width:0.8;" x="251.340496" xlink:href="#m053c7d96eb" y="166.383696"/>
      </g>
     </g>
     <g id="text_5">
      <!-- 80 -->
      <defs>
       <path d="M 2.734375 16.796875 
Q 2.734375 26.171875 5.078125 30.65625 
Q 7.421875 35.15625 12.890625 37.890625 
Q 8.203125 40.625 6.640625 43.9375 
Q 5.078125 47.265625 4.875 51.5625 
Q 4.6875 55.859375 6.046875 58.984375 
Q 7.421875 62.109375 10.15625 64.84375 
Q 12.890625 67.578125 16.203125 68.546875 
Q 19.53125 69.53125 23.4375 69.53125 
Q 27.34375 69.53125 30.46875 68.75 
Q 33.59375 67.96875 37.109375 65.421875 
Q 40.625 62.890625 42.1875 58.203125 
Q 43.75 53.515625 41.984375 47.265625 
Q 40.234375 41.015625 32.8125 37.5 
Q 39.453125 35.546875 42.1875 31.4375 
Q 44.921875 27.34375 44.921875 21.484375 
Q 44.921875 15.625 43.15625 12.109375 
Q 41.40625 8.59375 39.25 6.25 
Q 37.109375 3.90625 33.390625 2.53125 
Q 29.6875 1.171875 24.015625 1.171875 
Q 18.359375 1.171875 14.25 2.53125 
Q 10.15625 3.90625 7.421875 6.640625 
Q 4.6875 9.375 3.703125 13.078125 
Q 2.734375 16.796875 2.734375 26.171875 
z
M 10.9375 26.5625 
Q 10.546875 17.1875 12.296875 13.671875 
Q 14.0625 10.15625 18.75 9.171875 
Q 23.4375 8.203125 28.515625 9.375 
Q 33.59375 10.546875 35.546875 14.84375 
Q 37.5 19.140625 36.90625 23.4375 
Q 36.328125 27.734375 32.03125 30.65625 
Q 27.734375 33.59375 22.65625 33.203125 
Q 17.578125 32.8125 14.25 29.6875 
Q 10.9375 26.5625 10.546875 17.1875 
z
M 12.109375 56.25 
Q 12.109375 48.4375 14.84375 44.921875 
Q 17.578125 41.40625 23.4375 41.40625 
Q 29.296875 41.40625 32.21875 44.921875 
Q 35.15625 48.4375 34.953125 53.3125 
Q 34.765625 58.203125 31.4375 60.546875 
Q 28.125 62.890625 22.453125 62.5 
Q 16.796875 62.109375 14.453125 59.171875 
Q 12.109375 56.25 12.109375 48.4375 
z
" id="SimHei-56"/>
      </defs>
      <g transform="translate(246.340496 180.258696)scale(0.1 -0.1)">
       <use xlink:href="#SimHei-56"/>
       <use x="50" xlink:href="#SimHei-48"/>
      </g>
     </g>
    </g>
    <g id="xtick_6">
     <g id="line2d_6">
      <g>
       <use style="stroke:#000000;stroke-width:0.8;" x="302.580165" xlink:href="#m053c7d96eb" y="166.383696"/>
      </g>
     </g>
     <g id="text_6">
      <!-- 100 -->
      <defs>
       <path d="M 21.875 56.25 
Q 16.796875 51.171875 8.984375 46.484375 
L 8.984375 53.90625 
Q 18.75 60.546875 25 69.53125 
L 29.6875 69.53125 
L 29.6875 2.34375 
L 21.875 2.34375 
z
" id="SimHei-49"/>
      </defs>
      <g transform="translate(295.080165 180.258696)scale(0.1 -0.1)">
       <use xlink:href="#SimHei-49"/>
       <use x="50" xlink:href="#SimHei-48"/>
       <use x="100" xlink:href="#SimHei-48"/>
      </g>
     </g>
    </g>
   </g>
   <g id="matplotlib.axis_2">
    <g id="ytick_1">
     <g id="line2d_7">
      <defs>
       <path d="M 0 0 
L -3.5 0 
" id="ma8f4a631f9" style="stroke:#000000;stroke-width:0.8;"/>
      </defs>
      <g>
       <use style="stroke:#000000;stroke-width:0.8;" x="33.7" xlink:href="#ma8f4a631f9" y="163.860984"/>
      </g>
     </g>
     <g id="text_7">
      <!-- 0 -->
      <g transform="translate(21.7 167.298484)scale(0.1 -0.1)">
       <use xlink:href="#SimHei-48"/>
      </g>
     </g>
    </g>
    <g id="ytick_2">
     <g id="line2d_8">
      <g>
       <use style="stroke:#000000;stroke-width:0.8;" x="33.7" xlink:href="#ma8f4a631f9" y="130.268903"/>
      </g>
     </g>
     <g id="text_8">
      <!-- 20 -->
      <g transform="translate(16.7 133.706403)scale(0.1 -0.1)">
       <use xlink:href="#SimHei-50"/>
       <use x="50" xlink:href="#SimHei-48"/>
      </g>
     </g>
    </g>
    <g id="ytick_3">
     <g id="line2d_9">
      <g>
       <use style="stroke:#000000;stroke-width:0.8;" x="33.7" xlink:href="#ma8f4a631f9" y="96.676822"/>
      </g>
     </g>
     <g id="text_9">
      <!-- 40 -->
      <g transform="translate(16.7 100.114322)scale(0.1 -0.1)">
       <use xlink:href="#SimHei-52"/>
       <use x="50" xlink:href="#SimHei-48"/>
      </g>
     </g>
    </g>
    <g id="ytick_4">
     <g id="line2d_10">
      <g>
       <use style="stroke:#000000;stroke-width:0.8;" x="33.7" xlink:href="#ma8f4a631f9" y="63.084741"/>
      </g>
     </g>
     <g id="text_10">
      <!-- 60 -->
      <g transform="translate(16.7 66.522241)scale(0.1 -0.1)">
       <use xlink:href="#SimHei-54"/>
       <use x="50" xlink:href="#SimHei-48"/>
      </g>
     </g>
    </g>
    <g id="ytick_5">
     <g id="line2d_11">
      <g>
       <use style="stroke:#000000;stroke-width:0.8;" x="33.7" xlink:href="#ma8f4a631f9" y="29.49266"/>
      </g>
     </g>
     <g id="text_11">
      <!-- 80 -->
      <g transform="translate(16.7 32.93016)scale(0.1 -0.1)">
       <use xlink:href="#SimHei-56"/>
       <use x="50" xlink:href="#SimHei-48"/>
      </g>
     </g>
    </g>
   </g>
   <g id="line2d_12">
    <path clip-path="url(#pef9bd901df)" d="M 46.381818 31.02085 
L 48.943802 143.56529 
L 51.505785 157.853566 
L 54.067769 159.667948 
L 56.629752 159.898703 
L 59.191736 159.92838 
L 61.753719 159.9325 
L 64.315702 159.933348 
L 66.877686 159.933755 
L 69.439669 159.934082 
L 72.001653 159.934378 
L 74.563636 159.93465 
L 77.12562 159.9349 
L 79.687603 159.935131 
L 82.249587 159.935344 
L 84.81157 159.93554 
L 87.373554 159.935721 
L 89.935537 159.935887 
L 92.497521 159.936041 
L 95.059504 159.936182 
L 97.621488 159.936313 
L 100.183471 159.936433 
L 102.745455 159.936544 
L 105.307438 159.936646 
L 107.869421 159.93674 
L 110.431405 159.936827 
L 112.993388 159.936908 
L 115.555372 159.936981 
L 118.117355 159.937049 
L 120.679339 159.937111 
L 123.241322 159.937169 
L 125.803306 159.937222 
L 128.365289 159.937271 
L 130.927273 159.937316 
L 133.489256 159.937358 
L 136.05124 159.937397 
L 138.613223 159.937432 
L 141.175207 159.937464 
L 143.73719 159.937495 
L 146.299174 159.937522 
L 148.861157 159.937548 
L 151.42314 159.937572 
L 153.985124 159.937593 
L 156.547107 159.937613 
L 159.109091 159.937631 
L 161.671074 159.937648 
L 164.233058 159.937664 
L 166.795041 159.937678 
L 169.357025 159.937692 
L 171.919008 159.937704 
L 174.480992 159.937715 
L 177.042975 159.937725 
L 179.604959 159.937735 
L 182.166942 159.937744 
L 184.728926 159.937752 
L 187.290909 159.93776 
L 189.852893 159.937767 
L 192.414876 159.937773 
L 194.97686 159.937779 
L 197.538843 159.937785 
L 200.100826 159.937789 
L 202.66281 159.937794 
L 205.224793 159.937798 
L 207.786777 159.937802 
L 210.34876 159.937806 
L 212.910744 159.937809 
L 215.472727 159.937812 
L 218.034711 159.937815 
L 220.596694 159.937817 
L 223.158678 159.93782 
L 225.720661 159.937822 
L 228.282645 159.937824 
L 230.844628 159.937826 
L 233.406612 159.937828 
L 235.968595 159.937829 
L 238.530579 159.937831 
L 241.092562 159.937832 
L 243.654545 159.937834 
L 246.216529 159.937834 
L 248.778512 159.937836 
L 251.340496 159.937837 
L 253.902479 159.937837 
L 256.464463 159.937839 
L 259.026446 159.937839 
L 261.58843 159.93784 
L 264.150413 159.937841 
L 266.712397 159.937841 
L 269.27438 159.937842 
L 271.836364 159.937843 
L 274.398347 159.937843 
L 276.960331 159.937843 
L 279.522314 159.937843 
L 282.084298 159.937843 
L 284.646281 159.937844 
L 287.208264 159.937845 
L 289.770248 159.937845 
L 292.332231 159.937845 
L 294.894215 159.937845 
L 297.456198 159.937845 
L 300.018182 159.937846 
" style="fill:none;stroke:#1f77b4;stroke-linecap:square;stroke-width:2;"/>
   </g>
   <g id="patch_3">
    <path d="M 33.7 166.383696 
L 33.7 24.575 
" style="fill:none;stroke:#000000;stroke-linecap:square;stroke-linejoin:miter;stroke-width:0.8;"/>
   </g>
   <g id="patch_4">
    <path d="M 312.7 166.383696 
L 312.7 24.575 
" style="fill:none;"/>
   </g>
   <g id="patch_5">
    <path d="M 33.7 166.383696 
L 312.7 166.383696 
" style="fill:none;stroke:#000000;stroke-linecap:square;stroke-linejoin:miter;stroke-width:0.8;"/>
   </g>
   <g id="patch_6">
    <path d="M 33.7 24.575 
L 312.7 24.575 
" style="fill:none;"/>
   </g>
   <g id="text_12">
    <!-- 损失曲线 -->
    <defs>
     <path d="M 18.359375 71.875 
Q 18.359375 77.34375 17.96875 82.03125 
L 26.171875 82.03125 
Q 25.78125 77.734375 25.78125 71.875 
L 25.78125 63.671875 
Q 30.46875 63.671875 36.328125 64.0625 
L 36.328125 56.640625 
Q 30.46875 57.03125 25.78125 57.03125 
L 25.78125 39.0625 
Q 29.296875 39.84375 35.546875 42.96875 
Q 35.546875 39.84375 35.9375 35.9375 
Q 31.640625 34.375 25.78125 31.640625 
L 25.78125 2.734375 
Q 25.78125 -3.515625 22.265625 -5.078125 
Q 18.75 -6.640625 9.765625 -7.8125 
Q 9.375 -3.90625 7.03125 0.78125 
Q 12.5 0.390625 15.421875 0.578125 
Q 18.359375 0.78125 18.359375 5.46875 
L 18.359375 28.90625 
Q 10.546875 26.171875 6.25 23.4375 
Q 5.859375 28.125 3.90625 32.8125 
Q 9.375 33.59375 18.359375 36.71875 
L 18.359375 57.03125 
Q 10.15625 57.03125 5.078125 56.640625 
L 5.078125 64.0625 
Q 9.765625 63.671875 18.359375 63.671875 
z
M 86.71875 78.515625 
Q 86.328125 72.65625 86.328125 66.796875 
Q 86.328125 61.328125 86.71875 55.078125 
L 45.3125 55.078125 
Q 45.703125 61.328125 45.703125 66.796875 
Q 45.703125 72.65625 45.3125 78.515625 
L 86.71875 78.515625 
z
M 90.234375 48.046875 
Q 89.84375 42.578125 89.84375 36.71875 
L 89.84375 26.953125 
Q 89.84375 21.09375 90.234375 13.671875 
L 82.421875 13.671875 
L 82.421875 41.40625 
L 49.21875 41.40625 
L 49.21875 13.28125 
L 41.40625 13.28125 
Q 41.796875 19.921875 41.796875 26.5625 
L 41.796875 36.328125 
Q 41.796875 40.625 41.40625 48.046875 
L 90.234375 48.046875 
z
M 70.703125 34.375 
Q 69.140625 28.515625 68.15625 20.890625 
Q 67.1875 13.28125 64.453125 8.390625 
Q 61.71875 3.515625 56.25 -0.96875 
Q 50.78125 -5.46875 37.890625 -10.15625 
Q 36.328125 -7.03125 32.03125 -2.734375 
Q 42.96875 -0.78125 49.015625 3.125 
Q 55.078125 7.03125 57.8125 11.90625 
Q 60.546875 16.796875 60.9375 22.84375 
Q 61.328125 28.90625 61.328125 35.546875 
Q 66.015625 34.765625 70.703125 34.375 
z
M 79.6875 61.328125 
L 79.6875 72.65625 
L 52.734375 72.65625 
L 52.734375 61.328125 
z
M 73.046875 11.71875 
Q 77.734375 8.984375 84.5625 5.265625 
Q 91.40625 1.5625 96.484375 -1.953125 
Q 93.359375 -5.078125 91.40625 -8.59375 
Q 86.328125 -4.6875 81.25 -1.359375 
Q 76.171875 1.953125 68.359375 5.46875 
Q 71.09375 8.59375 73.046875 11.71875 
z
" id="SimHei-25439"/>
     <path d="M 32.03125 69.53125 
Q 30.078125 67.578125 26.171875 58.59375 
L 46.09375 58.59375 
Q 46.09375 72.65625 45.703125 79.6875 
Q 49.609375 79.296875 54.6875 78.90625 
Q 53.90625 73.4375 53.703125 69.140625 
Q 53.515625 64.84375 53.515625 58.59375 
L 71.875 58.59375 
Q 78.125 58.59375 84.765625 58.984375 
L 84.765625 51.5625 
Q 78.515625 51.953125 71.875 51.953125 
L 53.515625 51.953125 
Q 53.515625 43.359375 52.734375 34.375 
L 78.90625 34.375 
Q 84.765625 34.375 91.796875 34.765625 
L 91.796875 27.34375 
Q 84.765625 27.734375 78.90625 27.734375 
L 55.859375 27.734375 
Q 60.546875 17.1875 71.875 10.546875 
Q 83.203125 3.90625 94.140625 1.5625 
Q 91.015625 -2.34375 88.671875 -7.421875 
Q 77.34375 -3.125 66.40625 4.484375 
Q 55.46875 12.109375 50 23.046875 
Q 45.3125 12.890625 36.328125 4.6875 
Q 27.34375 -3.515625 12.109375 -10.15625 
Q 10.15625 -6.25 6.25 -2.734375 
Q 19.53125 0.78125 29.875 9.171875 
Q 40.234375 17.578125 43.359375 27.734375 
L 20.703125 27.734375 
Q 14.453125 27.734375 7.03125 27.34375 
L 7.03125 34.765625 
Q 14.453125 34.375 20.703125 34.375 
L 44.921875 34.375 
Q 46.09375 42.578125 46.09375 51.953125 
L 23.4375 51.953125 
Q 18.75 43.75 15.234375 38.28125 
Q 12.109375 40.234375 7.8125 41.796875 
Q 14.84375 50.390625 18.546875 58.59375 
Q 22.265625 66.796875 23.4375 73.046875 
Q 28.125 70.703125 32.03125 69.53125 
z
" id="SimHei-22833"/>
     <path d="M 91.015625 7.8125 
Q 91.015625 -3.125 91.40625 -8.59375 
L 82.421875 -8.59375 
L 82.421875 -0.78125 
L 17.96875 -0.78125 
L 17.96875 -8.59375 
L 8.984375 -8.59375 
Q 9.375 1.953125 9.375 8.59375 
L 9.375 43.359375 
Q 9.375 53.515625 8.984375 60.9375 
L 33.59375 60.9375 
L 33.59375 69.53125 
Q 33.203125 75.78125 33.203125 80.46875 
L 42.1875 80.46875 
Q 41.40625 75.390625 41.40625 69.921875 
L 41.40625 60.9375 
L 57.8125 60.9375 
L 57.8125 70.703125 
Q 57.8125 75.78125 57.421875 80.859375 
L 66.40625 80.859375 
Q 66.015625 76.171875 66.015625 71.09375 
L 66.015625 60.9375 
L 91.40625 60.9375 
Q 91.015625 55.078125 91.015625 42.96875 
z
M 57.8125 5.078125 
L 57.8125 29.296875 
L 41.40625 29.296875 
L 41.40625 5.078125 
z
M 82.421875 5.078125 
L 82.421875 29.296875 
L 66.015625 29.296875 
L 66.015625 5.078125 
z
M 33.59375 5.078125 
L 33.59375 29.296875 
L 17.96875 29.296875 
L 17.96875 5.078125 
z
M 57.8125 35.15625 
L 57.8125 55.078125 
L 41.40625 55.078125 
L 41.40625 35.15625 
z
M 82.421875 35.15625 
L 82.421875 55.078125 
L 66.015625 55.078125 
L 66.015625 35.15625 
z
M 33.59375 35.15625 
L 33.59375 55.078125 
L 17.96875 55.078125 
L 17.96875 35.15625 
z
" id="SimHei-26354"/>
     <path d="M 53.90625 67.1875 
Q 53.90625 73.046875 52.734375 80.078125 
Q 57.8125 79.6875 63.28125 78.90625 
Q 62.109375 76.5625 61.71875 71.28125 
Q 61.328125 66.015625 61.71875 56.25 
L 75 58.59375 
Q 81.640625 60.15625 88.28125 62.109375 
L 89.84375 54.6875 
Q 83.203125 53.90625 76.171875 52.734375 
L 62.109375 50 
Q 62.109375 43.75 62.890625 39.0625 
L 78.125 41.796875 
Q 85.9375 43.359375 92.96875 45.703125 
L 94.140625 38.28125 
Q 87.109375 37.109375 79.296875 35.546875 
L 64.0625 32.8125 
Q 64.84375 25 67.96875 18.359375 
Q 71.484375 21.09375 74.796875 24.609375 
Q 78.125 28.125 80.859375 32.421875 
Q 86.71875 27.734375 89.84375 26.171875 
Q 84.765625 23.828125 81.828125 20.890625 
Q 78.90625 17.96875 72.265625 11.71875 
Q 76.953125 3.90625 80.65625 1.75 
Q 84.375 -0.390625 85.9375 1.5625 
Q 87.5 3.515625 88.671875 9.765625 
Q 92.1875 7.03125 96.875 5.46875 
Q 90.234375 -11.71875 82.421875 -8.390625 
Q 74.609375 -5.078125 66.015625 7.03125 
Q 60.546875 2.734375 55.265625 -0.96875 
Q 50 -4.6875 42.1875 -8.59375 
Q 40.234375 -4.6875 36.328125 -1.5625 
Q 44.140625 1.171875 49.609375 4.296875 
Q 55.078125 7.421875 62.109375 13.28125 
Q 58.59375 21.09375 57.03125 31.640625 
Q 45.3125 29.6875 40.625 28.125 
L 39.453125 35.546875 
Q 44.140625 35.546875 55.46875 37.890625 
Q 54.6875 44.140625 54.6875 48.4375 
Q 44.140625 46.09375 40.234375 44.921875 
L 38.671875 52.34375 
Q 42.578125 52.34375 53.90625 54.6875 
z
M 30.46875 76.171875 
Q 26.5625 72.65625 22.84375 66.203125 
Q 19.140625 59.765625 12.890625 50.390625 
Q 22.265625 50.78125 25.78125 50.78125 
Q 29.296875 56.640625 32.03125 63.671875 
Q 35.9375 60.9375 40.625 59.375 
Q 36.71875 55.46875 32.609375 48.828125 
Q 28.515625 42.1875 18.359375 26.171875 
Q 28.90625 26.953125 37.109375 27.734375 
Q 35.9375 23.828125 35.9375 21.09375 
Q 33.203125 21.09375 23.828125 20.109375 
Q 14.453125 19.140625 8.59375 17.578125 
Q 8.203125 21.484375 6.25 25.78125 
Q 10.9375 26.953125 14.84375 32.03125 
Q 18.75 37.109375 23.046875 44.921875 
Q 10.15625 44.140625 6.640625 41.796875 
Q 5.46875 46.09375 3.125 50.390625 
Q 8.203125 53.90625 12.890625 61.90625 
Q 17.578125 69.921875 21.484375 80.46875 
Q 25.390625 77.734375 30.46875 76.171875 
z
M 40.234375 13.671875 
Q 39.84375 9.375 40.234375 7.03125 
Q 30.46875 5.078125 22.65625 3.125 
Q 14.84375 1.171875 8.203125 -1.171875 
Q 7.03125 3.125 3.90625 7.421875 
Q 14.84375 8.59375 20.703125 9.5625 
Q 26.5625 10.546875 40.234375 13.671875 
z
M 75.78125 62.890625 
Q 73.046875 67.1875 68.359375 73.046875 
L 74.609375 76.171875 
Q 76.171875 74.21875 82.421875 66.796875 
Q 78.515625 65.234375 75.78125 62.890625 
z
" id="SimHei-32447"/>
    </defs>
    <g transform="translate(145.2 18.575)scale(0.14 -0.14)">
     <use xlink:href="#SimHei-25439"/>
     <use x="100" xlink:href="#SimHei-22833"/>
     <use x="200" xlink:href="#SimHei-26354"/>
     <use x="300" xlink:href="#SimHei-32447"/>
    </g>
   </g>
  </g>
  <g id="axes_2">
   <g id="patch_7">
    <path d="M 33.7 350.735 
L 312.7 350.735 
L 312.7 208.926304 
L 33.7 208.926304 
z
" style="fill:#ffffff;"/>
   </g>
   <g id="matplotlib.axis_3">
    <g id="xtick_7">
     <g id="line2d_13">
      <g>
       <use style="stroke:#000000;stroke-width:0.8;" x="46.332753" xlink:href="#m053c7d96eb" y="350.735"/>
      </g>
     </g>
     <g id="text_13">
      <!-- -10.0 -->
      <defs>
       <path d="M 46.484375 33.203125 
L 1.953125 33.203125 
L 1.953125 39.453125 
L 46.484375 39.453125 
z
" id="SimHei-45"/>
       <path d="M 16.796875 1.953125 
L 7.8125 1.953125 
L 7.8125 10.546875 
L 16.796875 10.546875 
z
" id="SimHei-46"/>
      </defs>
      <g transform="translate(30.082753 366.6725)scale(0.13 -0.13)">
       <use xlink:href="#SimHei-45"/>
       <use x="50" xlink:href="#SimHei-49"/>
       <use x="100" xlink:href="#SimHei-48"/>
       <use x="150" xlink:href="#SimHei-46"/>
       <use x="200" xlink:href="#SimHei-48"/>
      </g>
     </g>
    </g>
    <g id="xtick_8">
     <g id="line2d_14">
      <g>
       <use style="stroke:#000000;stroke-width:0.8;" x="78.093653" xlink:href="#m053c7d96eb" y="350.735"/>
      </g>
     </g>
     <g id="text_14">
      <!-- -7.5 -->
      <defs>
       <path d="M 13.28125 2.34375 
Q 20.3125 32.03125 37.890625 61.328125 
L 4.296875 61.328125 
L 4.296875 68.359375 
L 46.09375 68.359375 
L 46.09375 61.71875 
Q 27.734375 32.03125 21.875 2.34375 
L 13.28125 2.34375 
z
" id="SimHei-55"/>
       <path d="M 8.59375 20.703125 
Q 11.328125 10.15625 17.96875 8.984375 
Q 24.609375 7.8125 28.703125 10.34375 
Q 32.8125 12.890625 34.5625 16.984375 
Q 36.328125 21.09375 36.125 26.171875 
Q 35.9375 31.25 33.390625 34.765625 
Q 30.859375 38.28125 26.953125 39.453125 
Q 23.046875 40.625 18.15625 39.453125 
Q 13.28125 38.28125 10.15625 33.984375 
L 3.515625 34.765625 
Q 4.296875 37.109375 10.9375 68.359375 
L 41.796875 68.359375 
L 41.796875 61.328125 
L 16.796875 61.328125 
Q 14.84375 50.78125 12.890625 44.53125 
Q 18.75 47.265625 23.828125 47.0625 
Q 28.90625 46.875 33.59375 44.71875 
Q 38.28125 42.578125 40.421875 38.859375 
Q 42.578125 35.15625 43.546875 31.4375 
Q 44.53125 27.734375 44.328125 23.4375 
Q 44.140625 19.140625 42.578125 14.640625 
Q 41.015625 10.15625 37.890625 7.21875 
Q 34.765625 4.296875 30.265625 2.53125 
Q 25.78125 0.78125 19.921875 1.171875 
Q 14.0625 1.5625 8.78125 5.46875 
Q 3.515625 9.375 1.5625 18.75 
z
" id="SimHei-53"/>
      </defs>
      <g transform="translate(65.093653 366.6725)scale(0.13 -0.13)">
       <use xlink:href="#SimHei-45"/>
       <use x="50" xlink:href="#SimHei-55"/>
       <use x="100" xlink:href="#SimHei-46"/>
       <use x="150" xlink:href="#SimHei-53"/>
      </g>
     </g>
    </g>
    <g id="xtick_9">
     <g id="line2d_15">
      <g>
       <use style="stroke:#000000;stroke-width:0.8;" x="109.854554" xlink:href="#m053c7d96eb" y="350.735"/>
      </g>
     </g>
     <g id="text_15">
      <!-- -5.0 -->
      <g transform="translate(96.854554 366.6725)scale(0.13 -0.13)">
       <use xlink:href="#SimHei-45"/>
       <use x="50" xlink:href="#SimHei-53"/>
       <use x="100" xlink:href="#SimHei-46"/>
       <use x="150" xlink:href="#SimHei-48"/>
      </g>
     </g>
    </g>
    <g id="xtick_10">
     <g id="line2d_16">
      <g>
       <use style="stroke:#000000;stroke-width:0.8;" x="141.615454" xlink:href="#m053c7d96eb" y="350.735"/>
      </g>
     </g>
     <g id="text_16">
      <!-- -2.5 -->
      <g transform="translate(128.615454 366.6725)scale(0.13 -0.13)">
       <use xlink:href="#SimHei-45"/>
       <use x="50" xlink:href="#SimHei-50"/>
       <use x="100" xlink:href="#SimHei-46"/>
       <use x="150" xlink:href="#SimHei-53"/>
      </g>
     </g>
    </g>
    <g id="xtick_11">
     <g id="line2d_17">
      <g>
       <use style="stroke:#000000;stroke-width:0.8;" x="173.376354" xlink:href="#m053c7d96eb" y="350.735"/>
      </g>
     </g>
     <g id="text_17">
      <!-- 0.0 -->
      <g transform="translate(163.626354 366.6725)scale(0.13 -0.13)">
       <use xlink:href="#SimHei-48"/>
       <use x="50" xlink:href="#SimHei-46"/>
       <use x="100" xlink:href="#SimHei-48"/>
      </g>
     </g>
    </g>
    <g id="xtick_12">
     <g id="line2d_18">
      <g>
       <use style="stroke:#000000;stroke-width:0.8;" x="205.137254" xlink:href="#m053c7d96eb" y="350.735"/>
      </g>
     </g>
     <g id="text_18">
      <!-- 2.5 -->
      <g transform="translate(195.387254 366.6725)scale(0.13 -0.13)">
       <use xlink:href="#SimHei-50"/>
       <use x="50" xlink:href="#SimHei-46"/>
       <use x="100" xlink:href="#SimHei-53"/>
      </g>
     </g>
    </g>
    <g id="xtick_13">
     <g id="line2d_19">
      <g>
       <use style="stroke:#000000;stroke-width:0.8;" x="236.898155" xlink:href="#m053c7d96eb" y="350.735"/>
      </g>
     </g>
     <g id="text_19">
      <!-- 5.0 -->
      <g transform="translate(227.148155 366.6725)scale(0.13 -0.13)">
       <use xlink:href="#SimHei-53"/>
       <use x="50" xlink:href="#SimHei-46"/>
       <use x="100" xlink:href="#SimHei-48"/>
      </g>
     </g>
    </g>
    <g id="xtick_14">
     <g id="line2d_20">
      <g>
       <use style="stroke:#000000;stroke-width:0.8;" x="268.659055" xlink:href="#m053c7d96eb" y="350.735"/>
      </g>
     </g>
     <g id="text_20">
      <!-- 7.5 -->
      <g transform="translate(258.909055 366.6725)scale(0.13 -0.13)">
       <use xlink:href="#SimHei-55"/>
       <use x="50" xlink:href="#SimHei-46"/>
       <use x="100" xlink:href="#SimHei-53"/>
      </g>
     </g>
    </g>
    <g id="xtick_15">
     <g id="line2d_21">
      <g>
       <use style="stroke:#000000;stroke-width:0.8;" x="300.419955" xlink:href="#m053c7d96eb" y="350.735"/>
      </g>
     </g>
     <g id="text_21">
      <!-- 10.0 -->
      <g transform="translate(287.419955 366.6725)scale(0.13 -0.13)">
       <use xlink:href="#SimHei-49"/>
       <use x="50" xlink:href="#SimHei-48"/>
       <use x="100" xlink:href="#SimHei-46"/>
       <use x="150" xlink:href="#SimHei-48"/>
      </g>
     </g>
    </g>
   </g>
   <g id="matplotlib.axis_4">
    <g id="ytick_6">
     <g id="line2d_22">
      <g>
       <use style="stroke:#000000;stroke-width:0.8;" x="33.7" xlink:href="#ma8f4a631f9" y="320.239653"/>
      </g>
     </g>
     <g id="text_22">
      <!-- -10 -->
      <g transform="translate(7.2 324.708403)scale(0.13 -0.13)">
       <use xlink:href="#SimHei-45"/>
       <use x="50" xlink:href="#SimHei-49"/>
       <use x="100" xlink:href="#SimHei-48"/>
      </g>
     </g>
    </g>
    <g id="ytick_7">
     <g id="line2d_23">
      <g>
       <use style="stroke:#000000;stroke-width:0.8;" x="33.7" xlink:href="#ma8f4a631f9" y="280.391939"/>
      </g>
     </g>
     <g id="text_23">
      <!-- 0 -->
      <g transform="translate(20.2 284.860689)scale(0.13 -0.13)">
       <use xlink:href="#SimHei-48"/>
      </g>
     </g>
    </g>
    <g id="ytick_8">
     <g id="line2d_24">
      <g>
       <use style="stroke:#000000;stroke-width:0.8;" x="33.7" xlink:href="#ma8f4a631f9" y="240.544225"/>
      </g>
     </g>
     <g id="text_24">
      <!-- 10 -->
      <g transform="translate(13.7 245.012975)scale(0.13 -0.13)">
       <use xlink:href="#SimHei-49"/>
       <use x="50" xlink:href="#SimHei-48"/>
      </g>
     </g>
    </g>
   </g>
   <g id="line2d_25">
    <defs>
     <path d="M 0 3 
C 0.795609 3 1.55874 2.683901 2.12132 2.12132 
C 2.683901 1.55874 3 0.795609 3 0 
C 3 -0.795609 2.683901 -1.55874 2.12132 -2.12132 
C 1.55874 -2.683901 0.795609 -3 0 -3 
C -0.795609 -3 -1.55874 -2.683901 -2.12132 -2.12132 
C -2.683901 -1.55874 -3 -0.795609 -3 0 
C -3 0.795609 -2.683901 1.55874 -2.12132 2.12132 
C -1.55874 2.683901 -0.795609 3 0 3 
z
" id="m3b51763b4e" style="stroke:#1f77b4;"/>
    </defs>
    <g clip-path="url(#p1347ba1fcf)">
     <use style="fill:#1f77b4;stroke:#1f77b4;" x="267.836323" xlink:href="#m3b51763b4e" y="238.725246"/>
     <use style="fill:#1f77b4;stroke:#1f77b4;" x="170.002288" xlink:href="#m3b51763b4e" y="280.613038"/>
     <use style="fill:#1f77b4;stroke:#1f77b4;" x="195.795842" xlink:href="#m3b51763b4e" y="267.008707"/>
     <use style="fill:#1f77b4;stroke:#1f77b4;" x="285.75794" xlink:href="#m3b51763b4e" y="222.766372"/>
     <use style="fill:#1f77b4;stroke:#1f77b4;" x="195.139896" xlink:href="#m3b51763b4e" y="272.168377"/>
     <use style="fill:#1f77b4;stroke:#1f77b4;" x="228.02171" xlink:href="#m3b51763b4e" y="256.458188"/>
     <use style="fill:#1f77b4;stroke:#1f77b4;" x="222.055634" xlink:href="#m3b51763b4e" y="251.563913"/>
     <use style="fill:#1f77b4;stroke:#1f77b4;" x="216.647087" xlink:href="#m3b51763b4e" y="262.62683"/>
     <use style="fill:#1f77b4;stroke:#1f77b4;" x="71.651686" xlink:href="#m3b51763b4e" y="319.618142"/>
     <use style="fill:#1f77b4;stroke:#1f77b4;" x="279.640116" xlink:href="#m3b51763b4e" y="229.477019"/>
     <use style="fill:#1f77b4;stroke:#1f77b4;" x="93.703422" xlink:href="#m3b51763b4e" y="306.272581"/>
     <use style="fill:#1f77b4;stroke:#1f77b4;" x="144.736764" xlink:href="#m3b51763b4e" y="298.664438"/>
     <use style="fill:#1f77b4;stroke:#1f77b4;" x="213.690679" xlink:href="#m3b51763b4e" y="262.447929"/>
     <use style="fill:#1f77b4;stroke:#1f77b4;" x="69.144257" xlink:href="#m3b51763b4e" y="328.697091"/>
     <use style="fill:#1f77b4;stroke:#1f77b4;" x="265.221421" xlink:href="#m3b51763b4e" y="237.240184"/>
     <use style="fill:#1f77b4;stroke:#1f77b4;" x="274.962615" xlink:href="#m3b51763b4e" y="233.177194"/>
     <use style="fill:#1f77b4;stroke:#1f77b4;" x="83.116985" xlink:href="#m3b51763b4e" y="323.053535"/>
     <use style="fill:#1f77b4;stroke:#1f77b4;" x="103.913246" xlink:href="#m3b51763b4e" y="313.052832"/>
     <use style="fill:#1f77b4;stroke:#1f77b4;" x="46.381818" xlink:href="#m3b51763b4e" y="344.28915"/>
     <use style="fill:#1f77b4;stroke:#1f77b4;" x="213.717474" xlink:href="#m3b51763b4e" y="247.994965"/>
     <use style="fill:#1f77b4;stroke:#1f77b4;" x="209.376278" xlink:href="#m3b51763b4e" y="251.54937"/>
     <use style="fill:#1f77b4;stroke:#1f77b4;" x="86.442274" xlink:href="#m3b51763b4e" y="322.436827"/>
     <use style="fill:#1f77b4;stroke:#1f77b4;" x="298.742493" xlink:href="#m3b51763b4e" y="223.407682"/>
     <use style="fill:#1f77b4;stroke:#1f77b4;" x="212.411007" xlink:href="#m3b51763b4e" y="254.325414"/>
     <use style="fill:#1f77b4;stroke:#1f77b4;" x="127.076058" xlink:href="#m3b51763b4e" y="307.571126"/>
     <use style="fill:#1f77b4;stroke:#1f77b4;" x="182.28507" xlink:href="#m3b51763b4e" y="275.043156"/>
     <use style="fill:#1f77b4;stroke:#1f77b4;" x="254.212278" xlink:href="#m3b51763b4e" y="240.693807"/>
     <use style="fill:#1f77b4;stroke:#1f77b4;" x="140.621307" xlink:href="#m3b51763b4e" y="298.145163"/>
     <use style="fill:#1f77b4;stroke:#1f77b4;" x="139.651481" xlink:href="#m3b51763b4e" y="290.018992"/>
     <use style="fill:#1f77b4;stroke:#1f77b4;" x="294.366812" xlink:href="#m3b51763b4e" y="231.013733"/>
     <use style="fill:#1f77b4;stroke:#1f77b4;" x="200.625371" xlink:href="#m3b51763b4e" y="274.943093"/>
     <use style="fill:#1f77b4;stroke:#1f77b4;" x="159.433757" xlink:href="#m3b51763b4e" y="289.86115"/>
     <use style="fill:#1f77b4;stroke:#1f77b4;" x="66.922148" xlink:href="#m3b51763b4e" y="326.656175"/>
     <use style="fill:#1f77b4;stroke:#1f77b4;" x="175.417239" xlink:href="#m3b51763b4e" y="284.898955"/>
     <use style="fill:#1f77b4;stroke:#1f77b4;" x="115.355517" xlink:href="#m3b51763b4e" y="300.353354"/>
     <use style="fill:#1f77b4;stroke:#1f77b4;" x="269.075691" xlink:href="#m3b51763b4e" y="239.038542"/>
     <use style="fill:#1f77b4;stroke:#1f77b4;" x="270.702892" xlink:href="#m3b51763b4e" y="232.806232"/>
     <use style="fill:#1f77b4;stroke:#1f77b4;" x="268.41393" xlink:href="#m3b51763b4e" y="231.694924"/>
     <use style="fill:#1f77b4;stroke:#1f77b4;" x="137.677127" xlink:href="#m3b51763b4e" y="290.814938"/>
     <use style="fill:#1f77b4;stroke:#1f77b4;" x="274.974487" xlink:href="#m3b51763b4e" y="235.798183"/>
     <use style="fill:#1f77b4;stroke:#1f77b4;" x="260.022622" xlink:href="#m3b51763b4e" y="238.669554"/>
     <use style="fill:#1f77b4;stroke:#1f77b4;" x="165.919591" xlink:href="#m3b51763b4e" y="278.903243"/>
     <use style="fill:#1f77b4;stroke:#1f77b4;" x="234.812957" xlink:href="#m3b51763b4e" y="250.868357"/>
     <use style="fill:#1f77b4;stroke:#1f77b4;" x="184.370266" xlink:href="#m3b51763b4e" y="284.427441"/>
     <use style="fill:#1f77b4;stroke:#1f77b4;" x="149.830176" xlink:href="#m3b51763b4e" y="289.01507"/>
     <use style="fill:#1f77b4;stroke:#1f77b4;" x="284.912343" xlink:href="#m3b51763b4e" y="229.646917"/>
     <use style="fill:#1f77b4;stroke:#1f77b4;" x="246.023533" xlink:href="#m3b51763b4e" y="236.468763"/>
     <use style="fill:#1f77b4;stroke:#1f77b4;" x="51.050785" xlink:href="#m3b51763b4e" y="334.828352"/>
     <use style="fill:#1f77b4;stroke:#1f77b4;" x="59.83455" xlink:href="#m3b51763b4e" y="339.450905"/>
     <use style="fill:#1f77b4;stroke:#1f77b4;" x="258.095361" xlink:href="#m3b51763b4e" y="245.955252"/>
     <use style="fill:#1f77b4;stroke:#1f77b4;" x="98.299466" xlink:href="#m3b51763b4e" y="330.001001"/>
     <use style="fill:#1f77b4;stroke:#1f77b4;" x="83.625236" xlink:href="#m3b51763b4e" y="318.171159"/>
     <use style="fill:#1f77b4;stroke:#1f77b4;" x="148.32522" xlink:href="#m3b51763b4e" y="294.358481"/>
     <use style="fill:#1f77b4;stroke:#1f77b4;" x="133.14333" xlink:href="#m3b51763b4e" y="299.61578"/>
     <use style="fill:#1f77b4;stroke:#1f77b4;" x="101.13019" xlink:href="#m3b51763b4e" y="308.171993"/>
     <use style="fill:#1f77b4;stroke:#1f77b4;" x="208.908094" xlink:href="#m3b51763b4e" y="255.367016"/>
     <use style="fill:#1f77b4;stroke:#1f77b4;" x="65.287204" xlink:href="#m3b51763b4e" y="328.640539"/>
     <use style="fill:#1f77b4;stroke:#1f77b4;" x="88.885702" xlink:href="#m3b51763b4e" y="324.313716"/>
     <use style="fill:#1f77b4;stroke:#1f77b4;" x="88.864987" xlink:href="#m3b51763b4e" y="309.846219"/>
     <use style="fill:#1f77b4;stroke:#1f77b4;" x="146.775756" xlink:href="#m3b51763b4e" y="282.57188"/>
     <use style="fill:#1f77b4;stroke:#1f77b4;" x="214.143533" xlink:href="#m3b51763b4e" y="264.215185"/>
     <use style="fill:#1f77b4;stroke:#1f77b4;" x="99.759285" xlink:href="#m3b51763b4e" y="319.391261"/>
     <use style="fill:#1f77b4;stroke:#1f77b4;" x="138.848241" xlink:href="#m3b51763b4e" y="290.484433"/>
     <use style="fill:#1f77b4;stroke:#1f77b4;" x="285.619412" xlink:href="#m3b51763b4e" y="215.372154"/>
     <use style="fill:#1f77b4;stroke:#1f77b4;" x="96.401277" xlink:href="#m3b51763b4e" y="308.993101"/>
     <use style="fill:#1f77b4;stroke:#1f77b4;" x="152.236447" xlink:href="#m3b51763b4e" y="301.711831"/>
     <use style="fill:#1f77b4;stroke:#1f77b4;" x="120.302127" xlink:href="#m3b51763b4e" y="305.35108"/>
     <use style="fill:#1f77b4;stroke:#1f77b4;" x="146.741181" xlink:href="#m3b51763b4e" y="297.608546"/>
     <use style="fill:#1f77b4;stroke:#1f77b4;" x="49.37426" xlink:href="#m3b51763b4e" y="334.462003"/>
     <use style="fill:#1f77b4;stroke:#1f77b4;" x="200.640024" xlink:href="#m3b51763b4e" y="274.065775"/>
     <use style="fill:#1f77b4;stroke:#1f77b4;" x="253.608439" xlink:href="#m3b51763b4e" y="246.76292"/>
     <use style="fill:#1f77b4;stroke:#1f77b4;" x="174.5738" xlink:href="#m3b51763b4e" y="270.877054"/>
     <use style="fill:#1f77b4;stroke:#1f77b4;" x="84.966055" xlink:href="#m3b51763b4e" y="319.196146"/>
     <use style="fill:#1f77b4;stroke:#1f77b4;" x="77.974711" xlink:href="#m3b51763b4e" y="341.701459"/>
     <use style="fill:#1f77b4;stroke:#1f77b4;" x="243.524529" xlink:href="#m3b51763b4e" y="241.652305"/>
     <use style="fill:#1f77b4;stroke:#1f77b4;" x="81.268678" xlink:href="#m3b51763b4e" y="323.148965"/>
     <use style="fill:#1f77b4;stroke:#1f77b4;" x="132.579987" xlink:href="#m3b51763b4e" y="297.766447"/>
     <use style="fill:#1f77b4;stroke:#1f77b4;" x="62.136631" xlink:href="#m3b51763b4e" y="341.485043"/>
     <use style="fill:#1f77b4;stroke:#1f77b4;" x="124.154968" xlink:href="#m3b51763b4e" y="315.442697"/>
     <use style="fill:#1f77b4;stroke:#1f77b4;" x="284.911539" xlink:href="#m3b51763b4e" y="234.87626"/>
     <use style="fill:#1f77b4;stroke:#1f77b4;" x="182.13595" xlink:href="#m3b51763b4e" y="290.815977"/>
     <use style="fill:#1f77b4;stroke:#1f77b4;" x="72.376617" xlink:href="#m3b51763b4e" y="330.827954"/>
     <use style="fill:#1f77b4;stroke:#1f77b4;" x="300.018182" xlink:href="#m3b51763b4e" y="217.004633"/>
     <use style="fill:#1f77b4;stroke:#1f77b4;" x="200.352113" xlink:href="#m3b51763b4e" y="276.261476"/>
     <use style="fill:#1f77b4;stroke:#1f77b4;" x="110.968284" xlink:href="#m3b51763b4e" y="306.991635"/>
     <use style="fill:#1f77b4;stroke:#1f77b4;" x="118.135942" xlink:href="#m3b51763b4e" y="307.246871"/>
     <use style="fill:#1f77b4;stroke:#1f77b4;" x="97.950625" xlink:href="#m3b51763b4e" y="310.97842"/>
     <use style="fill:#1f77b4;stroke:#1f77b4;" x="107.589427" xlink:href="#m3b51763b4e" y="312.833125"/>
     <use style="fill:#1f77b4;stroke:#1f77b4;" x="90.347172" xlink:href="#m3b51763b4e" y="322.123297"/>
     <use style="fill:#1f77b4;stroke:#1f77b4;" x="193.592985" xlink:href="#m3b51763b4e" y="268.289539"/>
     <use style="fill:#1f77b4;stroke:#1f77b4;" x="139.083091" xlink:href="#m3b51763b4e" y="286.288696"/>
     <use style="fill:#1f77b4;stroke:#1f77b4;" x="198.31703" xlink:href="#m3b51763b4e" y="269.275295"/>
     <use style="fill:#1f77b4;stroke:#1f77b4;" x="199.789204" xlink:href="#m3b51763b4e" y="273.599891"/>
     <use style="fill:#1f77b4;stroke:#1f77b4;" x="232.266551" xlink:href="#m3b51763b4e" y="248.132142"/>
     <use style="fill:#1f77b4;stroke:#1f77b4;" x="161.085017" xlink:href="#m3b51763b4e" y="280.515885"/>
     <use style="fill:#1f77b4;stroke:#1f77b4;" x="100.871721" xlink:href="#m3b51763b4e" y="320.01117"/>
     <use style="fill:#1f77b4;stroke:#1f77b4;" x="283.692335" xlink:href="#m3b51763b4e" y="228.878803"/>
     <use style="fill:#1f77b4;stroke:#1f77b4;" x="151.672248" xlink:href="#m3b51763b4e" y="291.768187"/>
     <use style="fill:#1f77b4;stroke:#1f77b4;" x="276.765445" xlink:href="#m3b51763b4e" y="230.436343"/>
     <use style="fill:#1f77b4;stroke:#1f77b4;" x="261.040636" xlink:href="#m3b51763b4e" y="241.766732"/>
    </g>
   </g>
   <g id="line2d_26">
    <path clip-path="url(#p1347ba1fcf)" d="M 46.381818 340.102861 
L 299.198585 220.771179 
L 299.198585 220.771179 
" style="fill:none;stroke:#ff7f0e;stroke-linecap:square;stroke-width:2;"/>
   </g>
   <g id="patch_8">
    <path d="M 33.7 350.735 
L 33.7 208.926304 
" style="fill:none;stroke:#000000;stroke-linecap:square;stroke-linejoin:miter;stroke-width:0.8;"/>
   </g>
   <g id="patch_9">
    <path d="M 312.7 350.735 
L 312.7 208.926304 
" style="fill:none;"/>
   </g>
   <g id="patch_10">
    <path d="M 33.7 350.735 
L 312.7 350.735 
" style="fill:none;stroke:#000000;stroke-linecap:square;stroke-linejoin:miter;stroke-width:0.8;"/>
   </g>
   <g id="patch_11">
    <path d="M 33.7 208.926304 
L 312.7 208.926304 
" style="fill:none;"/>
   </g>
   <g id="text_25">
    <!-- 拟合曲线 -->
    <defs>
     <path d="M 26.171875 1.953125 
Q 26.171875 -2.734375 23.4375 -4.296875 
Q 20.703125 -5.859375 12.5 -7.8125 
Q 11.71875 -3.515625 8.984375 0 
Q 19.140625 0.390625 19.140625 4.296875 
L 19.140625 29.296875 
Q 10.9375 25.390625 7.421875 23.4375 
Q 5.859375 28.125 3.90625 30.859375 
Q 8.203125 32.03125 19.140625 36.328125 
L 19.140625 55.46875 
Q 11.328125 55.46875 5.46875 55.078125 
L 5.46875 62.5 
Q 10.9375 61.71875 19.140625 61.71875 
Q 19.140625 72.265625 18.75 81.640625 
L 26.953125 81.640625 
Q 26.171875 71.09375 26.171875 61.71875 
Q 31.640625 61.71875 36.328125 62.109375 
L 36.328125 55.078125 
Q 30.859375 55.46875 26.171875 55.46875 
L 26.171875 38.671875 
Q 33.59375 41.796875 35.9375 43.75 
Q 35.9375 39.84375 36.328125 36.328125 
Q 33.203125 35.15625 26.171875 32.03125 
z
M 77.34375 78.90625 
Q 82.421875 78.515625 85.9375 78.125 
Q 84.765625 72.65625 85.15625 52.140625 
Q 85.546875 31.640625 82.03125 19.921875 
Q 91.40625 8.59375 96.875 -0.78125 
Q 93.359375 -3.515625 90.234375 -6.25 
Q 86.328125 1.5625 78.90625 12.5 
Q 75 7.03125 69.328125 1.75 
Q 63.671875 -3.515625 51.953125 -10.15625 
Q 49.609375 -7.03125 45.703125 -3.90625 
Q 53.515625 -0.390625 60.9375 5.078125 
Q 68.359375 10.546875 72.0625 16.40625 
Q 75.78125 22.265625 76.953125 33.59375 
Q 78.125 44.921875 77.34375 78.90625 
z
M 39.0625 10.9375 
Q 41.796875 13.671875 41.796875 18.75 
L 41.796875 54.296875 
Q 41.796875 61.328125 41.40625 68.75 
L 49.609375 68.75 
Q 48.828125 62.109375 48.828125 54.6875 
L 48.828125 18.359375 
Q 58.984375 28.90625 63.28125 34.375 
Q 64.84375 30.078125 67.1875 26.953125 
Q 62.890625 23.4375 45.3125 4.6875 
L 39.0625 10.9375 
z
M 59.375 79.6875 
Q 68.359375 62.890625 71.484375 55.46875 
Q 66.40625 53.125 64.0625 51.5625 
Q 60.15625 60.546875 52.734375 76.171875 
Q 55.859375 77.34375 59.375 79.6875 
z
" id="SimHei-25311"/>
     <path d="M 78.90625 28.125 
Q 78.515625 24.21875 78.515625 10.15625 
Q 78.515625 -3.90625 78.90625 -8.203125 
L 70.703125 -8.203125 
L 70.703125 -0.78125 
L 27.34375 -0.78125 
L 27.34375 -9.375 
L 19.53125 -9.375 
Q 19.921875 -4.6875 19.921875 8.59375 
Q 19.921875 22.265625 19.53125 28.125 
L 78.90625 28.125 
z
M 52.734375 75 
Q 64.0625 61.328125 71.09375 56.25 
Q 78.125 51.171875 83.984375 48.4375 
Q 89.84375 45.703125 95.3125 44.140625 
Q 91.40625 39.84375 90.234375 35.9375 
Q 82.421875 39.453125 76.171875 43.359375 
Q 69.921875 47.265625 63.46875 53.3125 
Q 57.03125 59.375 48.828125 69.921875 
Q 41.40625 59.375 34.171875 52.53125 
Q 26.953125 45.703125 21.875 41.796875 
Q 16.796875 37.890625 10.546875 33.984375 
Q 9.765625 35.546875 4.296875 40.234375 
Q 12.5 44.140625 19.921875 49.609375 
Q 27.34375 55.078125 34.765625 63.46875 
Q 42.1875 71.875 46.875 81.640625 
Q 51.171875 78.90625 54.6875 77.34375 
z
M 70.703125 5.46875 
L 70.703125 21.875 
L 27.34375 21.875 
L 27.34375 5.46875 
z
M 61.328125 44.140625 
Q 67.578125 44.140625 72.265625 44.53125 
L 72.265625 37.109375 
Q 67.1875 37.5 61.71875 37.5 
L 39.84375 37.5 
Q 31.640625 37.5 26.5625 37.109375 
L 26.5625 44.53125 
Q 33.984375 44.140625 39.84375 44.140625 
z
" id="SimHei-21512"/>
    </defs>
    <g transform="translate(145.2 202.926304)scale(0.14 -0.14)">
     <use xlink:href="#SimHei-25311"/>
     <use x="100" xlink:href="#SimHei-21512"/>
     <use x="200" xlink:href="#SimHei-26354"/>
     <use x="300" xlink:href="#SimHei-32447"/>
    </g>
   </g>
  </g>
 </g>
 <defs>
  <clipPath id="pef9bd901df">
   <rect height="141.808696" width="279" x="33.7" y="24.575"/>
  </clipPath>
  <clipPath id="p1347ba1fcf">
   <rect height="141.808696" width="279" x="33.7" y="208.926304"/>
  </clipPath>
 </defs>
</svg>
