<?xml version="1.0" encoding="utf-8" standalone="no"?>
<!DOCTYPE svg PUBLIC "-//W3C//DTD SVG 1.1//EN"
  "http://www.w3.org/Graphics/SVG/1.1/DTD/svg11.dtd">
<svg height="383.259375pt" version="1.1" viewBox="0 0 324.367741 383.259375" width="324.367741pt" xmlns="http://www.w3.org/2000/svg" xmlns:xlink="http://www.w3.org/1999/xlink">
 <metadata>
  <rdf:RDF xmlns:cc="http://creativecommons.org/ns#" xmlns:dc="http://purl.org/dc/elements/1.1/" xmlns:rdf="http://www.w3.org/1999/02/22-rdf-syntax-ns#">
   <cc:Work>
    <dc:type rdf:resource="http://purl.org/dc/dcmitype/StillImage"/>
    <dc:date>2021-06-21T20:19:26.280865</dc:date>
    <dc:format>image/svg+xml</dc:format>
    <dc:creator>
     <cc:Agent>
      <dc:title>Matplotlib v3.4.2, https://matplotlib.org/</dc:title>
     </cc:Agent>
    </dc:creator>
   </cc:Work>
  </rdf:RDF>
 </metadata>
 <defs>
  <style type="text/css">*{stroke-linecap:butt;stroke-linejoin:round;}</style>
 </defs>
 <g id="figure_1">
  <g id="patch_1">
   <path d="M 0 383.259375 
L 324.367741 383.259375 
L 324.367741 -0 
L 0 -0 
z
" style="fill:#ffffff;"/>
  </g>
  <g id="axes_1">
   <g id="patch_2">
    <path d="M 35.432656 168.463899 
L 314.432656 168.463899 
L 314.432656 23.837812 
L 35.432656 23.837812 
z
" style="fill:#ffffff;"/>
   </g>
   <g id="matplotlib.axis_1">
    <g id="xtick_1">
     <g id="line2d_1">
      <defs>
       <path d="M 0 0 
L 0 3.5 
" id="m9feeb9a846" style="stroke:#000000;stroke-width:0.8;"/>
      </defs>
      <g>
       <use style="stroke:#000000;stroke-width:0.8;" x="48.114474" xlink:href="#m9feeb9a846" y="168.463899"/>
      </g>
     </g>
     <g id="text_1">
      <!-- 0 -->
      <g transform="translate(44.933224 183.062337)scale(0.1 -0.1)">
       <defs>
        <path d="M 2034 4250 
Q 1547 4250 1301 3770 
Q 1056 3291 1056 2328 
Q 1056 1369 1301 889 
Q 1547 409 2034 409 
Q 2525 409 2770 889 
Q 3016 1369 3016 2328 
Q 3016 3291 2770 3770 
Q 2525 4250 2034 4250 
z
M 2034 4750 
Q 2819 4750 3233 4129 
Q 3647 3509 3647 2328 
Q 3647 1150 3233 529 
Q 2819 -91 2034 -91 
Q 1250 -91 836 529 
Q 422 1150 422 2328 
Q 422 3509 836 4129 
Q 1250 4750 2034 4750 
z
" id="DejaVuSans-30" transform="scale(0.015625)"/>
       </defs>
       <use xlink:href="#DejaVuSans-30"/>
      </g>
     </g>
    </g>
    <g id="xtick_2">
     <g id="line2d_2">
      <g>
       <use style="stroke:#000000;stroke-width:0.8;" x="99.354144" xlink:href="#m9feeb9a846" y="168.463899"/>
      </g>
     </g>
     <g id="text_2">
      <!-- 20 -->
      <g transform="translate(92.991644 183.062337)scale(0.1 -0.1)">
       <defs>
        <path d="M 1228 531 
L 3431 531 
L 3431 0 
L 469 0 
L 469 531 
Q 828 903 1448 1529 
Q 2069 2156 2228 2338 
Q 2531 2678 2651 2914 
Q 2772 3150 2772 3378 
Q 2772 3750 2511 3984 
Q 2250 4219 1831 4219 
Q 1534 4219 1204 4116 
Q 875 4013 500 3803 
L 500 4441 
Q 881 4594 1212 4672 
Q 1544 4750 1819 4750 
Q 2544 4750 2975 4387 
Q 3406 4025 3406 3419 
Q 3406 3131 3298 2873 
Q 3191 2616 2906 2266 
Q 2828 2175 2409 1742 
Q 1991 1309 1228 531 
z
" id="DejaVuSans-32" transform="scale(0.015625)"/>
       </defs>
       <use xlink:href="#DejaVuSans-32"/>
       <use x="63.623047" xlink:href="#DejaVuSans-30"/>
      </g>
     </g>
    </g>
    <g id="xtick_3">
     <g id="line2d_3">
      <g>
       <use style="stroke:#000000;stroke-width:0.8;" x="150.593813" xlink:href="#m9feeb9a846" y="168.463899"/>
      </g>
     </g>
     <g id="text_3">
      <!-- 40 -->
      <g transform="translate(144.231313 183.062337)scale(0.1 -0.1)">
       <defs>
        <path d="M 2419 4116 
L 825 1625 
L 2419 1625 
L 2419 4116 
z
M 2253 4666 
L 3047 4666 
L 3047 1625 
L 3713 1625 
L 3713 1100 
L 3047 1100 
L 3047 0 
L 2419 0 
L 2419 1100 
L 313 1100 
L 313 1709 
L 2253 4666 
z
" id="DejaVuSans-34" transform="scale(0.015625)"/>
       </defs>
       <use xlink:href="#DejaVuSans-34"/>
       <use x="63.623047" xlink:href="#DejaVuSans-30"/>
      </g>
     </g>
    </g>
    <g id="xtick_4">
     <g id="line2d_4">
      <g>
       <use style="stroke:#000000;stroke-width:0.8;" x="201.833483" xlink:href="#m9feeb9a846" y="168.463899"/>
      </g>
     </g>
     <g id="text_4">
      <!-- 60 -->
      <g transform="translate(195.470983 183.062337)scale(0.1 -0.1)">
       <defs>
        <path d="M 2113 2584 
Q 1688 2584 1439 2293 
Q 1191 2003 1191 1497 
Q 1191 994 1439 701 
Q 1688 409 2113 409 
Q 2538 409 2786 701 
Q 3034 994 3034 1497 
Q 3034 2003 2786 2293 
Q 2538 2584 2113 2584 
z
M 3366 4563 
L 3366 3988 
Q 3128 4100 2886 4159 
Q 2644 4219 2406 4219 
Q 1781 4219 1451 3797 
Q 1122 3375 1075 2522 
Q 1259 2794 1537 2939 
Q 1816 3084 2150 3084 
Q 2853 3084 3261 2657 
Q 3669 2231 3669 1497 
Q 3669 778 3244 343 
Q 2819 -91 2113 -91 
Q 1303 -91 875 529 
Q 447 1150 447 2328 
Q 447 3434 972 4092 
Q 1497 4750 2381 4750 
Q 2619 4750 2861 4703 
Q 3103 4656 3366 4563 
z
" id="DejaVuSans-36" transform="scale(0.015625)"/>
       </defs>
       <use xlink:href="#DejaVuSans-36"/>
       <use x="63.623047" xlink:href="#DejaVuSans-30"/>
      </g>
     </g>
    </g>
    <g id="xtick_5">
     <g id="line2d_5">
      <g>
       <use style="stroke:#000000;stroke-width:0.8;" x="253.073152" xlink:href="#m9feeb9a846" y="168.463899"/>
      </g>
     </g>
     <g id="text_5">
      <!-- 80 -->
      <g transform="translate(246.710652 183.062337)scale(0.1 -0.1)">
       <defs>
        <path d="M 2034 2216 
Q 1584 2216 1326 1975 
Q 1069 1734 1069 1313 
Q 1069 891 1326 650 
Q 1584 409 2034 409 
Q 2484 409 2743 651 
Q 3003 894 3003 1313 
Q 3003 1734 2745 1975 
Q 2488 2216 2034 2216 
z
M 1403 2484 
Q 997 2584 770 2862 
Q 544 3141 544 3541 
Q 544 4100 942 4425 
Q 1341 4750 2034 4750 
Q 2731 4750 3128 4425 
Q 3525 4100 3525 3541 
Q 3525 3141 3298 2862 
Q 3072 2584 2669 2484 
Q 3125 2378 3379 2068 
Q 3634 1759 3634 1313 
Q 3634 634 3220 271 
Q 2806 -91 2034 -91 
Q 1263 -91 848 271 
Q 434 634 434 1313 
Q 434 1759 690 2068 
Q 947 2378 1403 2484 
z
M 1172 3481 
Q 1172 3119 1398 2916 
Q 1625 2713 2034 2713 
Q 2441 2713 2670 2916 
Q 2900 3119 2900 3481 
Q 2900 3844 2670 4047 
Q 2441 4250 2034 4250 
Q 1625 4250 1398 4047 
Q 1172 3844 1172 3481 
z
" id="DejaVuSans-38" transform="scale(0.015625)"/>
       </defs>
       <use xlink:href="#DejaVuSans-38"/>
       <use x="63.623047" xlink:href="#DejaVuSans-30"/>
      </g>
     </g>
    </g>
    <g id="xtick_6">
     <g id="line2d_6">
      <g>
       <use style="stroke:#000000;stroke-width:0.8;" x="304.312822" xlink:href="#m9feeb9a846" y="168.463899"/>
      </g>
     </g>
     <g id="text_6">
      <!-- 100 -->
      <g transform="translate(294.769072 183.062337)scale(0.1 -0.1)">
       <defs>
        <path d="M 794 531 
L 1825 531 
L 1825 4091 
L 703 3866 
L 703 4441 
L 1819 4666 
L 2450 4666 
L 2450 531 
L 3481 531 
L 3481 0 
L 794 0 
L 794 531 
z
" id="DejaVuSans-31" transform="scale(0.015625)"/>
       </defs>
       <use xlink:href="#DejaVuSans-31"/>
       <use x="63.623047" xlink:href="#DejaVuSans-30"/>
       <use x="127.246094" xlink:href="#DejaVuSans-30"/>
      </g>
     </g>
    </g>
   </g>
   <g id="matplotlib.axis_2">
    <g id="ytick_1">
     <g id="line2d_7">
      <defs>
       <path d="M 0 0 
L -3.5 0 
" id="md4b1b977e0" style="stroke:#000000;stroke-width:0.8;"/>
      </defs>
      <g>
       <use style="stroke:#000000;stroke-width:0.8;" x="35.432656" xlink:href="#md4b1b977e0" y="142.603292"/>
      </g>
     </g>
     <g id="text_7">
      <!-- 5 -->
      <g transform="translate(22.070156 146.402511)scale(0.1 -0.1)">
       <defs>
        <path d="M 691 4666 
L 3169 4666 
L 3169 4134 
L 1269 4134 
L 1269 2991 
Q 1406 3038 1543 3061 
Q 1681 3084 1819 3084 
Q 2600 3084 3056 2656 
Q 3513 2228 3513 1497 
Q 3513 744 3044 326 
Q 2575 -91 1722 -91 
Q 1428 -91 1123 -41 
Q 819 9 494 109 
L 494 744 
Q 775 591 1075 516 
Q 1375 441 1709 441 
Q 2250 441 2565 725 
Q 2881 1009 2881 1497 
Q 2881 1984 2565 2268 
Q 2250 2553 1709 2553 
Q 1456 2553 1204 2497 
Q 953 2441 691 2322 
L 691 4666 
z
" id="DejaVuSans-35" transform="scale(0.015625)"/>
       </defs>
       <use xlink:href="#DejaVuSans-35"/>
      </g>
     </g>
    </g>
    <g id="ytick_2">
     <g id="line2d_8">
      <g>
       <use style="stroke:#000000;stroke-width:0.8;" x="35.432656" xlink:href="#md4b1b977e0" y="109.771982"/>
      </g>
     </g>
     <g id="text_8">
      <!-- 10 -->
      <g transform="translate(15.707656 113.571201)scale(0.1 -0.1)">
       <use xlink:href="#DejaVuSans-31"/>
       <use x="63.623047" xlink:href="#DejaVuSans-30"/>
      </g>
     </g>
    </g>
    <g id="ytick_3">
     <g id="line2d_9">
      <g>
       <use style="stroke:#000000;stroke-width:0.8;" x="35.432656" xlink:href="#md4b1b977e0" y="76.940673"/>
      </g>
     </g>
     <g id="text_9">
      <!-- 15 -->
      <g transform="translate(15.707656 80.739891)scale(0.1 -0.1)">
       <use xlink:href="#DejaVuSans-31"/>
       <use x="63.623047" xlink:href="#DejaVuSans-35"/>
      </g>
     </g>
    </g>
    <g id="ytick_4">
     <g id="line2d_10">
      <g>
       <use style="stroke:#000000;stroke-width:0.8;" x="35.432656" xlink:href="#md4b1b977e0" y="44.109363"/>
      </g>
     </g>
     <g id="text_10">
      <!-- 20 -->
      <g transform="translate(15.707656 47.908581)scale(0.1 -0.1)">
       <use xlink:href="#DejaVuSans-32"/>
       <use x="63.623047" xlink:href="#DejaVuSans-30"/>
      </g>
     </g>
    </g>
   </g>
   <g id="line2d_11">
    <path clip-path="url(#p1ccb828a97)" d="M 48.114474 30.411726 
L 50.676458 128.257202 
L 53.238441 153.233452 
L 55.800425 159.61311 
L 58.362408 161.246498 
L 60.924392 161.66823 
L 63.486375 161.780366 
L 66.048359 161.81314 
L 68.610342 161.825336 
L 71.172326 161.831979 
L 73.734309 161.836929 
L 76.296293 161.841192 
L 78.858276 161.845044 
L 81.42026 161.848575 
L 83.982243 161.851825 
L 86.544226 161.854818 
L 89.10621 161.857577 
L 91.668193 161.860119 
L 94.230177 161.862462 
L 96.79216 161.864622 
L 99.354144 161.866612 
L 101.916127 161.868447 
L 104.478111 161.870137 
L 107.040094 161.871696 
L 109.602078 161.873132 
L 112.164061 161.874455 
L 114.726045 161.875675 
L 117.288028 161.876799 
L 119.850012 161.877836 
L 122.411995 161.87879 
L 124.973979 161.879671 
L 127.535962 161.880482 
L 130.097946 161.88123 
L 132.659929 161.881919 
L 135.221912 161.882554 
L 137.783896 161.883139 
L 140.345879 161.883678 
L 142.907863 161.884176 
L 145.469846 161.884634 
L 148.03183 161.885056 
L 150.593813 161.885445 
L 153.155797 161.885804 
L 155.71778 161.886135 
L 158.279764 161.886439 
L 160.841747 161.88672 
L 163.403731 161.886979 
L 165.965714 161.887218 
L 168.527698 161.887437 
L 171.089681 161.88764 
L 173.651665 161.887827 
L 176.213648 161.887999 
L 178.775631 161.888158 
L 181.337615 161.888304 
L 183.899598 161.888439 
L 186.461582 161.888563 
L 189.023565 161.888677 
L 191.585549 161.888783 
L 194.147532 161.88888 
L 196.709516 161.88897 
L 199.271499 161.889052 
L 201.833483 161.889128 
L 204.395466 161.889198 
L 206.95745 161.889263 
L 209.519433 161.889323 
L 212.081417 161.889378 
L 214.6434 161.889428 
L 217.205384 161.889475 
L 219.767367 161.889518 
L 222.32935 161.889557 
L 224.891334 161.889594 
L 227.453317 161.889628 
L 230.015301 161.889659 
L 232.577284 161.889687 
L 235.139268 161.889714 
L 237.701251 161.889738 
L 240.263235 161.88976 
L 242.825218 161.889781 
L 245.387202 161.8898 
L 247.949185 161.889817 
L 250.511169 161.889834 
L 253.073152 161.889848 
L 255.635136 161.889862 
L 258.197119 161.889875 
L 260.759103 161.889886 
L 263.321086 161.889897 
L 265.883069 161.889907 
L 268.445053 161.889916 
L 271.007036 161.889925 
L 273.56902 161.889932 
L 276.131003 161.88994 
L 278.692987 161.889946 
L 281.25497 161.889952 
L 283.816954 161.889958 
L 286.378937 161.889963 
L 288.940921 161.889968 
L 291.502904 161.889972 
L 294.064888 161.889976 
L 296.626871 161.88998 
L 299.188855 161.889983 
L 301.750838 161.889986 
" style="fill:none;stroke:#1f77b4;stroke-linecap:square;stroke-width:2;"/>
   </g>
   <g id="patch_3">
    <path d="M 35.432656 168.463899 
L 35.432656 23.837812 
" style="fill:none;stroke:#000000;stroke-linecap:square;stroke-linejoin:miter;stroke-width:0.8;"/>
   </g>
   <g id="patch_4">
    <path d="M 314.432656 168.463899 
L 314.432656 23.837812 
" style="fill:none;"/>
   </g>
   <g id="patch_5">
    <path d="M 35.432656 168.463899 
L 314.432656 168.463899 
" style="fill:none;stroke:#000000;stroke-linecap:square;stroke-linejoin:miter;stroke-width:0.8;"/>
   </g>
   <g id="patch_6">
    <path d="M 35.432656 23.837812 
L 314.432656 23.837812 
" style="fill:none;"/>
   </g>
   <g id="text_11">
    <!-- 损失曲线 -->
    <g transform="translate(158.128281 17.837812)scale(0.14 -0.14)">
     <defs>
      <path d="M 319 -1131 
L 319 4513 
L 3519 4513 
L 3519 -1131 
L 319 -1131 
z
M 678 -775 
L 3163 -775 
L 3163 4153 
L 678 4153 
L 678 -775 
z
" id="DejaVuSans-635f" transform="scale(0.015625)"/>
      <path d="M 319 -1131 
L 319 4513 
L 3519 4513 
L 3519 -1131 
L 319 -1131 
z
M 678 -775 
L 3163 -775 
L 3163 4153 
L 678 4153 
L 678 -775 
z
" id="DejaVuSans-5931" transform="scale(0.015625)"/>
      <path d="M 319 -1131 
L 319 4513 
L 3519 4513 
L 3519 -1131 
L 319 -1131 
z
M 678 -775 
L 3163 -775 
L 3163 4153 
L 678 4153 
L 678 -775 
z
" id="DejaVuSans-66f2" transform="scale(0.015625)"/>
      <path d="M 319 -1131 
L 319 4513 
L 3519 4513 
L 3519 -1131 
L 319 -1131 
z
M 678 -775 
L 3163 -775 
L 3163 4153 
L 678 4153 
L 678 -775 
z
" id="DejaVuSans-7ebf" transform="scale(0.015625)"/>
     </defs>
     <use xlink:href="#DejaVuSans-635f"/>
     <use x="60.009766" xlink:href="#DejaVuSans-5931"/>
     <use x="120.019531" xlink:href="#DejaVuSans-66f2"/>
     <use x="180.029297" xlink:href="#DejaVuSans-7ebf"/>
    </g>
   </g>
  </g>
  <g id="axes_2">
   <g id="patch_7">
    <path d="M 35.432656 356.477812 
L 314.432656 356.477812 
L 314.432656 211.851726 
L 35.432656 211.851726 
z
" style="fill:#ffffff;"/>
   </g>
   <g id="matplotlib.axis_3">
    <g id="xtick_7">
     <g id="line2d_12">
      <g>
       <use style="stroke:#000000;stroke-width:0.8;" x="46.027658" xlink:href="#m9feeb9a846" y="356.477812"/>
      </g>
     </g>
     <g id="text_12">
      <!-- -10.0 -->
      <g transform="translate(29.209924 373.355781)scale(0.13 -0.13)">
       <defs>
        <path d="M 313 2009 
L 1997 2009 
L 1997 1497 
L 313 1497 
L 313 2009 
z
" id="DejaVuSans-2d" transform="scale(0.015625)"/>
        <path d="M 684 794 
L 1344 794 
L 1344 0 
L 684 0 
L 684 794 
z
" id="DejaVuSans-2e" transform="scale(0.015625)"/>
       </defs>
       <use xlink:href="#DejaVuSans-2d"/>
       <use x="36.083984" xlink:href="#DejaVuSans-31"/>
       <use x="99.707031" xlink:href="#DejaVuSans-30"/>
       <use x="163.330078" xlink:href="#DejaVuSans-2e"/>
       <use x="195.117188" xlink:href="#DejaVuSans-30"/>
      </g>
     </g>
    </g>
    <g id="xtick_8">
     <g id="line2d_13">
      <g>
       <use style="stroke:#000000;stroke-width:0.8;" x="78.111086" xlink:href="#m9feeb9a846" y="356.477812"/>
      </g>
     </g>
     <g id="text_13">
      <!-- -7.5 -->
      <g transform="translate(65.428977 373.355781)scale(0.13 -0.13)">
       <defs>
        <path d="M 525 4666 
L 3525 4666 
L 3525 4397 
L 1831 0 
L 1172 0 
L 2766 4134 
L 525 4134 
L 525 4666 
z
" id="DejaVuSans-37" transform="scale(0.015625)"/>
       </defs>
       <use xlink:href="#DejaVuSans-2d"/>
       <use x="36.083984" xlink:href="#DejaVuSans-37"/>
       <use x="99.707031" xlink:href="#DejaVuSans-2e"/>
       <use x="131.494141" xlink:href="#DejaVuSans-35"/>
      </g>
     </g>
    </g>
    <g id="xtick_9">
     <g id="line2d_14">
      <g>
       <use style="stroke:#000000;stroke-width:0.8;" x="110.194515" xlink:href="#m9feeb9a846" y="356.477812"/>
      </g>
     </g>
     <g id="text_14">
      <!-- -5.0 -->
      <g transform="translate(97.512405 373.355781)scale(0.13 -0.13)">
       <use xlink:href="#DejaVuSans-2d"/>
       <use x="36.083984" xlink:href="#DejaVuSans-35"/>
       <use x="99.707031" xlink:href="#DejaVuSans-2e"/>
       <use x="131.494141" xlink:href="#DejaVuSans-30"/>
      </g>
     </g>
    </g>
    <g id="xtick_10">
     <g id="line2d_15">
      <g>
       <use style="stroke:#000000;stroke-width:0.8;" x="142.277943" xlink:href="#m9feeb9a846" y="356.477812"/>
      </g>
     </g>
     <g id="text_15">
      <!-- -2.5 -->
      <g transform="translate(129.595834 373.355781)scale(0.13 -0.13)">
       <use xlink:href="#DejaVuSans-2d"/>
       <use x="36.083984" xlink:href="#DejaVuSans-32"/>
       <use x="99.707031" xlink:href="#DejaVuSans-2e"/>
       <use x="131.494141" xlink:href="#DejaVuSans-35"/>
      </g>
     </g>
    </g>
    <g id="xtick_11">
     <g id="line2d_16">
      <g>
       <use style="stroke:#000000;stroke-width:0.8;" x="174.361371" xlink:href="#m9feeb9a846" y="356.477812"/>
      </g>
     </g>
     <g id="text_16">
      <!-- 0.0 -->
      <g transform="translate(164.02434 373.355781)scale(0.13 -0.13)">
       <use xlink:href="#DejaVuSans-30"/>
       <use x="63.623047" xlink:href="#DejaVuSans-2e"/>
       <use x="95.410156" xlink:href="#DejaVuSans-30"/>
      </g>
     </g>
    </g>
    <g id="xtick_12">
     <g id="line2d_17">
      <g>
       <use style="stroke:#000000;stroke-width:0.8;" x="206.4448" xlink:href="#m9feeb9a846" y="356.477812"/>
      </g>
     </g>
     <g id="text_17">
      <!-- 2.5 -->
      <g transform="translate(196.107768 373.355781)scale(0.13 -0.13)">
       <use xlink:href="#DejaVuSans-32"/>
       <use x="63.623047" xlink:href="#DejaVuSans-2e"/>
       <use x="95.410156" xlink:href="#DejaVuSans-35"/>
      </g>
     </g>
    </g>
    <g id="xtick_13">
     <g id="line2d_18">
      <g>
       <use style="stroke:#000000;stroke-width:0.8;" x="238.528228" xlink:href="#m9feeb9a846" y="356.477812"/>
      </g>
     </g>
     <g id="text_18">
      <!-- 5.0 -->
      <g transform="translate(228.191197 373.355781)scale(0.13 -0.13)">
       <use xlink:href="#DejaVuSans-35"/>
       <use x="63.623047" xlink:href="#DejaVuSans-2e"/>
       <use x="95.410156" xlink:href="#DejaVuSans-30"/>
      </g>
     </g>
    </g>
    <g id="xtick_14">
     <g id="line2d_19">
      <g>
       <use style="stroke:#000000;stroke-width:0.8;" x="270.611656" xlink:href="#m9feeb9a846" y="356.477812"/>
      </g>
     </g>
     <g id="text_19">
      <!-- 7.5 -->
      <g transform="translate(260.274625 373.355781)scale(0.13 -0.13)">
       <use xlink:href="#DejaVuSans-37"/>
       <use x="63.623047" xlink:href="#DejaVuSans-2e"/>
       <use x="95.410156" xlink:href="#DejaVuSans-35"/>
      </g>
     </g>
    </g>
    <g id="xtick_15">
     <g id="line2d_20">
      <g>
       <use style="stroke:#000000;stroke-width:0.8;" x="302.695085" xlink:href="#m9feeb9a846" y="356.477812"/>
      </g>
     </g>
     <g id="text_20">
      <!-- 10.0 -->
      <g transform="translate(288.222428 373.355781)scale(0.13 -0.13)">
       <use xlink:href="#DejaVuSans-31"/>
       <use x="63.623047" xlink:href="#DejaVuSans-30"/>
       <use x="127.246094" xlink:href="#DejaVuSans-2e"/>
       <use x="159.033203" xlink:href="#DejaVuSans-30"/>
      </g>
     </g>
    </g>
   </g>
   <g id="matplotlib.axis_4">
    <g id="ytick_5">
     <g id="line2d_21">
      <g>
       <use style="stroke:#000000;stroke-width:0.8;" x="35.432656" xlink:href="#md4b1b977e0" y="317.561794"/>
      </g>
     </g>
     <g id="text_21">
      <!-- -10 -->
      <g transform="translate(7.2 322.500778)scale(0.13 -0.13)">
       <use xlink:href="#DejaVuSans-2d"/>
       <use x="36.083984" xlink:href="#DejaVuSans-31"/>
       <use x="99.707031" xlink:href="#DejaVuSans-30"/>
      </g>
     </g>
    </g>
    <g id="ytick_6">
     <g id="line2d_22">
      <g>
       <use style="stroke:#000000;stroke-width:0.8;" x="35.432656" xlink:href="#md4b1b977e0" y="277.778503"/>
      </g>
     </g>
     <g id="text_22">
      <!-- 0 -->
      <g transform="translate(20.161406 282.717487)scale(0.13 -0.13)">
       <use xlink:href="#DejaVuSans-30"/>
      </g>
     </g>
    </g>
    <g id="ytick_7">
     <g id="line2d_23">
      <g>
       <use style="stroke:#000000;stroke-width:0.8;" x="35.432656" xlink:href="#md4b1b977e0" y="237.995211"/>
      </g>
     </g>
     <g id="text_23">
      <!-- 10 -->
      <g transform="translate(11.890156 242.934196)scale(0.13 -0.13)">
       <use xlink:href="#DejaVuSans-31"/>
       <use x="63.623047" xlink:href="#DejaVuSans-30"/>
      </g>
     </g>
    </g>
   </g>
   <g id="line2d_24">
    <defs>
     <path d="M 0 3 
C 0.795609 3 1.55874 2.683901 2.12132 2.12132 
C 2.683901 1.55874 3 0.795609 3 0 
C 3 -0.795609 2.683901 -1.55874 2.12132 -2.12132 
C 1.55874 -2.683901 0.795609 -3 0 -3 
C -0.795609 -3 -1.55874 -2.683901 -2.12132 -2.12132 
C -2.683901 -1.55874 -3 -0.795609 -3 0 
C -3 0.795609 -2.683901 1.55874 -2.12132 2.12132 
C -1.55874 2.683901 -0.795609 3 0 3 
z
" id="md6679fc452" style="stroke:#1f77b4;"/>
    </defs>
    <g clip-path="url(#pb6ca62448b)">
     <use style="fill:#1f77b4;stroke:#1f77b4;" x="115.894834" xlink:href="#md6679fc452" y="306.818023"/>
     <use style="fill:#1f77b4;stroke:#1f77b4;" x="188.563072" xlink:href="#md6679fc452" y="261.258706"/>
     <use style="fill:#1f77b4;stroke:#1f77b4;" x="244.27668" xlink:href="#md6679fc452" y="246.636618"/>
     <use style="fill:#1f77b4;stroke:#1f77b4;" x="70.196638" xlink:href="#md6679fc452" y="326.561963"/>
     <use style="fill:#1f77b4;stroke:#1f77b4;" x="82.43335" xlink:href="#md6679fc452" y="323.804759"/>
     <use style="fill:#1f77b4;stroke:#1f77b4;" x="110.434164" xlink:href="#md6679fc452" y="304.975125"/>
     <use style="fill:#1f77b4;stroke:#1f77b4;" x="52.509582" xlink:href="#md6679fc452" y="332.709168"/>
     <use style="fill:#1f77b4;stroke:#1f77b4;" x="193.339917" xlink:href="#md6679fc452" y="266.688322"/>
     <use style="fill:#1f77b4;stroke:#1f77b4;" x="103.451897" xlink:href="#md6679fc452" y="305.411771"/>
     <use style="fill:#1f77b4;stroke:#1f77b4;" x="69.460381" xlink:href="#md6679fc452" y="323.654865"/>
     <use style="fill:#1f77b4;stroke:#1f77b4;" x="65.740497" xlink:href="#md6679fc452" y="325.214548"/>
     <use style="fill:#1f77b4;stroke:#1f77b4;" x="79.22516" xlink:href="#md6679fc452" y="319.503776"/>
     <use style="fill:#1f77b4;stroke:#1f77b4;" x="220.504293" xlink:href="#md6679fc452" y="256.36811"/>
     <use style="fill:#1f77b4;stroke:#1f77b4;" x="212.57548" xlink:href="#md6679fc452" y="270.750164"/>
     <use style="fill:#1f77b4;stroke:#1f77b4;" x="53.862442" xlink:href="#md6679fc452" y="326.999271"/>
     <use style="fill:#1f77b4;stroke:#1f77b4;" x="259.987127" xlink:href="#md6679fc452" y="238.005239"/>
     <use style="fill:#1f77b4;stroke:#1f77b4;" x="278.89109" xlink:href="#md6679fc452" y="245.035807"/>
     <use style="fill:#1f77b4;stroke:#1f77b4;" x="87.226024" xlink:href="#md6679fc452" y="321.39135"/>
     <use style="fill:#1f77b4;stroke:#1f77b4;" x="286.622893" xlink:href="#md6679fc452" y="227.690651"/>
     <use style="fill:#1f77b4;stroke:#1f77b4;" x="167.86091" xlink:href="#md6679fc452" y="290.074155"/>
     <use style="fill:#1f77b4;stroke:#1f77b4;" x="186.917028" xlink:href="#md6679fc452" y="275.616357"/>
     <use style="fill:#1f77b4;stroke:#1f77b4;" x="213.073547" xlink:href="#md6679fc452" y="260.994136"/>
     <use style="fill:#1f77b4;stroke:#1f77b4;" x="50.615253" xlink:href="#md6679fc452" y="349.903899"/>
     <use style="fill:#1f77b4;stroke:#1f77b4;" x="191.855653" xlink:href="#md6679fc452" y="274.127478"/>
     <use style="fill:#1f77b4;stroke:#1f77b4;" x="65.705006" xlink:href="#md6679fc452" y="334.143962"/>
     <use style="fill:#1f77b4;stroke:#1f77b4;" x="224.540053" xlink:href="#md6679fc452" y="249.835063"/>
     <use style="fill:#1f77b4;stroke:#1f77b4;" x="78.149758" xlink:href="#md6679fc452" y="309.886135"/>
     <use style="fill:#1f77b4;stroke:#1f77b4;" x="224.017067" xlink:href="#md6679fc452" y="260.845402"/>
     <use style="fill:#1f77b4;stroke:#1f77b4;" x="58.58506" xlink:href="#md6679fc452" y="323.946734"/>
     <use style="fill:#1f77b4;stroke:#1f77b4;" x="110.44841" xlink:href="#md6679fc452" y="305.875083"/>
     <use style="fill:#1f77b4;stroke:#1f77b4;" x="261.228288" xlink:href="#md6679fc452" y="233.009586"/>
     <use style="fill:#1f77b4;stroke:#1f77b4;" x="230.483074" xlink:href="#md6679fc452" y="251.630891"/>
     <use style="fill:#1f77b4;stroke:#1f77b4;" x="161.87965" xlink:href="#md6679fc452" y="295.315578"/>
     <use style="fill:#1f77b4;stroke:#1f77b4;" x="146.932619" xlink:href="#md6679fc452" y="296.895641"/>
     <use style="fill:#1f77b4;stroke:#1f77b4;" x="116.463896" xlink:href="#md6679fc452" y="299.628471"/>
     <use style="fill:#1f77b4;stroke:#1f77b4;" x="72.435523" xlink:href="#md6679fc452" y="325.084336"/>
     <use style="fill:#1f77b4;stroke:#1f77b4;" x="301.176131" xlink:href="#md6679fc452" y="225.595417"/>
     <use style="fill:#1f77b4;stroke:#1f77b4;" x="267.095773" xlink:href="#md6679fc452" y="232.539926"/>
     <use style="fill:#1f77b4;stroke:#1f77b4;" x="202.391739" xlink:href="#md6679fc452" y="260.167082"/>
     <use style="fill:#1f77b4;stroke:#1f77b4;" x="258.667273" xlink:href="#md6679fc452" y="237.372157"/>
     <use style="fill:#1f77b4;stroke:#1f77b4;" x="49.347508" xlink:href="#md6679fc452" y="328.490151"/>
     <use style="fill:#1f77b4;stroke:#1f77b4;" x="230.428102" xlink:href="#md6679fc452" y="246.304299"/>
     <use style="fill:#1f77b4;stroke:#1f77b4;" x="249.334746" xlink:href="#md6679fc452" y="235.859763"/>
     <use style="fill:#1f77b4;stroke:#1f77b4;" x="121.852406" xlink:href="#md6679fc452" y="294.445043"/>
     <use style="fill:#1f77b4;stroke:#1f77b4;" x="237.943691" xlink:href="#md6679fc452" y="252.80655"/>
     <use style="fill:#1f77b4;stroke:#1f77b4;" x="280.186411" xlink:href="#md6679fc452" y="239.434254"/>
     <use style="fill:#1f77b4;stroke:#1f77b4;" x="65.206256" xlink:href="#md6679fc452" y="334.180655"/>
     <use style="fill:#1f77b4;stroke:#1f77b4;" x="217.376811" xlink:href="#md6679fc452" y="261.245351"/>
     <use style="fill:#1f77b4;stroke:#1f77b4;" x="284.405413" xlink:href="#md6679fc452" y="223.085063"/>
     <use style="fill:#1f77b4;stroke:#1f77b4;" x="238.855438" xlink:href="#md6679fc452" y="258.331156"/>
     <use style="fill:#1f77b4;stroke:#1f77b4;" x="134.415955" xlink:href="#md6679fc452" y="283.847974"/>
     <use style="fill:#1f77b4;stroke:#1f77b4;" x="56.861133" xlink:href="#md6679fc452" y="331.734882"/>
     <use style="fill:#1f77b4;stroke:#1f77b4;" x="169.210671" xlink:href="#md6679fc452" y="278.265772"/>
     <use style="fill:#1f77b4;stroke:#1f77b4;" x="87.383656" xlink:href="#md6679fc452" y="321.000671"/>
     <use style="fill:#1f77b4;stroke:#1f77b4;" x="202.326919" xlink:href="#md6679fc452" y="270.304268"/>
     <use style="fill:#1f77b4;stroke:#1f77b4;" x="275.279142" xlink:href="#md6679fc452" y="230.79146"/>
     <use style="fill:#1f77b4;stroke:#1f77b4;" x="264.989076" xlink:href="#md6679fc452" y="235.374946"/>
     <use style="fill:#1f77b4;stroke:#1f77b4;" x="251.995018" xlink:href="#md6679fc452" y="231.652584"/>
     <use style="fill:#1f77b4;stroke:#1f77b4;" x="218.053716" xlink:href="#md6679fc452" y="256.457815"/>
     <use style="fill:#1f77b4;stroke:#1f77b4;" x="269.693425" xlink:href="#md6679fc452" y="225.077481"/>
     <use style="fill:#1f77b4;stroke:#1f77b4;" x="218.352347" xlink:href="#md6679fc452" y="260.90886"/>
     <use style="fill:#1f77b4;stroke:#1f77b4;" x="89.075632" xlink:href="#md6679fc452" y="318.720375"/>
     <use style="fill:#1f77b4;stroke:#1f77b4;" x="89.492994" xlink:href="#md6679fc452" y="309.464384"/>
     <use style="fill:#1f77b4;stroke:#1f77b4;" x="294.807652" xlink:href="#md6679fc452" y="224.781031"/>
     <use style="fill:#1f77b4;stroke:#1f77b4;" x="214.871287" xlink:href="#md6679fc452" y="263.108826"/>
     <use style="fill:#1f77b4;stroke:#1f77b4;" x="72.563818" xlink:href="#md6679fc452" y="326.25652"/>
     <use style="fill:#1f77b4;stroke:#1f77b4;" x="104.647153" xlink:href="#md6679fc452" y="313.418838"/>
     <use style="fill:#1f77b4;stroke:#1f77b4;" x="77.08389" xlink:href="#md6679fc452" y="318.429315"/>
     <use style="fill:#1f77b4;stroke:#1f77b4;" x="114.636677" xlink:href="#md6679fc452" y="304.789703"/>
     <use style="fill:#1f77b4;stroke:#1f77b4;" x="273.280168" xlink:href="#md6679fc452" y="230.082444"/>
     <use style="fill:#1f77b4;stroke:#1f77b4;" x="200.107169" xlink:href="#md6679fc452" y="269.649957"/>
     <use style="fill:#1f77b4;stroke:#1f77b4;" x="232.492037" xlink:href="#md6679fc452" y="246.828789"/>
     <use style="fill:#1f77b4;stroke:#1f77b4;" x="301.750838" xlink:href="#md6679fc452" y="220.545887"/>
     <use style="fill:#1f77b4;stroke:#1f77b4;" x="147.943674" xlink:href="#md6679fc452" y="292.609293"/>
     <use style="fill:#1f77b4;stroke:#1f77b4;" x="99.221127" xlink:href="#md6679fc452" y="311.002288"/>
     <use style="fill:#1f77b4;stroke:#1f77b4;" x="168.601813" xlink:href="#md6679fc452" y="274.680614"/>
     <use style="fill:#1f77b4;stroke:#1f77b4;" x="242.609219" xlink:href="#md6679fc452" y="245.244481"/>
     <use style="fill:#1f77b4;stroke:#1f77b4;" x="105.270723" xlink:href="#md6679fc452" y="304.781261"/>
     <use style="fill:#1f77b4;stroke:#1f77b4;" x="123.134295" xlink:href="#md6679fc452" y="300.907229"/>
     <use style="fill:#1f77b4;stroke:#1f77b4;" x="166.355863" xlink:href="#md6679fc452" y="279.772512"/>
     <use style="fill:#1f77b4;stroke:#1f77b4;" x="141.246048" xlink:href="#md6679fc452" y="289.944719"/>
     <use style="fill:#1f77b4;stroke:#1f77b4;" x="183.681674" xlink:href="#md6679fc452" y="277.398936"/>
     <use style="fill:#1f77b4;stroke:#1f77b4;" x="136.795515" xlink:href="#md6679fc452" y="296.154882"/>
     <use style="fill:#1f77b4;stroke:#1f77b4;" x="48.114474" xlink:href="#md6679fc452" y="331.61141"/>
     <use style="fill:#1f77b4;stroke:#1f77b4;" x="190.452464" xlink:href="#md6679fc452" y="267.204184"/>
     <use style="fill:#1f77b4;stroke:#1f77b4;" x="121.709603" xlink:href="#md6679fc452" y="298.812604"/>
     <use style="fill:#1f77b4;stroke:#1f77b4;" x="68.160468" xlink:href="#md6679fc452" y="317.625968"/>
     <use style="fill:#1f77b4;stroke:#1f77b4;" x="263.135514" xlink:href="#md6679fc452" y="236.529743"/>
     <use style="fill:#1f77b4;stroke:#1f77b4;" x="48.600286" xlink:href="#md6679fc452" y="321.632394"/>
     <use style="fill:#1f77b4;stroke:#1f77b4;" x="206.135015" xlink:href="#md6679fc452" y="254.877574"/>
     <use style="fill:#1f77b4;stroke:#1f77b4;" x="291.3993" xlink:href="#md6679fc452" y="218.425639"/>
     <use style="fill:#1f77b4;stroke:#1f77b4;" x="222.222587" xlink:href="#md6679fc452" y="245.526675"/>
     <use style="fill:#1f77b4;stroke:#1f77b4;" x="211.992401" xlink:href="#md6679fc452" y="267.52519"/>
     <use style="fill:#1f77b4;stroke:#1f77b4;" x="85.966302" xlink:href="#md6679fc452" y="312.088161"/>
     <use style="fill:#1f77b4;stroke:#1f77b4;" x="149.391742" xlink:href="#md6679fc452" y="285.886406"/>
     <use style="fill:#1f77b4;stroke:#1f77b4;" x="269.180308" xlink:href="#md6679fc452" y="242.328176"/>
     <use style="fill:#1f77b4;stroke:#1f77b4;" x="219.734219" xlink:href="#md6679fc452" y="250.796858"/>
     <use style="fill:#1f77b4;stroke:#1f77b4;" x="239.349223" xlink:href="#md6679fc452" y="249.061865"/>
     <use style="fill:#1f77b4;stroke:#1f77b4;" x="301.373688" xlink:href="#md6679fc452" y="223.568823"/>
     <use style="fill:#1f77b4;stroke:#1f77b4;" x="242.349252" xlink:href="#md6679fc452" y="244.680553"/>
    </g>
   </g>
   <g id="line2d_25">
    <path clip-path="url(#pb6ca62448b)" d="M 48.114474 333.75947 
L 300.93189 220.598127 
L 300.93189 220.598127 
" style="fill:none;stroke:#ff7f0e;stroke-linecap:square;stroke-width:2;"/>
   </g>
   <g id="patch_8">
    <path d="M 35.432656 356.477812 
L 35.432656 211.851726 
" style="fill:none;stroke:#000000;stroke-linecap:square;stroke-linejoin:miter;stroke-width:0.8;"/>
   </g>
   <g id="patch_9">
    <path d="M 314.432656 356.477812 
L 314.432656 211.851726 
" style="fill:none;"/>
   </g>
   <g id="patch_10">
    <path d="M 35.432656 356.477812 
L 314.432656 356.477812 
" style="fill:none;stroke:#000000;stroke-linecap:square;stroke-linejoin:miter;stroke-width:0.8;"/>
   </g>
   <g id="patch_11">
    <path d="M 35.432656 211.851726 
L 314.432656 211.851726 
" style="fill:none;"/>
   </g>
   <g id="text_24">
    <!-- 拟合曲线 -->
    <g transform="translate(158.128281 205.851726)scale(0.14 -0.14)">
     <defs>
      <path d="M 319 -1131 
L 319 4513 
L 3519 4513 
L 3519 -1131 
L 319 -1131 
z
M 678 -775 
L 3163 -775 
L 3163 4153 
L 678 4153 
L 678 -775 
z
" id="DejaVuSans-62df" transform="scale(0.015625)"/>
      <path d="M 319 -1131 
L 319 4513 
L 3519 4513 
L 3519 -1131 
L 319 -1131 
z
M 678 -775 
L 3163 -775 
L 3163 4153 
L 678 4153 
L 678 -775 
z
" id="DejaVuSans-5408" transform="scale(0.015625)"/>
     </defs>
     <use xlink:href="#DejaVuSans-62df"/>
     <use x="60.009766" xlink:href="#DejaVuSans-5408"/>
     <use x="120.019531" xlink:href="#DejaVuSans-66f2"/>
     <use x="180.029297" xlink:href="#DejaVuSans-7ebf"/>
    </g>
   </g>
  </g>
 </g>
 <defs>
  <clipPath id="p1ccb828a97">
   <rect height="144.626087" width="279" x="35.432656" y="23.837812"/>
  </clipPath>
  <clipPath id="pb6ca62448b">
   <rect height="144.626087" width="279" x="35.432656" y="211.851726"/>
  </clipPath>
 </defs>
</svg>
