<?xml version="1.0" encoding="utf-8" standalone="no"?>
<!DOCTYPE svg PUBLIC "-//W3C//DTD SVG 1.1//EN"
  "http://www.w3.org/Graphics/SVG/1.1/DTD/svg11.dtd">
<!-- Created with matplotlib (https://matplotlib.org/) -->
<svg height="259.168125pt" version="1.1" viewBox="0 0 381.2 259.168125" width="381.2pt" xmlns="http://www.w3.org/2000/svg" xmlns:xlink="http://www.w3.org/1999/xlink">
 <defs>
  <style type="text/css">
*{stroke-linecap:butt;stroke-linejoin:round;}
  </style>
 </defs>
 <g id="figure_1">
  <g id="patch_1">
   <path d="M 0 259.168125 
L 381.2 259.168125 
L 381.2 0 
L 0 0 
z
" style="fill:#ffffff;"/>
  </g>
  <g id="axes_1">
   <g id="patch_2">
    <path d="M 39.2 224.64 
L 374 224.64 
L 374 7.2 
L 39.2 7.2 
z
" style="fill:#ffffff;"/>
   </g>
   <g id="PathCollection_1">
    <path clip-path="url(#pa4d00277f1)" d="M 60.360708 170.28 
L 54.360708 170.28 
" style="fill:#a6cee3;stroke:#a6cee3;stroke-width:50;"/>
    <path clip-path="url(#pa4d00277f1)" d="M 63.375643 170.28 
L 57.375643 170.28 
" style="fill:#a6cee3;stroke:#a6cee3;stroke-width:50;"/>
    <path clip-path="url(#pa4d00277f1)" d="M 66.390578 170.28 
L 60.390578 170.28 
" style="fill:#a6cee3;stroke:#a6cee3;stroke-width:50;"/>
    <path clip-path="url(#pa4d00277f1)" d="M 69.405513 170.28 
L 63.405513 170.28 
" style="fill:#a6cee3;stroke:#a6cee3;stroke-width:50;"/>
    <path clip-path="url(#pa4d00277f1)" d="M 72.420448 170.28 
L 66.420448 170.28 
" style="fill:#a6cee3;stroke:#a6cee3;stroke-width:50;"/>
    <path clip-path="url(#pa4d00277f1)" d="M 75.435384 170.28 
L 69.435384 170.28 
" style="fill:#a6cee3;stroke:#a6cee3;stroke-width:50;"/>
    <path clip-path="url(#pa4d00277f1)" d="M 78.450319 170.28 
L 72.450319 170.28 
" style="fill:#a6cee3;stroke:#a6cee3;stroke-width:50;"/>
    <path clip-path="url(#pa4d00277f1)" d="M 81.465254 170.28 
L 75.465254 170.28 
" style="fill:#a6cee3;stroke:#a6cee3;stroke-width:50;"/>
    <path clip-path="url(#pa4d00277f1)" d="M 84.480189 170.28 
L 78.480189 170.28 
" style="fill:#a6cee3;stroke:#a6cee3;stroke-width:50;"/>
    <path clip-path="url(#pa4d00277f1)" d="M 87.495124 170.28 
L 81.495124 170.28 
" style="fill:#a6cee3;stroke:#a6cee3;stroke-width:50;"/>
    <path clip-path="url(#pa4d00277f1)" d="M 90.51006 170.28 
L 84.51006 170.28 
" style="fill:#1f78b4;stroke:#1f78b4;stroke-width:50;"/>
    <path clip-path="url(#pa4d00277f1)" d="M 93.524995 170.28 
L 87.524995 170.28 
" style="fill:#1f78b4;stroke:#1f78b4;stroke-width:50;"/>
    <path clip-path="url(#pa4d00277f1)" d="M 96.53993 170.28 
L 90.53993 170.28 
" style="fill:#1f78b4;stroke:#1f78b4;stroke-width:50;"/>
    <path clip-path="url(#pa4d00277f1)" d="M 99.554865 170.28 
L 93.554865 170.28 
" style="fill:#1f78b4;stroke:#1f78b4;stroke-width:50;"/>
    <path clip-path="url(#pa4d00277f1)" d="M 102.5698 170.28 
L 96.5698 170.28 
" style="fill:#1f78b4;stroke:#1f78b4;stroke-width:50;"/>
    <path clip-path="url(#pa4d00277f1)" d="M 105.584736 170.28 
L 99.584736 170.28 
" style="fill:#1f78b4;stroke:#1f78b4;stroke-width:50;"/>
    <path clip-path="url(#pa4d00277f1)" d="M 108.599671 170.28 
L 102.599671 170.28 
" style="fill:#1f78b4;stroke:#1f78b4;stroke-width:50;"/>
    <path clip-path="url(#pa4d00277f1)" d="M 111.614606 170.28 
L 105.614606 170.28 
" style="fill:#1f78b4;stroke:#1f78b4;stroke-width:50;"/>
    <path clip-path="url(#pa4d00277f1)" d="M 114.629541 170.28 
L 108.629541 170.28 
" style="fill:#1f78b4;stroke:#1f78b4;stroke-width:50;"/>
    <path clip-path="url(#pa4d00277f1)" d="M 117.644476 170.28 
L 111.644476 170.28 
" style="fill:#1f78b4;stroke:#1f78b4;stroke-width:50;"/>
    <path clip-path="url(#pa4d00277f1)" d="M 120.659412 170.28 
L 114.659412 170.28 
" style="fill:#b2df8a;stroke:#b2df8a;stroke-width:50;"/>
    <path clip-path="url(#pa4d00277f1)" d="M 123.674347 170.28 
L 117.674347 170.28 
" style="fill:#b2df8a;stroke:#b2df8a;stroke-width:50;"/>
    <path clip-path="url(#pa4d00277f1)" d="M 126.689282 170.28 
L 120.689282 170.28 
" style="fill:#b2df8a;stroke:#b2df8a;stroke-width:50;"/>
    <path clip-path="url(#pa4d00277f1)" d="M 129.704217 170.28 
L 123.704217 170.28 
" style="fill:#b2df8a;stroke:#b2df8a;stroke-width:50;"/>
    <path clip-path="url(#pa4d00277f1)" d="M 132.719152 170.28 
L 126.719152 170.28 
" style="fill:#b2df8a;stroke:#b2df8a;stroke-width:50;"/>
    <path clip-path="url(#pa4d00277f1)" d="M 135.734088 170.28 
L 129.734088 170.28 
" style="fill:#b2df8a;stroke:#b2df8a;stroke-width:50;"/>
    <path clip-path="url(#pa4d00277f1)" d="M 138.749023 170.28 
L 132.749023 170.28 
" style="fill:#b2df8a;stroke:#b2df8a;stroke-width:50;"/>
    <path clip-path="url(#pa4d00277f1)" d="M 141.763958 170.28 
L 135.763958 170.28 
" style="fill:#b2df8a;stroke:#b2df8a;stroke-width:50;"/>
    <path clip-path="url(#pa4d00277f1)" d="M 144.778893 170.28 
L 138.778893 170.28 
" style="fill:#b2df8a;stroke:#b2df8a;stroke-width:50;"/>
    <path clip-path="url(#pa4d00277f1)" d="M 147.793828 170.28 
L 141.793828 170.28 
" style="fill:#b2df8a;stroke:#b2df8a;stroke-width:50;"/>
    <path clip-path="url(#pa4d00277f1)" d="M 150.808764 170.28 
L 144.808764 170.28 
" style="fill:#fb9a99;stroke:#fb9a99;stroke-width:50;"/>
    <path clip-path="url(#pa4d00277f1)" d="M 153.823699 170.28 
L 147.823699 170.28 
" style="fill:#fb9a99;stroke:#fb9a99;stroke-width:50;"/>
    <path clip-path="url(#pa4d00277f1)" d="M 156.838634 170.28 
L 150.838634 170.28 
" style="fill:#fb9a99;stroke:#fb9a99;stroke-width:50;"/>
    <path clip-path="url(#pa4d00277f1)" d="M 159.853569 170.28 
L 153.853569 170.28 
" style="fill:#fb9a99;stroke:#fb9a99;stroke-width:50;"/>
    <path clip-path="url(#pa4d00277f1)" d="M 162.868504 170.28 
L 156.868504 170.28 
" style="fill:#fb9a99;stroke:#fb9a99;stroke-width:50;"/>
    <path clip-path="url(#pa4d00277f1)" d="M 165.88344 170.28 
L 159.88344 170.28 
" style="fill:#fb9a99;stroke:#fb9a99;stroke-width:50;"/>
    <path clip-path="url(#pa4d00277f1)" d="M 168.898375 170.28 
L 162.898375 170.28 
" style="fill:#fb9a99;stroke:#fb9a99;stroke-width:50;"/>
    <path clip-path="url(#pa4d00277f1)" d="M 171.91331 170.28 
L 165.91331 170.28 
" style="fill:#fb9a99;stroke:#fb9a99;stroke-width:50;"/>
    <path clip-path="url(#pa4d00277f1)" d="M 174.928245 170.28 
L 168.928245 170.28 
" style="fill:#fb9a99;stroke:#fb9a99;stroke-width:50;"/>
    <path clip-path="url(#pa4d00277f1)" d="M 177.94318 170.28 
L 171.94318 170.28 
" style="fill:#fb9a99;stroke:#fb9a99;stroke-width:50;"/>
    <path clip-path="url(#pa4d00277f1)" d="M 180.958116 170.28 
L 174.958116 170.28 
" style="fill:#e31a1c;stroke:#e31a1c;stroke-width:50;"/>
    <path clip-path="url(#pa4d00277f1)" d="M 183.973051 170.28 
L 177.973051 170.28 
" style="fill:#e31a1c;stroke:#e31a1c;stroke-width:50;"/>
    <path clip-path="url(#pa4d00277f1)" d="M 186.987986 170.28 
L 180.987986 170.28 
" style="fill:#e31a1c;stroke:#e31a1c;stroke-width:50;"/>
    <path clip-path="url(#pa4d00277f1)" d="M 190.002921 170.28 
L 184.002921 170.28 
" style="fill:#e31a1c;stroke:#e31a1c;stroke-width:50;"/>
    <path clip-path="url(#pa4d00277f1)" d="M 193.017856 170.28 
L 187.017856 170.28 
" style="fill:#e31a1c;stroke:#e31a1c;stroke-width:50;"/>
    <path clip-path="url(#pa4d00277f1)" d="M 196.032792 170.28 
L 190.032792 170.28 
" style="fill:#e31a1c;stroke:#e31a1c;stroke-width:50;"/>
    <path clip-path="url(#pa4d00277f1)" d="M 199.047727 170.28 
L 193.047727 170.28 
" style="fill:#e31a1c;stroke:#e31a1c;stroke-width:50;"/>
    <path clip-path="url(#pa4d00277f1)" d="M 202.062662 170.28 
L 196.062662 170.28 
" style="fill:#e31a1c;stroke:#e31a1c;stroke-width:50;"/>
    <path clip-path="url(#pa4d00277f1)" d="M 205.077597 170.28 
L 199.077597 170.28 
" style="fill:#e31a1c;stroke:#e31a1c;stroke-width:50;"/>
    <path clip-path="url(#pa4d00277f1)" d="M 208.092532 170.28 
L 202.092532 170.28 
" style="fill:#e31a1c;stroke:#e31a1c;stroke-width:50;"/>
    <path clip-path="url(#pa4d00277f1)" d="M 211.107468 170.28 
L 205.107468 170.28 
" style="fill:#fdbf6f;stroke:#fdbf6f;stroke-width:50;"/>
    <path clip-path="url(#pa4d00277f1)" d="M 214.122403 170.28 
L 208.122403 170.28 
" style="fill:#fdbf6f;stroke:#fdbf6f;stroke-width:50;"/>
    <path clip-path="url(#pa4d00277f1)" d="M 217.137338 170.28 
L 211.137338 170.28 
" style="fill:#fdbf6f;stroke:#fdbf6f;stroke-width:50;"/>
    <path clip-path="url(#pa4d00277f1)" d="M 220.152273 170.28 
L 214.152273 170.28 
" style="fill:#fdbf6f;stroke:#fdbf6f;stroke-width:50;"/>
    <path clip-path="url(#pa4d00277f1)" d="M 223.167208 170.28 
L 217.167208 170.28 
" style="fill:#fdbf6f;stroke:#fdbf6f;stroke-width:50;"/>
    <path clip-path="url(#pa4d00277f1)" d="M 226.182144 170.28 
L 220.182144 170.28 
" style="fill:#fdbf6f;stroke:#fdbf6f;stroke-width:50;"/>
    <path clip-path="url(#pa4d00277f1)" d="M 229.197079 170.28 
L 223.197079 170.28 
" style="fill:#fdbf6f;stroke:#fdbf6f;stroke-width:50;"/>
    <path clip-path="url(#pa4d00277f1)" d="M 232.212014 170.28 
L 226.212014 170.28 
" style="fill:#fdbf6f;stroke:#fdbf6f;stroke-width:50;"/>
    <path clip-path="url(#pa4d00277f1)" d="M 235.226949 170.28 
L 229.226949 170.28 
" style="fill:#fdbf6f;stroke:#fdbf6f;stroke-width:50;"/>
    <path clip-path="url(#pa4d00277f1)" d="M 238.241884 170.28 
L 232.241884 170.28 
" style="fill:#fdbf6f;stroke:#fdbf6f;stroke-width:50;"/>
    <path clip-path="url(#pa4d00277f1)" d="M 241.25682 170.28 
L 235.25682 170.28 
" style="fill:#cab2d6;stroke:#cab2d6;stroke-width:50;"/>
    <path clip-path="url(#pa4d00277f1)" d="M 244.271755 170.28 
L 238.271755 170.28 
" style="fill:#cab2d6;stroke:#cab2d6;stroke-width:50;"/>
    <path clip-path="url(#pa4d00277f1)" d="M 247.28669 170.28 
L 241.28669 170.28 
" style="fill:#cab2d6;stroke:#cab2d6;stroke-width:50;"/>
    <path clip-path="url(#pa4d00277f1)" d="M 250.301625 170.28 
L 244.301625 170.28 
" style="fill:#cab2d6;stroke:#cab2d6;stroke-width:50;"/>
    <path clip-path="url(#pa4d00277f1)" d="M 253.31656 170.28 
L 247.31656 170.28 
" style="fill:#cab2d6;stroke:#cab2d6;stroke-width:50;"/>
    <path clip-path="url(#pa4d00277f1)" d="M 256.331496 170.28 
L 250.331496 170.28 
" style="fill:#cab2d6;stroke:#cab2d6;stroke-width:50;"/>
    <path clip-path="url(#pa4d00277f1)" d="M 259.346431 170.28 
L 253.346431 170.28 
" style="fill:#cab2d6;stroke:#cab2d6;stroke-width:50;"/>
    <path clip-path="url(#pa4d00277f1)" d="M 262.361366 170.28 
L 256.361366 170.28 
" style="fill:#cab2d6;stroke:#cab2d6;stroke-width:50;"/>
    <path clip-path="url(#pa4d00277f1)" d="M 265.376301 170.28 
L 259.376301 170.28 
" style="fill:#cab2d6;stroke:#cab2d6;stroke-width:50;"/>
    <path clip-path="url(#pa4d00277f1)" d="M 268.391236 170.28 
L 262.391236 170.28 
" style="fill:#cab2d6;stroke:#cab2d6;stroke-width:50;"/>
    <path clip-path="url(#pa4d00277f1)" d="M 271.406172 170.28 
L 265.406172 170.28 
" style="fill:#6a3d9a;stroke:#6a3d9a;stroke-width:50;"/>
    <path clip-path="url(#pa4d00277f1)" d="M 274.421107 170.28 
L 268.421107 170.28 
" style="fill:#6a3d9a;stroke:#6a3d9a;stroke-width:50;"/>
    <path clip-path="url(#pa4d00277f1)" d="M 277.436042 170.28 
L 271.436042 170.28 
" style="fill:#6a3d9a;stroke:#6a3d9a;stroke-width:50;"/>
    <path clip-path="url(#pa4d00277f1)" d="M 280.450977 170.28 
L 274.450977 170.28 
" style="fill:#6a3d9a;stroke:#6a3d9a;stroke-width:50;"/>
    <path clip-path="url(#pa4d00277f1)" d="M 283.465912 170.28 
L 277.465912 170.28 
" style="fill:#6a3d9a;stroke:#6a3d9a;stroke-width:50;"/>
    <path clip-path="url(#pa4d00277f1)" d="M 286.480848 170.28 
L 280.480848 170.28 
" style="fill:#6a3d9a;stroke:#6a3d9a;stroke-width:50;"/>
    <path clip-path="url(#pa4d00277f1)" d="M 289.495783 170.28 
L 283.495783 170.28 
" style="fill:#6a3d9a;stroke:#6a3d9a;stroke-width:50;"/>
    <path clip-path="url(#pa4d00277f1)" d="M 292.510718 170.28 
L 286.510718 170.28 
" style="fill:#6a3d9a;stroke:#6a3d9a;stroke-width:50;"/>
    <path clip-path="url(#pa4d00277f1)" d="M 295.525653 170.28 
L 289.525653 170.28 
" style="fill:#6a3d9a;stroke:#6a3d9a;stroke-width:50;"/>
    <path clip-path="url(#pa4d00277f1)" d="M 298.540588 170.28 
L 292.540588 170.28 
" style="fill:#6a3d9a;stroke:#6a3d9a;stroke-width:50;"/>
    <path clip-path="url(#pa4d00277f1)" d="M 301.555524 170.28 
L 295.555524 170.28 
" style="fill:#ffff99;stroke:#ffff99;stroke-width:50;"/>
    <path clip-path="url(#pa4d00277f1)" d="M 304.570459 170.28 
L 298.570459 170.28 
" style="fill:#ffff99;stroke:#ffff99;stroke-width:50;"/>
    <path clip-path="url(#pa4d00277f1)" d="M 307.585394 170.28 
L 301.585394 170.28 
" style="fill:#ffff99;stroke:#ffff99;stroke-width:50;"/>
    <path clip-path="url(#pa4d00277f1)" d="M 310.600329 170.28 
L 304.600329 170.28 
" style="fill:#ffff99;stroke:#ffff99;stroke-width:50;"/>
    <path clip-path="url(#pa4d00277f1)" d="M 313.615264 170.28 
L 307.615264 170.28 
" style="fill:#ffff99;stroke:#ffff99;stroke-width:50;"/>
    <path clip-path="url(#pa4d00277f1)" d="M 316.6302 170.28 
L 310.6302 170.28 
" style="fill:#ffff99;stroke:#ffff99;stroke-width:50;"/>
    <path clip-path="url(#pa4d00277f1)" d="M 319.645135 170.28 
L 313.645135 170.28 
" style="fill:#ffff99;stroke:#ffff99;stroke-width:50;"/>
    <path clip-path="url(#pa4d00277f1)" d="M 322.66007 170.28 
L 316.66007 170.28 
" style="fill:#ffff99;stroke:#ffff99;stroke-width:50;"/>
    <path clip-path="url(#pa4d00277f1)" d="M 325.675005 170.28 
L 319.675005 170.28 
" style="fill:#ffff99;stroke:#ffff99;stroke-width:50;"/>
    <path clip-path="url(#pa4d00277f1)" d="M 328.68994 170.28 
L 322.68994 170.28 
" style="fill:#ffff99;stroke:#ffff99;stroke-width:50;"/>
    <path clip-path="url(#pa4d00277f1)" d="M 331.704876 170.28 
L 325.704876 170.28 
" style="fill:#b15928;stroke:#b15928;stroke-width:50;"/>
    <path clip-path="url(#pa4d00277f1)" d="M 334.719811 170.28 
L 328.719811 170.28 
" style="fill:#b15928;stroke:#b15928;stroke-width:50;"/>
    <path clip-path="url(#pa4d00277f1)" d="M 337.734746 170.28 
L 331.734746 170.28 
" style="fill:#b15928;stroke:#b15928;stroke-width:50;"/>
    <path clip-path="url(#pa4d00277f1)" d="M 340.749681 170.28 
L 334.749681 170.28 
" style="fill:#b15928;stroke:#b15928;stroke-width:50;"/>
    <path clip-path="url(#pa4d00277f1)" d="M 343.764616 170.28 
L 337.764616 170.28 
" style="fill:#b15928;stroke:#b15928;stroke-width:50;"/>
    <path clip-path="url(#pa4d00277f1)" d="M 346.779552 170.28 
L 340.779552 170.28 
" style="fill:#b15928;stroke:#b15928;stroke-width:50;"/>
    <path clip-path="url(#pa4d00277f1)" d="M 349.794487 170.28 
L 343.794487 170.28 
" style="fill:#b15928;stroke:#b15928;stroke-width:50;"/>
    <path clip-path="url(#pa4d00277f1)" d="M 352.809422 170.28 
L 346.809422 170.28 
" style="fill:#b15928;stroke:#b15928;stroke-width:50;"/>
    <path clip-path="url(#pa4d00277f1)" d="M 355.824357 170.28 
L 349.824357 170.28 
" style="fill:#b15928;stroke:#b15928;stroke-width:50;"/>
    <path clip-path="url(#pa4d00277f1)" d="M 358.839292 170.28 
L 352.839292 170.28 
" style="fill:#b15928;stroke:#b15928;stroke-width:50;"/>
   </g>
   <g id="PathCollection_2">
    <path clip-path="url(#pa4d00277f1)" d="M 60.360708 61.56 
L 54.360708 61.56 
" style="fill:#a6cee3;stroke:#a6cee3;stroke-width:50;"/>
    <path clip-path="url(#pa4d00277f1)" d="M 63.375643 61.56 
L 57.375643 61.56 
" style="fill:#a6cee3;stroke:#a6cee3;stroke-width:50;"/>
    <path clip-path="url(#pa4d00277f1)" d="M 66.390578 61.56 
L 60.390578 61.56 
" style="fill:#a6cee3;stroke:#a6cee3;stroke-width:50;"/>
    <path clip-path="url(#pa4d00277f1)" d="M 69.405513 61.56 
L 63.405513 61.56 
" style="fill:#a6cee3;stroke:#a6cee3;stroke-width:50;"/>
    <path clip-path="url(#pa4d00277f1)" d="M 72.420448 61.56 
L 66.420448 61.56 
" style="fill:#a6cee3;stroke:#a6cee3;stroke-width:50;"/>
    <path clip-path="url(#pa4d00277f1)" d="M 75.435384 61.56 
L 69.435384 61.56 
" style="fill:#a6cee3;stroke:#a6cee3;stroke-width:50;"/>
    <path clip-path="url(#pa4d00277f1)" d="M 78.450319 61.56 
L 72.450319 61.56 
" style="fill:#a6cee3;stroke:#a6cee3;stroke-width:50;"/>
    <path clip-path="url(#pa4d00277f1)" d="M 81.465254 61.56 
L 75.465254 61.56 
" style="fill:#a6cee3;stroke:#a6cee3;stroke-width:50;"/>
    <path clip-path="url(#pa4d00277f1)" d="M 84.480189 61.56 
L 78.480189 61.56 
" style="fill:#a6cee3;stroke:#a6cee3;stroke-width:50;"/>
    <path clip-path="url(#pa4d00277f1)" d="M 87.495124 61.56 
L 81.495124 61.56 
" style="fill:#a6cee3;stroke:#a6cee3;stroke-width:50;"/>
    <path clip-path="url(#pa4d00277f1)" d="M 90.51006 61.56 
L 84.51006 61.56 
" style="fill:#fdbf6f;stroke:#fdbf6f;stroke-width:50;"/>
    <path clip-path="url(#pa4d00277f1)" d="M 93.524995 61.56 
L 87.524995 61.56 
" style="fill:#fdbf6f;stroke:#fdbf6f;stroke-width:50;"/>
    <path clip-path="url(#pa4d00277f1)" d="M 96.53993 61.56 
L 90.53993 61.56 
" style="fill:#fdbf6f;stroke:#fdbf6f;stroke-width:50;"/>
    <path clip-path="url(#pa4d00277f1)" d="M 99.554865 61.56 
L 93.554865 61.56 
" style="fill:#fdbf6f;stroke:#fdbf6f;stroke-width:50;"/>
    <path clip-path="url(#pa4d00277f1)" d="M 102.5698 61.56 
L 96.5698 61.56 
" style="fill:#fdbf6f;stroke:#fdbf6f;stroke-width:50;"/>
    <path clip-path="url(#pa4d00277f1)" d="M 105.584736 61.56 
L 99.584736 61.56 
" style="fill:#fdbf6f;stroke:#fdbf6f;stroke-width:50;"/>
    <path clip-path="url(#pa4d00277f1)" d="M 108.599671 61.56 
L 102.599671 61.56 
" style="fill:#fdbf6f;stroke:#fdbf6f;stroke-width:50;"/>
    <path clip-path="url(#pa4d00277f1)" d="M 111.614606 61.56 
L 105.614606 61.56 
" style="fill:#fdbf6f;stroke:#fdbf6f;stroke-width:50;"/>
    <path clip-path="url(#pa4d00277f1)" d="M 114.629541 61.56 
L 108.629541 61.56 
" style="fill:#fdbf6f;stroke:#fdbf6f;stroke-width:50;"/>
    <path clip-path="url(#pa4d00277f1)" d="M 117.644476 61.56 
L 111.644476 61.56 
" style="fill:#fdbf6f;stroke:#fdbf6f;stroke-width:50;"/>
    <path clip-path="url(#pa4d00277f1)" d="M 120.659412 61.56 
L 114.659412 61.56 
" style="fill:#fdbf6f;stroke:#fdbf6f;stroke-width:50;"/>
    <path clip-path="url(#pa4d00277f1)" d="M 123.674347 61.56 
L 117.674347 61.56 
" style="fill:#fdbf6f;stroke:#fdbf6f;stroke-width:50;"/>
    <path clip-path="url(#pa4d00277f1)" d="M 126.689282 61.56 
L 120.689282 61.56 
" style="fill:#fdbf6f;stroke:#fdbf6f;stroke-width:50;"/>
    <path clip-path="url(#pa4d00277f1)" d="M 129.704217 61.56 
L 123.704217 61.56 
" style="fill:#fdbf6f;stroke:#fdbf6f;stroke-width:50;"/>
    <path clip-path="url(#pa4d00277f1)" d="M 132.719152 61.56 
L 126.719152 61.56 
" style="fill:#fdbf6f;stroke:#fdbf6f;stroke-width:50;"/>
    <path clip-path="url(#pa4d00277f1)" d="M 135.734088 61.56 
L 129.734088 61.56 
" style="fill:#fdbf6f;stroke:#fdbf6f;stroke-width:50;"/>
    <path clip-path="url(#pa4d00277f1)" d="M 138.749023 61.56 
L 132.749023 61.56 
" style="fill:#fdbf6f;stroke:#fdbf6f;stroke-width:50;"/>
    <path clip-path="url(#pa4d00277f1)" d="M 141.763958 61.56 
L 135.763958 61.56 
" style="fill:#fdbf6f;stroke:#fdbf6f;stroke-width:50;"/>
    <path clip-path="url(#pa4d00277f1)" d="M 144.778893 61.56 
L 138.778893 61.56 
" style="fill:#fdbf6f;stroke:#fdbf6f;stroke-width:50;"/>
    <path clip-path="url(#pa4d00277f1)" d="M 147.793828 61.56 
L 141.793828 61.56 
" style="fill:#fdbf6f;stroke:#fdbf6f;stroke-width:50;"/>
    <path clip-path="url(#pa4d00277f1)" d="M 150.808764 61.56 
L 144.808764 61.56 
" style="fill:#fdbf6f;stroke:#fdbf6f;stroke-width:50;"/>
    <path clip-path="url(#pa4d00277f1)" d="M 153.823699 61.56 
L 147.823699 61.56 
" style="fill:#fdbf6f;stroke:#fdbf6f;stroke-width:50;"/>
    <path clip-path="url(#pa4d00277f1)" d="M 156.838634 61.56 
L 150.838634 61.56 
" style="fill:#fdbf6f;stroke:#fdbf6f;stroke-width:50;"/>
    <path clip-path="url(#pa4d00277f1)" d="M 159.853569 61.56 
L 153.853569 61.56 
" style="fill:#fdbf6f;stroke:#fdbf6f;stroke-width:50;"/>
    <path clip-path="url(#pa4d00277f1)" d="M 162.868504 61.56 
L 156.868504 61.56 
" style="fill:#fdbf6f;stroke:#fdbf6f;stroke-width:50;"/>
    <path clip-path="url(#pa4d00277f1)" d="M 165.88344 61.56 
L 159.88344 61.56 
" style="fill:#fdbf6f;stroke:#fdbf6f;stroke-width:50;"/>
    <path clip-path="url(#pa4d00277f1)" d="M 168.898375 61.56 
L 162.898375 61.56 
" style="fill:#fdbf6f;stroke:#fdbf6f;stroke-width:50;"/>
    <path clip-path="url(#pa4d00277f1)" d="M 171.91331 61.56 
L 165.91331 61.56 
" style="fill:#fdbf6f;stroke:#fdbf6f;stroke-width:50;"/>
    <path clip-path="url(#pa4d00277f1)" d="M 174.928245 61.56 
L 168.928245 61.56 
" style="fill:#fdbf6f;stroke:#fdbf6f;stroke-width:50;"/>
    <path clip-path="url(#pa4d00277f1)" d="M 177.94318 61.56 
L 171.94318 61.56 
" style="fill:#fdbf6f;stroke:#fdbf6f;stroke-width:50;"/>
    <path clip-path="url(#pa4d00277f1)" d="M 180.958116 61.56 
L 174.958116 61.56 
" style="fill:#b15928;stroke:#b15928;stroke-width:50;"/>
    <path clip-path="url(#pa4d00277f1)" d="M 183.973051 61.56 
L 177.973051 61.56 
" style="fill:#b15928;stroke:#b15928;stroke-width:50;"/>
    <path clip-path="url(#pa4d00277f1)" d="M 186.987986 61.56 
L 180.987986 61.56 
" style="fill:#b15928;stroke:#b15928;stroke-width:50;"/>
    <path clip-path="url(#pa4d00277f1)" d="M 190.002921 61.56 
L 184.002921 61.56 
" style="fill:#b15928;stroke:#b15928;stroke-width:50;"/>
    <path clip-path="url(#pa4d00277f1)" d="M 193.017856 61.56 
L 187.017856 61.56 
" style="fill:#b15928;stroke:#b15928;stroke-width:50;"/>
    <path clip-path="url(#pa4d00277f1)" d="M 196.032792 61.56 
L 190.032792 61.56 
" style="fill:#b15928;stroke:#b15928;stroke-width:50;"/>
    <path clip-path="url(#pa4d00277f1)" d="M 199.047727 61.56 
L 193.047727 61.56 
" style="fill:#b15928;stroke:#b15928;stroke-width:50;"/>
    <path clip-path="url(#pa4d00277f1)" d="M 202.062662 61.56 
L 196.062662 61.56 
" style="fill:#b15928;stroke:#b15928;stroke-width:50;"/>
    <path clip-path="url(#pa4d00277f1)" d="M 205.077597 61.56 
L 199.077597 61.56 
" style="fill:#b15928;stroke:#b15928;stroke-width:50;"/>
    <path clip-path="url(#pa4d00277f1)" d="M 208.092532 61.56 
L 202.092532 61.56 
" style="fill:#b15928;stroke:#b15928;stroke-width:50;"/>
    <path clip-path="url(#pa4d00277f1)" d="M 211.107468 61.56 
L 205.107468 61.56 
" style="fill:#b15928;stroke:#b15928;stroke-width:50;"/>
    <path clip-path="url(#pa4d00277f1)" d="M 214.122403 61.56 
L 208.122403 61.56 
" style="fill:#b15928;stroke:#b15928;stroke-width:50;"/>
    <path clip-path="url(#pa4d00277f1)" d="M 217.137338 61.56 
L 211.137338 61.56 
" style="fill:#b15928;stroke:#b15928;stroke-width:50;"/>
    <path clip-path="url(#pa4d00277f1)" d="M 220.152273 61.56 
L 214.152273 61.56 
" style="fill:#b15928;stroke:#b15928;stroke-width:50;"/>
    <path clip-path="url(#pa4d00277f1)" d="M 223.167208 61.56 
L 217.167208 61.56 
" style="fill:#b15928;stroke:#b15928;stroke-width:50;"/>
    <path clip-path="url(#pa4d00277f1)" d="M 226.182144 61.56 
L 220.182144 61.56 
" style="fill:#b15928;stroke:#b15928;stroke-width:50;"/>
    <path clip-path="url(#pa4d00277f1)" d="M 229.197079 61.56 
L 223.197079 61.56 
" style="fill:#b15928;stroke:#b15928;stroke-width:50;"/>
    <path clip-path="url(#pa4d00277f1)" d="M 232.212014 61.56 
L 226.212014 61.56 
" style="fill:#b15928;stroke:#b15928;stroke-width:50;"/>
    <path clip-path="url(#pa4d00277f1)" d="M 235.226949 61.56 
L 229.226949 61.56 
" style="fill:#b15928;stroke:#b15928;stroke-width:50;"/>
    <path clip-path="url(#pa4d00277f1)" d="M 238.241884 61.56 
L 232.241884 61.56 
" style="fill:#b15928;stroke:#b15928;stroke-width:50;"/>
    <path clip-path="url(#pa4d00277f1)" d="M 241.25682 61.56 
L 235.25682 61.56 
" style="fill:#b15928;stroke:#b15928;stroke-width:50;"/>
    <path clip-path="url(#pa4d00277f1)" d="M 244.271755 61.56 
L 238.271755 61.56 
" style="fill:#b15928;stroke:#b15928;stroke-width:50;"/>
    <path clip-path="url(#pa4d00277f1)" d="M 247.28669 61.56 
L 241.28669 61.56 
" style="fill:#b15928;stroke:#b15928;stroke-width:50;"/>
    <path clip-path="url(#pa4d00277f1)" d="M 250.301625 61.56 
L 244.301625 61.56 
" style="fill:#b15928;stroke:#b15928;stroke-width:50;"/>
    <path clip-path="url(#pa4d00277f1)" d="M 253.31656 61.56 
L 247.31656 61.56 
" style="fill:#b15928;stroke:#b15928;stroke-width:50;"/>
    <path clip-path="url(#pa4d00277f1)" d="M 256.331496 61.56 
L 250.331496 61.56 
" style="fill:#b15928;stroke:#b15928;stroke-width:50;"/>
    <path clip-path="url(#pa4d00277f1)" d="M 259.346431 61.56 
L 253.346431 61.56 
" style="fill:#b15928;stroke:#b15928;stroke-width:50;"/>
    <path clip-path="url(#pa4d00277f1)" d="M 262.361366 61.56 
L 256.361366 61.56 
" style="fill:#b15928;stroke:#b15928;stroke-width:50;"/>
    <path clip-path="url(#pa4d00277f1)" d="M 265.376301 61.56 
L 259.376301 61.56 
" style="fill:#b15928;stroke:#b15928;stroke-width:50;"/>
    <path clip-path="url(#pa4d00277f1)" d="M 268.391236 61.56 
L 262.391236 61.56 
" style="fill:#b15928;stroke:#b15928;stroke-width:50;"/>
    <path clip-path="url(#pa4d00277f1)" d="M 271.406172 61.56 
L 265.406172 61.56 
" style="fill:#b15928;stroke:#b15928;stroke-width:50;"/>
    <path clip-path="url(#pa4d00277f1)" d="M 274.421107 61.56 
L 268.421107 61.56 
" style="fill:#b15928;stroke:#b15928;stroke-width:50;"/>
    <path clip-path="url(#pa4d00277f1)" d="M 277.436042 61.56 
L 271.436042 61.56 
" style="fill:#b15928;stroke:#b15928;stroke-width:50;"/>
    <path clip-path="url(#pa4d00277f1)" d="M 280.450977 61.56 
L 274.450977 61.56 
" style="fill:#b15928;stroke:#b15928;stroke-width:50;"/>
    <path clip-path="url(#pa4d00277f1)" d="M 283.465912 61.56 
L 277.465912 61.56 
" style="fill:#b15928;stroke:#b15928;stroke-width:50;"/>
    <path clip-path="url(#pa4d00277f1)" d="M 286.480848 61.56 
L 280.480848 61.56 
" style="fill:#b15928;stroke:#b15928;stroke-width:50;"/>
    <path clip-path="url(#pa4d00277f1)" d="M 289.495783 61.56 
L 283.495783 61.56 
" style="fill:#b15928;stroke:#b15928;stroke-width:50;"/>
    <path clip-path="url(#pa4d00277f1)" d="M 292.510718 61.56 
L 286.510718 61.56 
" style="fill:#b15928;stroke:#b15928;stroke-width:50;"/>
    <path clip-path="url(#pa4d00277f1)" d="M 295.525653 61.56 
L 289.525653 61.56 
" style="fill:#b15928;stroke:#b15928;stroke-width:50;"/>
    <path clip-path="url(#pa4d00277f1)" d="M 298.540588 61.56 
L 292.540588 61.56 
" style="fill:#b15928;stroke:#b15928;stroke-width:50;"/>
    <path clip-path="url(#pa4d00277f1)" d="M 301.555524 61.56 
L 295.555524 61.56 
" style="fill:#b15928;stroke:#b15928;stroke-width:50;"/>
    <path clip-path="url(#pa4d00277f1)" d="M 304.570459 61.56 
L 298.570459 61.56 
" style="fill:#b15928;stroke:#b15928;stroke-width:50;"/>
    <path clip-path="url(#pa4d00277f1)" d="M 307.585394 61.56 
L 301.585394 61.56 
" style="fill:#b15928;stroke:#b15928;stroke-width:50;"/>
    <path clip-path="url(#pa4d00277f1)" d="M 310.600329 61.56 
L 304.600329 61.56 
" style="fill:#b15928;stroke:#b15928;stroke-width:50;"/>
    <path clip-path="url(#pa4d00277f1)" d="M 313.615264 61.56 
L 307.615264 61.56 
" style="fill:#b15928;stroke:#b15928;stroke-width:50;"/>
    <path clip-path="url(#pa4d00277f1)" d="M 316.6302 61.56 
L 310.6302 61.56 
" style="fill:#b15928;stroke:#b15928;stroke-width:50;"/>
    <path clip-path="url(#pa4d00277f1)" d="M 319.645135 61.56 
L 313.645135 61.56 
" style="fill:#b15928;stroke:#b15928;stroke-width:50;"/>
    <path clip-path="url(#pa4d00277f1)" d="M 322.66007 61.56 
L 316.66007 61.56 
" style="fill:#b15928;stroke:#b15928;stroke-width:50;"/>
    <path clip-path="url(#pa4d00277f1)" d="M 325.675005 61.56 
L 319.675005 61.56 
" style="fill:#b15928;stroke:#b15928;stroke-width:50;"/>
    <path clip-path="url(#pa4d00277f1)" d="M 328.68994 61.56 
L 322.68994 61.56 
" style="fill:#b15928;stroke:#b15928;stroke-width:50;"/>
    <path clip-path="url(#pa4d00277f1)" d="M 331.704876 61.56 
L 325.704876 61.56 
" style="fill:#b15928;stroke:#b15928;stroke-width:50;"/>
    <path clip-path="url(#pa4d00277f1)" d="M 334.719811 61.56 
L 328.719811 61.56 
" style="fill:#b15928;stroke:#b15928;stroke-width:50;"/>
    <path clip-path="url(#pa4d00277f1)" d="M 337.734746 61.56 
L 331.734746 61.56 
" style="fill:#b15928;stroke:#b15928;stroke-width:50;"/>
    <path clip-path="url(#pa4d00277f1)" d="M 340.749681 61.56 
L 334.749681 61.56 
" style="fill:#b15928;stroke:#b15928;stroke-width:50;"/>
    <path clip-path="url(#pa4d00277f1)" d="M 343.764616 61.56 
L 337.764616 61.56 
" style="fill:#b15928;stroke:#b15928;stroke-width:50;"/>
    <path clip-path="url(#pa4d00277f1)" d="M 346.779552 61.56 
L 340.779552 61.56 
" style="fill:#b15928;stroke:#b15928;stroke-width:50;"/>
    <path clip-path="url(#pa4d00277f1)" d="M 349.794487 61.56 
L 343.794487 61.56 
" style="fill:#b15928;stroke:#b15928;stroke-width:50;"/>
    <path clip-path="url(#pa4d00277f1)" d="M 352.809422 61.56 
L 346.809422 61.56 
" style="fill:#b15928;stroke:#b15928;stroke-width:50;"/>
    <path clip-path="url(#pa4d00277f1)" d="M 355.824357 61.56 
L 349.824357 61.56 
" style="fill:#b15928;stroke:#b15928;stroke-width:50;"/>
    <path clip-path="url(#pa4d00277f1)" d="M 358.839292 61.56 
L 352.839292 61.56 
" style="fill:#b15928;stroke:#b15928;stroke-width:50;"/>
   </g>
   <g id="matplotlib.axis_1">
    <g id="xtick_1">
     <g id="line2d_1">
      <defs>
       <path d="M 0 0 
L 0 3.5 
" id="m4ab5afc6ed" style="stroke:#000000;stroke-width:0.8;"/>
      </defs>
      <g>
       <use style="stroke:#000000;stroke-width:0.8;" x="57.360708" xlink:href="#m4ab5afc6ed" y="224.64"/>
      </g>
     </g>
     <g id="text_1">
      <!-- 0 -->
      <defs>
       <path d="M 3.125 29.296875 
Q 3.90625 50 6.4375 56.046875 
Q 8.984375 62.109375 13.671875 66.015625 
Q 18.359375 69.921875 25.1875 69.921875 
Q 32.03125 69.921875 37.109375 64.25 
Q 42.1875 58.59375 43.75 50 
Q 45.3125 41.40625 44.71875 30.265625 
Q 44.140625 19.140625 40.8125 12.109375 
Q 37.5 5.078125 30.859375 2.34375 
Q 24.21875 -0.390625 17.578125 2.921875 
Q 10.9375 6.25 8.203125 11.71875 
Q 5.46875 17.1875 4.296875 23.234375 
Q 3.125 29.296875 3.90625 50 
z
M 12.890625 52.734375 
Q 10.546875 31.25 12.5 22.84375 
Q 14.453125 14.453125 18.9375 10.9375 
Q 23.4375 7.421875 28.125 9.5625 
Q 32.8125 11.71875 34.953125 18.15625 
Q 37.109375 24.609375 37.109375 32.21875 
Q 37.109375 39.84375 36.515625 46.09375 
Q 35.9375 52.34375 33 57.421875 
Q 30.078125 62.5 25.1875 62.6875 
Q 20.3125 62.890625 16.59375 57.8125 
Q 12.890625 52.734375 10.546875 31.25 
z
" id="SimHei-48"/>
      </defs>
      <g transform="translate(54.860708 238.515)scale(0.1 -0.1)">
       <use xlink:href="#SimHei-48"/>
      </g>
     </g>
    </g>
    <g id="xtick_2">
     <g id="line2d_2">
      <g>
       <use style="stroke:#000000;stroke-width:0.8;" x="117.659412" xlink:href="#m4ab5afc6ed" y="224.64"/>
      </g>
     </g>
     <g id="text_2">
      <!-- 20 -->
      <defs>
       <path d="M 4.6875 3.90625 
Q 5.078125 9.765625 10.15625 14.453125 
Q 15.234375 19.140625 23.046875 29.09375 
Q 30.859375 39.0625 33.203125 44.53125 
Q 35.546875 50 34.953125 53.90625 
Q 34.375 57.8125 31.25 60.34375 
Q 28.125 62.890625 24.015625 62.5 
Q 19.921875 62.109375 16.203125 59.375 
Q 12.5 56.640625 10.546875 51.171875 
L 3.125 52.34375 
Q 6.25 61.328125 11.125 65.421875 
Q 16.015625 69.53125 22.65625 69.921875 
Q 26.5625 70.3125 29.6875 69.71875 
Q 32.8125 69.140625 36.125 66.984375 
Q 39.453125 64.84375 41.59375 60.546875 
Q 43.75 56.25 43.15625 50.1875 
Q 42.578125 44.140625 37.109375 35.734375 
Q 31.640625 27.34375 16.015625 9.375 
L 44.140625 9.375 
L 44.140625 2.34375 
L 4.6875 2.34375 
z
" id="SimHei-50"/>
      </defs>
      <g transform="translate(112.659412 238.515)scale(0.1 -0.1)">
       <use xlink:href="#SimHei-50"/>
       <use x="50" xlink:href="#SimHei-48"/>
      </g>
     </g>
    </g>
    <g id="xtick_3">
     <g id="line2d_3">
      <g>
       <use style="stroke:#000000;stroke-width:0.8;" x="177.958116" xlink:href="#m4ab5afc6ed" y="224.64"/>
      </g>
     </g>
     <g id="text_3">
      <!-- 40 -->
      <defs>
       <path d="M 31.25 17.1875 
L 1.171875 17.1875 
L 1.171875 23.828125 
L 32.8125 69.53125 
L 38.671875 69.53125 
L 38.671875 23.828125 
L 48.046875 23.828125 
L 48.046875 17.1875 
L 38.671875 17.1875 
L 38.671875 2.34375 
L 31.25 2.34375 
z
M 31.25 23.828125 
L 31.25 54.6875 
L 9.375 23.828125 
z
" id="SimHei-52"/>
      </defs>
      <g transform="translate(172.958116 238.515)scale(0.1 -0.1)">
       <use xlink:href="#SimHei-52"/>
       <use x="50" xlink:href="#SimHei-48"/>
      </g>
     </g>
    </g>
    <g id="xtick_4">
     <g id="line2d_4">
      <g>
       <use style="stroke:#000000;stroke-width:0.8;" x="238.25682" xlink:href="#m4ab5afc6ed" y="224.64"/>
      </g>
     </g>
     <g id="text_4">
      <!-- 60 -->
      <defs>
       <path d="M 3.515625 19.53125 
Q 4.296875 30.859375 6.046875 34.765625 
Q 7.8125 38.671875 11.328125 44.53125 
L 27.34375 69.53125 
L 36.328125 69.53125 
L 19.921875 43.75 
Q 30.46875 46.484375 36.71875 42.96875 
Q 42.96875 39.453125 45.109375 34.953125 
Q 47.265625 30.46875 47.453125 25.1875 
Q 47.65625 19.921875 45.890625 14.84375 
Q 44.140625 9.765625 39.640625 5.65625 
Q 35.15625 1.5625 27.140625 1.171875 
Q 19.140625 0.78125 13.46875 4.09375 
Q 7.8125 7.421875 5.65625 13.46875 
Q 3.515625 19.53125 4.296875 30.859375 
z
M 12.5 16.015625 
Q 19.53125 8.59375 25.390625 8.203125 
Q 31.25 7.8125 35.15625 12.109375 
Q 39.0625 16.40625 39.0625 24.609375 
Q 39.0625 32.8125 34.171875 35.9375 
Q 29.296875 39.0625 23.234375 38.28125 
Q 17.1875 37.5 14.453125 32.421875 
Q 11.71875 27.34375 12.109375 21.671875 
Q 12.5 16.015625 19.53125 8.59375 
z
" id="SimHei-54"/>
      </defs>
      <g transform="translate(233.25682 238.515)scale(0.1 -0.1)">
       <use xlink:href="#SimHei-54"/>
       <use x="50" xlink:href="#SimHei-48"/>
      </g>
     </g>
    </g>
    <g id="xtick_5">
     <g id="line2d_5">
      <g>
       <use style="stroke:#000000;stroke-width:0.8;" x="298.555524" xlink:href="#m4ab5afc6ed" y="224.64"/>
      </g>
     </g>
     <g id="text_5">
      <!-- 80 -->
      <defs>
       <path d="M 2.734375 16.796875 
Q 2.734375 26.171875 5.078125 30.65625 
Q 7.421875 35.15625 12.890625 37.890625 
Q 8.203125 40.625 6.640625 43.9375 
Q 5.078125 47.265625 4.875 51.5625 
Q 4.6875 55.859375 6.046875 58.984375 
Q 7.421875 62.109375 10.15625 64.84375 
Q 12.890625 67.578125 16.203125 68.546875 
Q 19.53125 69.53125 23.4375 69.53125 
Q 27.34375 69.53125 30.46875 68.75 
Q 33.59375 67.96875 37.109375 65.421875 
Q 40.625 62.890625 42.1875 58.203125 
Q 43.75 53.515625 41.984375 47.265625 
Q 40.234375 41.015625 32.8125 37.5 
Q 39.453125 35.546875 42.1875 31.4375 
Q 44.921875 27.34375 44.921875 21.484375 
Q 44.921875 15.625 43.15625 12.109375 
Q 41.40625 8.59375 39.25 6.25 
Q 37.109375 3.90625 33.390625 2.53125 
Q 29.6875 1.171875 24.015625 1.171875 
Q 18.359375 1.171875 14.25 2.53125 
Q 10.15625 3.90625 7.421875 6.640625 
Q 4.6875 9.375 3.703125 13.078125 
Q 2.734375 16.796875 2.734375 26.171875 
z
M 10.9375 26.5625 
Q 10.546875 17.1875 12.296875 13.671875 
Q 14.0625 10.15625 18.75 9.171875 
Q 23.4375 8.203125 28.515625 9.375 
Q 33.59375 10.546875 35.546875 14.84375 
Q 37.5 19.140625 36.90625 23.4375 
Q 36.328125 27.734375 32.03125 30.65625 
Q 27.734375 33.59375 22.65625 33.203125 
Q 17.578125 32.8125 14.25 29.6875 
Q 10.9375 26.5625 10.546875 17.1875 
z
M 12.109375 56.25 
Q 12.109375 48.4375 14.84375 44.921875 
Q 17.578125 41.40625 23.4375 41.40625 
Q 29.296875 41.40625 32.21875 44.921875 
Q 35.15625 48.4375 34.953125 53.3125 
Q 34.765625 58.203125 31.4375 60.546875 
Q 28.125 62.890625 22.453125 62.5 
Q 16.796875 62.109375 14.453125 59.171875 
Q 12.109375 56.25 12.109375 48.4375 
z
" id="SimHei-56"/>
      </defs>
      <g transform="translate(293.555524 238.515)scale(0.1 -0.1)">
       <use xlink:href="#SimHei-56"/>
       <use x="50" xlink:href="#SimHei-48"/>
      </g>
     </g>
    </g>
    <g id="xtick_6">
     <g id="line2d_6">
      <g>
       <use style="stroke:#000000;stroke-width:0.8;" x="358.854228" xlink:href="#m4ab5afc6ed" y="224.64"/>
      </g>
     </g>
     <g id="text_6">
      <!-- 100 -->
      <defs>
       <path d="M 21.875 56.25 
Q 16.796875 51.171875 8.984375 46.484375 
L 8.984375 53.90625 
Q 18.75 60.546875 25 69.53125 
L 29.6875 69.53125 
L 29.6875 2.34375 
L 21.875 2.34375 
z
" id="SimHei-49"/>
      </defs>
      <g transform="translate(351.354228 238.515)scale(0.1 -0.1)">
       <use xlink:href="#SimHei-49"/>
       <use x="50" xlink:href="#SimHei-48"/>
       <use x="100" xlink:href="#SimHei-48"/>
      </g>
     </g>
    </g>
    <g id="text_7">
     <!-- Sample index -->
     <defs>
      <path d="M 45.3125 20.703125 
Q 45.3125 11.71875 39.640625 6.4375 
Q 33.984375 1.171875 24.21875 1.171875 
Q 14.453125 1.171875 8.984375 6.640625 
Q 3.515625 12.109375 3.515625 20.3125 
L 3.515625 23.046875 
L 12.5 23.046875 
L 12.5 20.703125 
Q 12.5 14.84375 16.015625 11.71875 
Q 19.53125 8.59375 24.21875 8.59375 
Q 30.46875 8.59375 33.390625 11.90625 
Q 36.328125 15.234375 36.328125 19.921875 
Q 36.328125 23.828125 32.8125 27.140625 
Q 29.296875 30.46875 22.65625 33.203125 
Q 13.28125 36.71875 9.171875 41.015625 
Q 5.078125 45.3125 5.078125 51.171875 
Q 5.078125 59.375 10.734375 64.453125 
Q 16.40625 69.53125 24.21875 69.53125 
Q 34.375 69.53125 38.859375 63.46875 
Q 43.359375 57.421875 43.359375 50.390625 
L 34.375 50.390625 
Q 34.765625 54.6875 32.03125 58.203125 
Q 29.296875 61.71875 24.21875 61.71875 
Q 19.53125 61.71875 16.796875 59.171875 
Q 14.0625 56.640625 14.0625 52.34375 
Q 14.0625 48.828125 16.203125 46.28125 
Q 18.359375 43.75 27.34375 40.234375 
Q 35.9375 36.71875 40.625 31.828125 
Q 45.3125 26.953125 45.3125 20.703125 
z
" id="SimHei-83"/>
      <path d="M 44.921875 1.953125 
L 35.546875 1.953125 
Q 34.765625 2.734375 34.375 4.09375 
Q 33.984375 5.46875 33.984375 7.421875 
Q 31.25 4.296875 27.34375 2.734375 
Q 23.4375 1.171875 19.140625 1.171875 
Q 12.890625 1.171875 8.59375 4.296875 
Q 4.296875 7.421875 4.296875 13.28125 
Q 4.296875 19.140625 8.203125 22.65625 
Q 12.109375 26.171875 20.3125 27.34375 
Q 25.78125 28.125 29.875 29.296875 
Q 33.984375 30.46875 33.984375 32.421875 
Q 33.984375 34.765625 32.21875 37.109375 
Q 30.46875 39.453125 24.609375 39.453125 
Q 19.921875 39.453125 17.765625 37.6875 
Q 15.625 35.9375 14.84375 32.8125 
L 6.25 32.8125 
Q 7.03125 39.0625 11.90625 42.765625 
Q 16.796875 46.484375 24.609375 46.484375 
Q 33.203125 46.484375 37.5 42.578125 
Q 41.796875 38.671875 41.796875 31.640625 
L 41.796875 10.15625 
Q 41.796875 7.8125 42.578125 5.859375 
Q 43.359375 3.90625 44.921875 1.953125 
z
M 33.984375 16.40625 
L 33.984375 24.21875 
Q 31.640625 23.4375 29.484375 22.84375 
Q 27.34375 22.265625 22.265625 21.484375 
Q 16.40625 20.703125 14.640625 18.75 
Q 12.890625 16.796875 12.890625 14.0625 
Q 12.890625 11.71875 14.640625 9.953125 
Q 16.40625 8.203125 19.921875 8.203125 
Q 23.4375 8.203125 27.53125 10.15625 
Q 31.640625 12.109375 33.984375 16.40625 
z
" id="SimHei-97"/>
      <path d="M 47.65625 1.953125 
L 39.84375 1.953125 
L 39.84375 33.59375 
Q 39.84375 35.9375 39.0625 37.5 
Q 38.28125 39.0625 35.9375 39.0625 
Q 33.203125 39.0625 30.859375 36.125 
Q 28.515625 33.203125 28.515625 28.515625 
L 28.515625 1.953125 
L 20.703125 1.953125 
L 20.703125 33.59375 
Q 20.703125 35.9375 19.921875 37.5 
Q 19.140625 39.0625 16.796875 39.0625 
Q 14.0625 39.0625 11.71875 36.125 
Q 9.375 33.203125 9.375 28.515625 
L 9.375 1.953125 
L 1.5625 1.953125 
L 1.5625 45.703125 
L 9.375 45.703125 
L 9.375 39.84375 
Q 11.328125 42.96875 14.0625 44.71875 
Q 16.796875 46.484375 19.921875 46.484375 
Q 23.046875 46.484375 25.1875 44.71875 
Q 27.34375 42.96875 28.125 39.84375 
Q 30.078125 42.96875 32.609375 44.71875 
Q 35.15625 46.484375 38.28125 46.484375 
Q 42.96875 46.484375 45.3125 43.9375 
Q 47.65625 41.40625 47.65625 36.71875 
z
" id="SimHei-109"/>
      <path d="M 44.140625 23.828125 
Q 44.140625 12.5 38.671875 6.640625 
Q 33.203125 0.78125 25.390625 0.78125 
Q 21.09375 0.78125 17.96875 2.53125 
Q 14.84375 4.296875 12.5 7.8125 
L 12.5 -12.5 
L 4.6875 -12.5 
L 4.6875 45.703125 
L 12.5 45.703125 
L 12.5 39.84375 
Q 14.84375 43.359375 17.96875 44.921875 
Q 21.09375 46.484375 25.390625 46.484375 
Q 33.203125 46.484375 38.671875 40.8125 
Q 44.140625 35.15625 44.140625 23.828125 
z
M 35.546875 23.828125 
Q 35.546875 31.25 32.609375 35.34375 
Q 29.6875 39.453125 23.828125 39.453125 
Q 19.140625 39.453125 15.8125 35.34375 
Q 12.5 31.25 12.5 23.828125 
Q 12.5 16.40625 15.8125 12.109375 
Q 19.140625 7.8125 23.828125 7.8125 
Q 29.6875 7.8125 32.609375 12.109375 
Q 35.546875 16.40625 35.546875 23.828125 
z
" id="SimHei-112"/>
      <path d="M 28.515625 1.953125 
L 20.703125 1.953125 
L 20.703125 68.75 
L 28.515625 68.75 
z
" id="SimHei-108"/>
      <path d="M 44.53125 16.796875 
Q 43.75 9.765625 38.28125 5.46875 
Q 32.8125 1.171875 25.390625 1.171875 
Q 16.015625 1.171875 9.953125 7.21875 
Q 3.90625 13.28125 3.90625 23.828125 
Q 3.90625 34.375 9.953125 40.421875 
Q 16.015625 46.484375 25.390625 46.484375 
Q 33.59375 46.484375 38.859375 41.203125 
Q 44.140625 35.9375 44.140625 23.828125 
L 12.5 23.828125 
Q 12.5 15.234375 16.203125 11.71875 
Q 19.921875 8.203125 25.390625 8.203125 
Q 29.6875 8.203125 32.421875 10.34375 
Q 35.15625 12.5 35.9375 16.796875 
z
M 35.15625 30.078125 
Q 34.375 35.546875 31.640625 37.6875 
Q 28.90625 39.84375 24.609375 39.84375 
Q 20.703125 39.84375 17.578125 37.6875 
Q 14.453125 35.546875 12.890625 30.078125 
z
" id="SimHei-101"/>
      <path id="SimHei-32"/>
      <path d="M 28.125 58.203125 
L 20.3125 58.203125 
L 20.3125 68.359375 
L 28.125 68.359375 
z
M 28.125 1.953125 
L 20.3125 1.953125 
L 20.3125 45.703125 
L 28.125 45.703125 
z
" id="SimHei-105"/>
      <path d="M 43.75 1.953125 
L 35.9375 1.953125 
L 35.9375 30.078125 
Q 35.9375 34.765625 33.59375 37.5 
Q 31.25 40.234375 27.34375 40.234375 
Q 22.265625 40.234375 17.765625 34.953125 
Q 13.28125 29.6875 13.28125 21.875 
L 13.28125 1.953125 
L 5.46875 1.953125 
L 5.46875 45.703125 
L 13.28125 45.703125 
L 13.28125 37.5 
Q 16.40625 41.796875 20.109375 44.140625 
Q 23.828125 46.484375 29.6875 46.484375 
Q 36.71875 46.484375 40.234375 42.578125 
Q 43.75 38.671875 43.75 32.8125 
z
" id="SimHei-110"/>
      <path d="M 42.96875 1.953125 
L 35.15625 1.953125 
L 35.15625 7.8125 
Q 32.8125 4.296875 29.6875 2.734375 
Q 26.5625 1.171875 22.265625 1.171875 
Q 14.453125 1.171875 8.984375 6.828125 
Q 3.515625 12.5 3.515625 23.828125 
Q 3.515625 35.15625 8.984375 41.015625 
Q 14.453125 46.875 22.265625 46.875 
Q 26.5625 46.875 29.6875 45.109375 
Q 32.8125 43.359375 35.15625 39.84375 
L 35.15625 68.75 
L 42.96875 68.75 
z
M 35.15625 23.828125 
Q 35.15625 31.25 31.828125 35.546875 
Q 28.515625 39.84375 23.828125 39.84375 
Q 17.96875 39.84375 15.03125 35.546875 
Q 12.109375 31.25 12.109375 23.828125 
Q 12.109375 16.40625 15.03125 12.296875 
Q 17.96875 8.203125 23.828125 8.203125 
Q 28.515625 8.203125 31.828125 12.296875 
Q 35.15625 16.40625 35.15625 23.828125 
z
" id="SimHei-100"/>
      <path d="M 44.921875 1.953125 
L 35.546875 1.953125 
L 24.21875 18.75 
L 12.890625 1.953125 
L 3.515625 1.953125 
L 19.53125 24.21875 
L 4.6875 45.703125 
L 14.0625 45.703125 
L 24.21875 29.296875 
L 34.375 45.703125 
L 43.75 45.703125 
L 28.90625 24.21875 
z
" id="SimHei-120"/>
     </defs>
     <g transform="translate(176.6 250.718125)scale(0.1 -0.1)">
      <use xlink:href="#SimHei-83"/>
      <use x="50" xlink:href="#SimHei-97"/>
      <use x="100" xlink:href="#SimHei-109"/>
      <use x="150" xlink:href="#SimHei-112"/>
      <use x="200" xlink:href="#SimHei-108"/>
      <use x="250" xlink:href="#SimHei-101"/>
      <use x="300" xlink:href="#SimHei-32"/>
      <use x="350" xlink:href="#SimHei-105"/>
      <use x="400" xlink:href="#SimHei-110"/>
      <use x="450" xlink:href="#SimHei-100"/>
      <use x="500" xlink:href="#SimHei-101"/>
      <use x="550" xlink:href="#SimHei-120"/>
     </g>
    </g>
   </g>
   <g id="matplotlib.axis_2">
    <g id="ytick_1">
     <g id="line2d_7">
      <defs>
       <path d="M 0 0 
L -3.5 0 
" id="m90d3e6a626" style="stroke:#000000;stroke-width:0.8;"/>
      </defs>
      <g>
       <use style="stroke:#000000;stroke-width:0.8;" x="39.2" xlink:href="#m90d3e6a626" y="170.28"/>
      </g>
     </g>
     <g id="text_8">
      <!-- Data -->
      <defs>
       <path d="M 45.703125 35.15625 
Q 45.703125 17.1875 38.078125 9.5625 
Q 30.46875 1.953125 17.578125 1.953125 
L 4.296875 1.953125 
L 4.296875 68.75 
L 17.578125 68.75 
Q 32.03125 68.75 38.859375 60.9375 
Q 45.703125 53.125 45.703125 35.15625 
z
M 36.328125 35.15625 
Q 36.328125 49.609375 31.640625 55.46875 
Q 26.953125 61.328125 17.578125 61.328125 
L 13.28125 61.328125 
L 13.28125 9.375 
L 17.578125 9.375 
Q 26.953125 9.375 31.640625 15.03125 
Q 36.328125 20.703125 36.328125 35.15625 
z
" id="SimHei-68"/>
       <path d="M 42.96875 3.125 
Q 41.015625 2.34375 38.46875 1.75 
Q 35.9375 1.171875 31.640625 1.171875 
Q 24.609375 1.171875 20.3125 5.078125 
Q 16.015625 8.984375 16.015625 16.015625 
L 16.015625 39.453125 
L 2.734375 39.453125 
L 2.734375 45.703125 
L 16.015625 45.703125 
L 16.015625 60.9375 
L 23.828125 60.9375 
L 23.828125 45.703125 
L 39.84375 45.703125 
L 39.84375 39.453125 
L 23.828125 39.453125 
L 23.828125 15.625 
Q 23.828125 12.5 25.390625 10.34375 
Q 26.953125 8.203125 31.25 8.203125 
Q 35.546875 8.203125 38.28125 8.984375 
Q 41.015625 9.765625 42.96875 10.9375 
z
" id="SimHei-116"/>
      </defs>
      <g transform="translate(12.2 169.655)scale(0.1 -0.1)">
       <use xlink:href="#SimHei-68"/>
       <use x="50" xlink:href="#SimHei-97"/>
       <use x="100" xlink:href="#SimHei-116"/>
       <use x="150" xlink:href="#SimHei-97"/>
      </g>
      <!-- group -->
      <defs>
       <path d="M 46.484375 39.0625 
Q 43.75 39.84375 41.203125 40.03125 
Q 38.671875 40.234375 35.9375 39.453125 
Q 37.109375 38.28125 37.890625 36.515625 
Q 38.671875 34.765625 38.671875 31.25 
Q 38.671875 24.609375 34.171875 20.3125 
Q 29.6875 16.015625 23.046875 16.015625 
Q 21.484375 16.015625 18.9375 16.59375 
Q 16.40625 17.1875 14.84375 17.96875 
Q 13.671875 17.1875 13.28125 16.40625 
Q 12.890625 15.625 12.890625 14.453125 
Q 12.890625 12.5 15.625 11.515625 
Q 18.359375 10.546875 25.390625 10.546875 
Q 36.71875 10.546875 40.8125 7.421875 
Q 44.921875 4.296875 44.921875 -0.390625 
Q 44.921875 -6.640625 38.859375 -9.5625 
Q 32.8125 -12.5 24.609375 -12.5 
Q 14.0625 -12.5 8.984375 -9.765625 
Q 3.90625 -7.03125 3.90625 -2.34375 
Q 3.90625 0 5.859375 2.34375 
Q 7.8125 4.6875 10.9375 6.25 
Q 8.59375 7.421875 7.21875 9.171875 
Q 5.859375 10.9375 5.859375 13.671875 
Q 5.859375 16.015625 7.609375 17.765625 
Q 9.375 19.53125 11.71875 20.703125 
Q 9.765625 22.65625 8.59375 25.390625 
Q 7.421875 28.125 7.421875 31.25 
Q 7.421875 37.890625 11.90625 42.1875 
Q 16.40625 46.484375 23.046875 46.484375 
Q 26.5625 46.484375 29.09375 45.5 
Q 31.640625 44.53125 33.59375 42.578125 
Q 36.71875 44.921875 39.84375 45.890625 
Q 42.96875 46.875 46.484375 46.484375 
z
M 30.859375 31.25 
Q 30.859375 35.15625 28.90625 37.5 
Q 26.953125 39.84375 23.046875 39.84375 
Q 19.140625 39.84375 17.1875 37.5 
Q 15.234375 35.15625 15.234375 31.25 
Q 15.234375 27.34375 17.1875 25 
Q 19.140625 22.65625 23.046875 22.65625 
Q 26.953125 22.65625 28.90625 25 
Q 30.859375 27.34375 30.859375 31.25 
z
M 37.5 -1.171875 
Q 37.5 0.390625 35.734375 1.953125 
Q 33.984375 3.515625 26.953125 3.515625 
Q 25.390625 3.515625 22.65625 3.703125 
Q 19.921875 3.90625 16.40625 4.296875 
Q 13.28125 3.125 12.109375 1.5625 
Q 10.9375 0 10.9375 -1.5625 
Q 10.9375 -3.90625 14.0625 -5.46875 
Q 17.1875 -7.03125 25 -7.03125 
Q 31.640625 -7.03125 34.5625 -5.265625 
Q 37.5 -3.515625 37.5 -1.171875 
z
" id="SimHei-103"/>
       <path d="M 39.0625 37.890625 
Q 31.640625 39.0625 26.5625 35.734375 
Q 21.484375 32.421875 17.96875 24.21875 
L 17.96875 1.953125 
L 10.15625 1.953125 
L 10.15625 45.703125 
L 17.96875 45.703125 
L 17.96875 34.375 
Q 21.484375 40.625 26.75 43.546875 
Q 32.03125 46.484375 39.0625 46.484375 
z
" id="SimHei-114"/>
       <path d="M 45.703125 23.828125 
Q 45.703125 13.671875 39.453125 7.421875 
Q 33.203125 1.171875 24.609375 1.171875 
Q 16.015625 1.171875 9.765625 7.421875 
Q 3.515625 13.671875 3.515625 23.828125 
Q 3.515625 33.984375 9.765625 40.234375 
Q 16.015625 46.484375 24.609375 46.484375 
Q 33.203125 46.484375 39.453125 40.234375 
Q 45.703125 33.984375 45.703125 23.828125 
z
M 37.109375 23.828125 
Q 37.109375 31.640625 33.203125 35.546875 
Q 29.296875 39.453125 24.609375 39.453125 
Q 19.921875 39.453125 16.015625 35.546875 
Q 12.109375 31.640625 12.109375 23.828125 
Q 12.109375 16.015625 16.015625 12.109375 
Q 19.921875 8.203125 24.609375 8.203125 
Q 29.296875 8.203125 33.203125 12.109375 
Q 37.109375 16.015625 37.109375 23.828125 
z
" id="SimHei-111"/>
       <path d="M 43.75 1.953125 
L 35.9375 1.953125 
L 35.9375 10.15625 
Q 32.8125 5.859375 29.09375 3.515625 
Q 25.390625 1.171875 19.53125 1.171875 
Q 12.5 1.171875 8.984375 5.078125 
Q 5.46875 8.984375 5.46875 14.84375 
L 5.46875 45.703125 
L 13.28125 45.703125 
L 13.28125 17.578125 
Q 13.28125 12.890625 15.625 10.15625 
Q 17.96875 7.421875 21.875 7.421875 
Q 26.953125 7.421875 31.4375 12.6875 
Q 35.9375 17.96875 35.9375 25.78125 
L 35.9375 45.703125 
L 43.75 45.703125 
z
" id="SimHei-117"/>
      </defs>
      <g transform="translate(7.2 179.155)scale(0.1 -0.1)">
       <use xlink:href="#SimHei-103"/>
       <use x="50" xlink:href="#SimHei-114"/>
       <use x="100" xlink:href="#SimHei-111"/>
       <use x="150" xlink:href="#SimHei-117"/>
       <use x="200" xlink:href="#SimHei-112"/>
      </g>
     </g>
    </g>
    <g id="ytick_2">
     <g id="line2d_8">
      <g>
       <use style="stroke:#000000;stroke-width:0.8;" x="39.2" xlink:href="#m90d3e6a626" y="61.56"/>
      </g>
     </g>
     <g id="text_9">
      <!-- Data -->
      <g transform="translate(12.2 60.935)scale(0.1 -0.1)">
       <use xlink:href="#SimHei-68"/>
       <use x="50" xlink:href="#SimHei-97"/>
       <use x="100" xlink:href="#SimHei-116"/>
       <use x="150" xlink:href="#SimHei-97"/>
      </g>
      <!-- class -->
      <defs>
       <path d="M 44.53125 19.53125 
Q 44.53125 11.328125 38.859375 6.25 
Q 33.203125 1.171875 24.609375 1.171875 
Q 16.015625 1.171875 9.765625 7.21875 
Q 3.515625 13.28125 3.515625 23.828125 
Q 3.515625 34.375 9.765625 40.421875 
Q 16.015625 46.484375 24.609375 46.484375 
Q 33.203125 46.484375 38.28125 41.984375 
Q 43.359375 37.5 43.359375 31.25 
L 34.765625 31.25 
Q 34.375 35.9375 31.4375 37.6875 
Q 28.515625 39.453125 24.609375 39.453125 
Q 19.921875 39.453125 16.015625 35.734375 
Q 12.109375 32.03125 12.109375 23.828125 
Q 12.109375 15.625 16.015625 11.90625 
Q 19.921875 8.203125 24.609375 8.203125 
Q 29.6875 8.203125 32.8125 10.9375 
Q 35.9375 13.671875 35.9375 19.53125 
z
" id="SimHei-99"/>
       <path d="M 42.96875 14.0625 
Q 42.96875 7.8125 38.078125 4.484375 
Q 33.203125 1.171875 25.78125 1.171875 
Q 16.40625 1.171875 11.328125 4.875 
Q 6.25 8.59375 6.25 15.625 
L 14.0625 15.625 
Q 14.0625 10.9375 17.375 9.375 
Q 20.703125 7.8125 25.390625 7.8125 
Q 30.078125 7.8125 32.421875 9.5625 
Q 34.765625 11.328125 34.765625 14.0625 
Q 34.765625 16.015625 32.8125 17.96875 
Q 30.859375 19.921875 23.046875 21.09375 
Q 14.0625 22.265625 10.734375 25.578125 
Q 7.421875 28.90625 7.421875 34.375 
Q 7.421875 39.0625 11.90625 42.765625 
Q 16.40625 46.484375 25 46.484375 
Q 32.8125 46.484375 37.296875 42.96875 
Q 41.796875 39.453125 41.796875 33.59375 
L 33.984375 33.59375 
Q 33.984375 37.109375 31.4375 38.46875 
Q 28.90625 39.84375 25 39.84375 
Q 19.921875 39.84375 17.765625 38.078125 
Q 15.625 36.328125 15.625 33.984375 
Q 15.625 31.25 17.578125 29.6875 
Q 19.53125 28.125 25.78125 27.34375 
Q 35.9375 25.78125 39.453125 22.453125 
Q 42.96875 19.140625 42.96875 14.0625 
z
" id="SimHei-115"/>
      </defs>
      <g transform="translate(7.2 70.435)scale(0.1 -0.1)">
       <use xlink:href="#SimHei-99"/>
       <use x="50" xlink:href="#SimHei-108"/>
       <use x="100" xlink:href="#SimHei-97"/>
       <use x="150" xlink:href="#SimHei-115"/>
       <use x="200" xlink:href="#SimHei-115"/>
      </g>
     </g>
    </g>
   </g>
   <g id="patch_3">
    <path d="M 39.2 224.64 
L 39.2 7.2 
" style="fill:none;stroke:#000000;stroke-linecap:square;stroke-linejoin:miter;stroke-width:0.8;"/>
   </g>
   <g id="patch_4">
    <path d="M 374 224.64 
L 374 7.2 
" style="fill:none;stroke:#000000;stroke-linecap:square;stroke-linejoin:miter;stroke-width:0.8;"/>
   </g>
   <g id="patch_5">
    <path d="M 39.2 224.64 
L 374 224.64 
" style="fill:none;stroke:#000000;stroke-linecap:square;stroke-linejoin:miter;stroke-width:0.8;"/>
   </g>
   <g id="patch_6">
    <path d="M 39.2 7.2 
L 374 7.2 
" style="fill:none;stroke:#000000;stroke-linecap:square;stroke-linejoin:miter;stroke-width:0.8;"/>
   </g>
  </g>
 </g>
 <defs>
  <clipPath id="pa4d00277f1">
   <rect height="217.44" width="334.8" x="39.2" y="7.2"/>
  </clipPath>
 </defs>
</svg>
